<svg id="レイヤー_1" data-name="レイヤー 1" xmlns="http://www.w3.org/2000/svg" xmlns:xlink="http://www.w3.org/1999/xlink" viewBox="0 0 141.73 99.21"><defs><style>.cls-1{fill:none;}.cls-12,.cls-2{fill:#e6e400;}.cls-3{fill:#ab951d;}.cls-4{fill:url(#新規パターンスウォッチ_1);}.cls-10,.cls-11,.cls-5{fill:#be588a;}.cls-6{fill:#231815;}.cls-7,.cls-8,.cls-9{fill:#fff;}.cls-8,.cls-9{stroke:#ab951d;}.cls-10,.cls-11,.cls-12,.cls-13,.cls-14,.cls-8,.cls-9{stroke-linecap:round;stroke-linejoin:round;}.cls-8{stroke-width:0.39px;}.cls-9{stroke-width:0.28px;}.cls-10,.cls-11,.cls-12,.cls-13,.cls-14{stroke:#fff;}.cls-10{stroke-width:0.24px;}.cls-11{stroke-width:0.27px;}.cls-12,.cls-13{stroke-width:0.23px;}.cls-13{fill:#93d2d3;}.cls-14{fill:#db8900;stroke-width:0.33px;}</style><pattern id="新規パターンスウォッチ_1" data-name="新規パターンスウォッチ 1" width="42.52" height="850.39" patternTransform="translate(-260.93 -534.67)" patternUnits="userSpaceOnUse" viewBox="0 0 42.52 850.39"><rect class="cls-1" width="42.52" height="850.39"/><rect class="cls-2" width="42.52" height="850.39"/></pattern></defs><ellipse class="cls-3" cx="70.87" cy="49.61" rx="70.87" ry="49.61"/><ellipse class="cls-4" cx="70.87" cy="49.61" rx="68.03" ry="46.77"/><ellipse class="cls-5" cx="70.87" cy="49.61" rx="65.2" ry="43.94"/><ellipse class="cls-6" cx="70.87" cy="49.61" rx="62.36" ry="41.1"/><path class="cls-3" d="M280.63,417.9a3.51,3.51,0,0,0-.28,1.31c-.06.68-.11,1.12-.15,1.33a16.47,16.47,0,0,1-1.37,3.81,8.61,8.61,0,0,1-2.69,3l-.22,0a.9.9,0,0,0-.53.13l-.31-.07a15.15,15.15,0,0,1-2.94.41,7.26,7.26,0,0,1-5.61-3,9.18,9.18,0,0,1-2.42-6l-.06-.06-.06.22-.06.06h-.34a.2.2,0,0,0-.13.12,7.85,7.85,0,0,1-2.63-1.08,5.38,5.38,0,0,0-.31,1.45,13.61,13.61,0,0,1-.16,1.46,28,28,0,0,1-1.36,5.48,1.15,1.15,0,0,0-.57.64,2.67,2.67,0,0,0-.3,1l.1.12h-.1c-.22,0-.38.19-.46.62h-.28a1.35,1.35,0,0,0-.22-.46l.13-.07a14.47,14.47,0,0,1-1.06-4.18l.1-.15a1,1,0,0,1-.13-.28v-.1h0l0-.12,0,0-.12-4.31c-.29,0-.37.29-.25.75a9.49,9.49,0,0,0-1.27,1.39,13,13,0,0,1-1.3,1.24,8.76,8.76,0,0,1-1.46,1.08l-.21-.15a5.6,5.6,0,0,1,0-1.09,15.18,15.18,0,0,1,1.33-6.81h.22a7.93,7.93,0,0,1,1.54-2.61,14.26,14.26,0,0,0-1.64-.68c-.89-.29-1.45-.48-1.7-.59,0-.55.41-1.09,1.24-1.61a7.65,7.65,0,0,1,2-.87c.27,0,.68-.13,1.24-.27.25,0,.61,0,1.09-.07a12.15,12.15,0,0,1,.65-3.37,34.87,34.87,0,0,0-4.46.59l-.66-.1-.06-.25a3.4,3.4,0,0,1,1.24-2.2l3.23-2.1a8.51,8.51,0,0,1,3.93-.84,3.69,3.69,0,0,1,1.95.37c.77.52,1.21.81,1.33.87a14.35,14.35,0,0,1-4.86,3.22,20,20,0,0,0,.87,3.81l.28,0h.31a9.73,9.73,0,0,1,2.12.67,7.87,7.87,0,0,1,2,.95l.9-3.57a16.4,16.4,0,0,1,.68-2.38,3.92,3.92,0,0,1,1.39-1.93.64.64,0,0,0,.28.07,3.19,3.19,0,0,0,.9-.53l1-.71,0-.1a.91.91,0,0,1,.13.1l.12.06a3.61,3.61,0,0,1,1.7-.4,5.42,5.42,0,0,1,2,.31,12.13,12.13,0,0,1,1.7,1.11c.27.42.65,1,1.15,1.89.21.37.59,1.15,1.15,2.32A12.58,12.58,0,0,1,279,409h.24l.19.8-.12.13.12.18a11.7,11.7,0,0,1,.77,2.67,20.09,20.09,0,0,1,.19,3.41Zm-16-7.25-.12-.12-.06.06,0,.06,0,.07.06.06a9.09,9.09,0,0,0-1.71.71c-1,.54-1.58.82-1.64.84a13.8,13.8,0,0,1,1.68,2,10.73,10.73,0,0,1,.74,1.8,6.89,6.89,0,0,0,.34,1.79,2.47,2.47,0,0,1,0-.34v-1.48A20.82,20.82,0,0,1,264.67,410.65Zm11.06,10.17c0-.38,0-.86-.06-1.46-.08-.78-.12-1.28-.12-1.49a62.62,62.62,0,0,0-1.06-8.55c-.18-.78-.46-1.95-.83-3.5-.83-.1-1.31-.16-1.46-.16a9.59,9.59,0,0,0-1.49.21,5.51,5.51,0,0,0-1.34.34.52.52,0,0,0-.27.51,1.23,1.23,0,0,0,.1.49c-.07.44-.23,1.29-.5,2.58a7.75,7.75,0,0,0-.09,1.64c0,.93,0,1.48,0,1.64s-.05.44-.09.9,0,.67,0,.9a27.83,27.83,0,0,0,1,7.06,17.52,17.52,0,0,1,2.41.71l.16-.06.06-.09a4.22,4.22,0,0,0,2,.34l.16.12a8.09,8.09,0,0,1,1.33-1.17,6.74,6.74,0,0,0,0-.81Z" transform="translate(-226.87 -371.07)"/><path class="cls-7" d="M313,404.83l-.13.09,0,.09a47.11,47.11,0,0,1-5.42.65c-.75.15-1.86.35-3.35.59a4.67,4.67,0,0,0-.8,1.21,8.71,8.71,0,0,1,3.22,1.71,8.82,8.82,0,0,1,2.37,2.8,9.14,9.14,0,0,1,.91,3.73,1.87,1.87,0,0,0-.34,1.15l-.21-.22-.28.22a11.76,11.76,0,0,0-2.39.68,16.26,16.26,0,0,1-2.57.81c-.64.14-1.54.3-2.7.46h-.86a1.21,1.21,0,0,0-.78.28v.34l3-.15h.18c.07,0,.09,0,.07-.1a.77.77,0,0,0,.4.1l2.76-.1a13.82,13.82,0,0,1,5.42,1,5.75,5.75,0,0,1,.87.37v.15l.06.13-.25.21v.16c-.27,0-1.35.41-3.24,1.1a28.24,28.24,0,0,0-3.14,1.25c.91.25,1.81.51,2.69.78a7.42,7.42,0,0,1,2.48,1.46,1.4,1.4,0,0,1,.78.43l-.22,0a4.32,4.32,0,0,0-.8.68l-.35,0c-.31,0-.47.07-.49.22h-.06a.29.29,0,0,0-.07-.1,7,7,0,0,0-1.48.36,5.54,5.54,0,0,1-1.55.32,9.89,9.89,0,0,1-1.89-.12,8.43,8.43,0,0,0-1.34-.34l0-.06a13.24,13.24,0,0,1-4.18-1.83c-.16.72-.45,1.81-.87,3.25l-.15-.09-.06.06a1.16,1.16,0,0,0-.1.28,2.72,2.72,0,0,0-.55.62.31.31,0,0,0-.16.11.41.41,0,0,0,0,.29q-1.17-.93-1.8-4.61a3.68,3.68,0,0,0-1.11.8,10.09,10.09,0,0,0-2.05,1,9.88,9.88,0,0,1-2.15.75,9.66,9.66,0,0,1-2.25.34,9.87,9.87,0,0,1-2.6-.56,6.51,6.51,0,0,1,2.17-2.48,10.34,10.34,0,0,1,3-1.55c-.64-.2-1.68-.45-3.13-.74a22.18,22.18,0,0,0-3.5-.5,1.7,1.7,0,0,0-.37,0,1.5,1.5,0,0,1-.4-.34,3.8,3.8,0,0,1,1.1-.82,3.14,3.14,0,0,1,1.22-.51l.13.13,0-.13,0,0,.09,0,.19,0H286l.06.09a5,5,0,0,1,1.74-.49,9.8,9.8,0,0,1,1.79-.22l-.83.15,1.05,0,0-.09-.06-.06-.09,0-.07.06.1-.09.15.12.1,0,.27-.06-.09-.09H290a.31.31,0,0,1,.12-.07.91.91,0,0,1,.13.1l.12.06a7.68,7.68,0,0,1,2.11-.43,1.16,1.16,0,0,0,.37.09,6.52,6.52,0,0,1,1.36-.09l.06-.07a.45.45,0,0,0,.34.13q.78,0,.66,0a1.23,1.23,0,0,0,.09-.47.78.78,0,0,0,0-.22,5.13,5.13,0,0,0-1.52-.34,10.37,10.37,0,0,1-1.55-.18,11.79,11.79,0,0,1-4.83-3,2,2,0,0,1-.56-1.11,3.7,3.7,0,0,1-.16-1.34,1.65,1.65,0,0,1-.06-.46,3.92,3.92,0,0,1,.34-1.24,4.86,4.86,0,0,1,2.39-2.57l.21.19.07,0q0-.12,0-.12a.32.32,0,0,0,.15.12,12.36,12.36,0,0,1,2.67-1.24c-.15-.26-.37-.65-.68-1.14-1.86-.19-3.11-.32-3.75-.4a19.13,19.13,0,0,1-3.63-.93,1.74,1.74,0,0,1,.84-.81,18.46,18.46,0,0,1,2.2-.76,16.71,16.71,0,0,1,2.32-.57c.48-.06,1.16-.18,2.05-.34.39-1.59,1.17-2.49,2.35-2.7.46.13,1.07.87,1.83,2.23a29.91,29.91,0,0,1,4.71-.25,3.62,3.62,0,0,1,.68-1.22,1.43,1.43,0,0,1,1-.67.77.77,0,0,1,.28.07c.29.51.71,1.16,1.27,1.95a21.73,21.73,0,0,1,7.9,1.58,1.48,1.48,0,0,0,.48.62,3,3,0,0,1,.55.59ZM296.68,410a.51.51,0,0,0,0-.21l-2.82.18a7.36,7.36,0,0,0-2.7.68v.56a1,1,0,0,0,.1.44,17.11,17.11,0,0,1,5.29-.81,1.81,1.81,0,0,1,.08-.43A1.88,1.88,0,0,0,296.68,410Zm-.56,3.85a5.46,5.46,0,0,0-1.58-.14,8.25,8.25,0,0,1-1.52-.08,1.77,1.77,0,0,1-.9.06l-.34.12a2.66,2.66,0,0,0,2.3.9,5.4,5.4,0,0,1,1.82.25A7.38,7.38,0,0,1,296.12,413.88Zm4.74-7a.85.85,0,0,0-.07-.28.68.68,0,0,1-.08-.31l-.37,0H300c-.37,0-.94,0-1.7.1s-1.33.09-1.7.09a2.56,2.56,0,0,0-1,.15c-.43,0-.58,0-.43,0-.56,0-.84.19-.84.56l0,.12a34.61,34.61,0,0,1,5.09-.46A10.88,10.88,0,0,1,300.86,406.84Zm2.3,4.8a5.22,5.22,0,0,0-4.28-1.67q-.09,0-.09.09a1.8,1.8,0,0,0,.15.84A16.1,16.1,0,0,1,303.16,411.64Zm1,2.24-.13-.1a22.67,22.67,0,0,1-2.48.1,5.49,5.49,0,0,0-2.2.28v.24a1.52,1.52,0,0,0,.19.65.69.69,0,0,1,.22,0l.87.16.15-.19h0a.35.35,0,0,0,0,.16l.06.06c.17,0,.48,0,1,.06a5.47,5.47,0,0,0,1,0l.22.12a1.72,1.72,0,0,0,.65-.43,1.56,1.56,0,0,1,.56-.4,1.49,1.49,0,0,0,0-.28Z" transform="translate(-226.87 -371.07)"/><path class="cls-7" d="M343.56,414.93l-.16.37-.68.31-.06.28a36.38,36.38,0,0,1-8.92,1.52,6.08,6.08,0,0,0,.77,2.42v.06l.1.06-.1.22c.13.49.33,1.23.62,2.2a.41.41,0,0,0-.25.31,14.33,14.33,0,0,1-.34,1.89,3.1,3.1,0,0,1-.65,1,3.56,3.56,0,0,0-.56.76,5.66,5.66,0,0,0-1.67.84c-1.05.66-1.63,1-1.73,1.07a15.92,15.92,0,0,1-1.85.35c-1.12.19-1.74.28-1.84.28a5.51,5.51,0,0,0-1.43-.15,2.37,2.37,0,0,1-1.3-.37l0-.07a1.83,1.83,0,0,1-.12-.34l.12-.24a11.5,11.5,0,0,1,1-1,4.19,4.19,0,0,0,.63-.31,20.56,20.56,0,0,0,2.09-1.55s0,0,.06-.06l.06,0v0a.51.51,0,0,1,.56-.49.63.63,0,0,1,.47-.53l0-.21a1.76,1.76,0,0,1,.39-.47,6.18,6.18,0,0,0,.83-1.75,7.69,7.69,0,0,0,.55-1.94,3.34,3.34,0,0,0-.41-1.17c-.33-.73-.51-1.14-.56-1.24l-5.11-.1-2.45-.12c-1-.06-1.82-.09-2.44-.09a5.32,5.32,0,0,1-1-.13l-1-.18c-.53,0-1.13-.12-1.79-.22l-.13-.31,0-.12a.29.29,0,0,1,.13-.16v-.06a13.15,13.15,0,0,1,5.45-2.73,23.6,23.6,0,0,1,6.14-1.05,4.31,4.31,0,0,1,1.42-1.57,3.94,3.94,0,0,0,1.49-1.93q-.28-2.79-5.55-3.07l-1.64-.37c-.62-.08-1.24-.18-1.84-.3a3.87,3.87,0,0,1-1.66-.72v-.19a.24.24,0,0,1-.09-.16.47.47,0,0,1,.09-.12v-.06h.31a4.92,4.92,0,0,1,3.16-2.23,16.11,16.11,0,0,1,3.93-.34,10.5,10.5,0,0,1,7.13,2.57l.93.74a7.16,7.16,0,0,1,1.05,1.74,4.75,4.75,0,0,1,.47,1.89c0,.87-.81,2.1-2.42,3.72a32.38,32.38,0,0,1,5,.52,7.51,7.51,0,0,1,4.31,2.23v.1a.84.84,0,0,0,.18.34A1.11,1.11,0,0,1,343.56,414.93Z" transform="translate(-226.87 -371.07)"/><path class="cls-7" d="M271.79,445.33c-.06.15-.3.22-.73.22a2.84,2.84,0,0,1-1-.14,1.86,1.86,0,0,1-.77-.66,2.11,2.11,0,0,1-.42-.88c0-.09.11-.14.26-.14a3.21,3.21,0,0,1,1.46.56A3.51,3.51,0,0,1,271.79,445.33Zm.53,2.95a29.52,29.52,0,0,1-1.38,3.12s-.14.35-.37,1a2.51,2.51,0,0,1-.53.91.84.84,0,0,1-.42-.37,1,1,0,0,1-.2-.52,2.3,2.3,0,0,1,.45-1.06l.7-1,.78-1.15c.44-.61.77-.93,1-.95Zm.7-7.17v.1h-.15a2.47,2.47,0,0,1-1.7-.64,4,4,0,0,1-1.08-1.5.48.48,0,0,1,.26-.06,3,3,0,0,1,1.7.7C272.74,440.19,273.07,440.66,273,441.11Zm11.34,8.74c-.25.45-1.63.87-4.12,1.28a31.72,31.72,0,0,1-4.57.51,3.34,3.34,0,0,1-1.08-.42c-.59-.28-.88-.49-.88-.62s.13-.13.39-.13.49,0,.9.06a8,8,0,0,0,.9.07,33.61,33.61,0,0,0,4.66-.35q3-.42,3.51-.42Zm-1.49-8.52a3,3,0,0,1-1,.61,16.55,16.55,0,0,1-2.41.48,20.16,20.16,0,0,1-2.49.25,2.86,2.86,0,0,1-1.08-.3c-.5-.2-.79-.41-.88-.62a.76.76,0,0,1,.37-.07h.44l.38,0a34.74,34.74,0,0,0,3.93-.31c1.07-.14,1.7-.2,1.88-.2A2,2,0,0,1,282.87,441.33Zm-3.6,3.57a10.61,10.61,0,0,1-.29,2.46,3,3,0,0,1-1.16,2.07,25.34,25.34,0,0,0,.41-4.28c0-1,0-1.56,0-1.64a1,1,0,0,1,.69.53A1.58,1.58,0,0,1,279.27,444.9Z" transform="translate(-226.87 -371.07)"/><path class="cls-7" d="M290.84,452.37a.59.59,0,0,1-.2,0,1.56,1.56,0,0,1-.84-.37q-2.6-1.86-3.43-6.29a12.53,12.53,0,0,1-.3-2.3,2.36,2.36,0,0,1,.22-1.24c.21.06.44.37.7.91a4.89,4.89,0,0,1,.4,1.17c.07.51.23,1.29.46,2.32a11.08,11.08,0,0,0,.88,2.38,13.54,13.54,0,0,0,1.42,2.26l.51.68A1,1,0,0,1,290.84,452.37Zm4.1-5.87a1.37,1.37,0,0,1-.58.38l-.72.26a4.36,4.36,0,0,1-1.06,2.85.6.6,0,0,1-.05-.29,7,7,0,0,1,.11-1.09,7.56,7.56,0,0,0,.12-1.1,2.17,2.17,0,0,0,0-.37,6,6,0,0,1-1.2.17,1.35,1.35,0,0,1-1-.62,7.84,7.84,0,0,1,2.22-.62,8.86,8.86,0,0,0-.11-1.13,7.56,7.56,0,0,1-.12-1.1.45.45,0,0,1,.2,0,1,1,0,0,1,.86.66c.05,1,.07,1.53.07,1.51h.26a1.9,1.9,0,0,1,.64.12C294.8,446.19,294.94,446.33,294.94,446.5Zm.58,3.73c-.06.29-.46.61-1.19.95a4.08,4.08,0,0,1-1.57.48,2.38,2.38,0,0,1-1-.24,1.08,1.08,0,0,1-.68-.68,10.48,10.48,0,0,1,1.54-.05,7,7,0,0,0,1.93-.31,3.76,3.76,0,0,1,.82-.17Zm4.28-6.85a12.64,12.64,0,0,1-.31,2.47,26.83,26.83,0,0,1-1.06,3.58c-.62,1.73-1.18,2.75-1.68,3.07-.23-.12-.35-.49-.35-1.1a12.14,12.14,0,0,1,.73-1.86c.55-1.26.85-2,.91-2.14a12.78,12.78,0,0,0,.72-4,1.84,1.84,0,0,0-.64-1.42,2.23,2.23,0,0,0-1.5-.55,4.85,4.85,0,0,0-1.43.31,4.83,4.83,0,0,1-1.4.31,1,1,0,0,1-.48-.11,3.92,3.92,0,0,1,1.79-1.06,6.78,6.78,0,0,1,2.07-.31,2.4,2.4,0,0,1,1.88.85A2.91,2.91,0,0,1,299.8,443.38Z" transform="translate(-226.87 -371.07)"/><path class="cls-7" d="M303.68,446.59a6.78,6.78,0,0,1-.21,1.38,7.64,7.64,0,0,0-.2,1.4c0,.05,0,.12,0,.21s0,.16,0,.19,0,.19,0,.35,0,.28,0,.37a14.69,14.69,0,0,0,.19,1.93,10.15,10.15,0,0,1,.14,1.94v.15c-.81-.6-1.22-2.05-1.22-4.35a9.66,9.66,0,0,1,.24-2.21c.21-1,.56-1.53,1-1.63A2.45,2.45,0,0,1,303.68,446.59Zm8.29-6.35c-.23.37-1.21.72-2.94,1a19,19,0,0,1-3.33.42.89.89,0,0,1-.32,0,1.44,1.44,0,0,1-.83-.24c-.39-.21-.58-.39-.58-.54a.15.15,0,0,1,0-.08,35.62,35.62,0,0,0,4.89-.44,20.64,20.64,0,0,1,2.49-.22A1.2,1.2,0,0,1,312,440.24Zm-5.5,7.78a1.93,1.93,0,0,1-.51,1.11,2.72,2.72,0,0,1-1,.86,9.18,9.18,0,0,1,.39-1.35,13.36,13.36,0,0,1,.49-1.41h.05c.14,0,.26.08.38.27A1.06,1.06,0,0,1,306.47,448Zm7.25,2.89c0,2-.26,3.23-.8,3.72q-.51-.13-.69-1.26a17.68,17.68,0,0,0,.4-4.09,11.77,11.77,0,0,0-.13-2.34,1.61,1.61,0,0,0-1.75-1.2,15,15,0,0,0-4.28.93,1.44,1.44,0,0,1-.47.09.91.91,0,0,1-.68-.29,6.74,6.74,0,0,1,2.7-1.08,13,13,0,0,1,3-.48,3.18,3.18,0,0,1,1.3.3,2.36,2.36,0,0,1,1.28,1.84,12.76,12.76,0,0,1,.14,2.38ZM306.63,445v.09a1.37,1.37,0,0,1-1-.84,2.88,2.88,0,0,1-.33-1.3,1.06,1.06,0,0,1,.27-.77,1.51,1.51,0,0,1,.55.62,7.83,7.83,0,0,1,.22.81A7.5,7.5,0,0,1,306.63,445Zm1,7.67-.13,0a1.58,1.58,0,0,1-1.23-.75,2.31,2.31,0,0,1-.53-1.39.56.56,0,0,1,.09-.36.8.8,0,0,1,.52.16,2.49,2.49,0,0,1,.4.7,4.45,4.45,0,0,0,.39.78c.09.12.19.25.28.39A.81.81,0,0,1,307.59,452.66Zm2.64-2a1.83,1.83,0,0,1-.61,1.1,2.76,2.76,0,0,1-1.07.82.38.38,0,0,1-.22-.4c0-.24.06-.38.17-.44l.37-.55a1.11,1.11,0,0,0,.23-.6.42.42,0,0,0-.14-.3,5.1,5.1,0,0,0-.76-.06,2.44,2.44,0,0,1-.8-.12c.22-.33.68-.49,1.39-.49a1.93,1.93,0,0,1,1,.27A.85.85,0,0,1,310.23,450.69Zm-1.4-12.13a2.19,2.19,0,0,1-.23.81,2.29,2.29,0,0,1-.47.72c-.05-.34-.12-.85-.23-1.52a5.69,5.69,0,0,1-.42-1.11h.09a1.32,1.32,0,0,1,.87.3A1,1,0,0,1,308.83,438.56Zm2.65,10.76a2.18,2.18,0,0,1-.42.05,1.93,1.93,0,0,1-1.55-.89,3,3,0,0,1-.66-1.79c0-.19,0-.31.14-.37a2,2,0,0,1,.54.63,13.91,13.91,0,0,0,1.07,1.4A8.75,8.75,0,0,1,311.48,449.32Zm-.68-6.78a2.65,2.65,0,0,1-.69,1.28c-.49.63-.9.94-1.24.93a12.19,12.19,0,0,1,.54-1.3,9.83,9.83,0,0,0,.37-1.31,3.16,3.16,0,0,1,.22-.57h.07a.58.58,0,0,1,.53.29A1.26,1.26,0,0,1,310.8,442.54Z" transform="translate(-226.87 -371.07)"/><path class="cls-7" d="M320.69,445.54a9.42,9.42,0,0,1-1,2.41,13.27,13.27,0,0,1-3.12,4.36,3.66,3.66,0,0,1-1.15.74l1.17-1.78a25.13,25.13,0,0,0,3.21-6.06c0-.15.05-.3.08-.44s.09-.31.18-.35a1.06,1.06,0,0,1,.44.47A1.36,1.36,0,0,1,320.69,445.54Zm7.2-3.53c-.06.13-.27.21-.62.24a31.15,31.15,0,0,0-4.61,1.18,7.37,7.37,0,0,1-1.77.41,2.76,2.76,0,0,1-1.13-.24,1.13,1.13,0,0,1-.77-.77s0-.05.09-.05a1.85,1.85,0,0,1,.4.05,2.28,2.28,0,0,0,.42.06,9.35,9.35,0,0,0,1.7-.28l2.56-.64a11.64,11.64,0,0,1,2.56-.4A1.36,1.36,0,0,1,327.89,442Zm-5.06,12.06a2.55,2.55,0,0,1-1.41-1.5,4.84,4.84,0,0,1-.51-2.06.85.85,0,0,1,.26-.74,1.58,1.58,0,0,1,.56.83c.09.31.23.78.42,1.4.14.34.27.69.4,1.05A3.13,3.13,0,0,1,322.83,454.07Zm4.89-3.35a2,2,0,0,1-.34.94,4.5,4.5,0,0,1-1.3,1.35,3,3,0,0,1-1.72.6,2,2,0,0,1-.78-.16c-.31-.14-.45-.32-.44-.55v0a2.28,2.28,0,0,1,.47.07,2.86,2.86,0,0,0,.5.06,2.64,2.64,0,0,0,1.63-.78,2.07,2.07,0,0,0,.91-1.49,1.15,1.15,0,0,0,0-.14,1.67,1.67,0,0,0-1.3-.44,5.93,5.93,0,0,0-.7.06,4.72,4.72,0,0,1-.71.07,1.24,1.24,0,0,1-.74-.17,2.75,2.75,0,0,1,1.13-.53,5.21,5.21,0,0,1,1.28-.2Q327.72,449.37,327.72,450.72Zm-3.08-11.29,0,.33a2.56,2.56,0,0,1-.29,1,2.8,2.8,0,0,1-.57.85.51.51,0,0,1,0-.13,2.44,2.44,0,0,1,.06-.44,3.25,3.25,0,0,0,.05-.44,6,6,0,0,0-.24-1.38,6.63,6.63,0,0,1-.23-1.17.3.3,0,0,1,.05-.21,1.26,1.26,0,0,1,.86.57A1.8,1.8,0,0,1,324.64,439.43Zm-.13,5.28a8.27,8.27,0,0,1-.06.86,6.53,6.53,0,0,0-.07.81c0,.75-.06,1.24-.07,1.46a4.71,4.71,0,0,1-.27,1.41c-.37-.32-.55-1.25-.55-2.8s.12-2.55.38-2.78a.92.92,0,0,1,.45.43A1.25,1.25,0,0,1,324.51,444.71Zm3.12,1.54a5.42,5.42,0,0,1-1.71.27,1,1,0,0,1-.63-.29.77.77,0,0,1-.36-.55v0a2.77,2.77,0,0,1,.49,0C326.61,445.61,327.34,445.82,327.63,446.25Z" transform="translate(-226.87 -371.07)"/><path class="cls-8" d="M351.61,417.53a1.65,1.65,0,0,0-.05-.38,1.43,1.43,0,1,0-2.76.74,1.51,1.51,0,0,0,.14.35l2.68,4.7Z" transform="translate(-226.87 -371.07)"/><path class="cls-8" d="M354.32,418.25a1.37,1.37,0,0,0,.15-.35,1.43,1.43,0,1,0-2.76-.75,1.24,1.24,0,0,0,0,.38l0,5.41Z" transform="translate(-226.87 -371.07)"/><path class="cls-8" d="M356.31,420.24a1.33,1.33,0,0,0,.3-.23,1.43,1.43,0,1,0-2-2,2.09,2.09,0,0,0-.23.29l-2.74,4.67Z" transform="translate(-226.87 -371.07)"/><path class="cls-8" d="M357,423a1.65,1.65,0,0,0,.38-.05,1.43,1.43,0,1,0-.73-2.77,2.13,2.13,0,0,0-.35.14l-4.71,2.67Z" transform="translate(-226.87 -371.07)"/><path class="cls-8" d="M356.3,425.66a2.17,2.17,0,0,0,.35.15,1.43,1.43,0,1,0,.76-2.76A1.68,1.68,0,0,0,357,423l-5.42-.05Z" transform="translate(-226.87 -371.07)"/><path class="cls-8" d="M354.31,427.64a1.33,1.33,0,0,0,.23.3,1.43,1.43,0,1,0,2-2,1.33,1.33,0,0,0-.3-.23l-4.66-2.76Z" transform="translate(-226.87 -371.07)"/><path class="cls-8" d="M351.6,428.36a1.17,1.17,0,0,0,0,.37,1.44,1.44,0,0,0,1.75,1,1.43,1.43,0,0,0,1-1.76,1.51,1.51,0,0,0-.14-.35l-2.65-4.72Z" transform="translate(-226.87 -371.07)"/><path class="cls-8" d="M348.89,427.62a1,1,0,0,0-.15.34,1.43,1.43,0,1,0,2.76.77,1.57,1.57,0,0,0,.05-.37l.07-5.42Z" transform="translate(-226.87 -371.07)"/><path class="cls-8" d="M346.91,425.62a1.6,1.6,0,0,0-.3.23,1.43,1.43,0,1,0,2,2,1.61,1.61,0,0,0,.24-.29l2.77-4.66Z" transform="translate(-226.87 -371.07)"/><path class="cls-8" d="M346.2,422.9a1.64,1.64,0,0,0-.37.05,1.43,1.43,0,1,0,.71,2.77,1.35,1.35,0,0,0,.35-.14l4.73-2.64Z" transform="translate(-226.87 -371.07)"/><path class="cls-8" d="M347,420.2a1,1,0,0,0-.34-.15,1.43,1.43,0,1,0-.78,2.75,1.24,1.24,0,0,0,.37.06l5.42.08Z" transform="translate(-226.87 -371.07)"/><path class="cls-8" d="M349,418.23a1.29,1.29,0,0,0-.22-.3,1.43,1.43,0,1,0-2.05,2,1.61,1.61,0,0,0,.29.24l4.65,2.78Z" transform="translate(-226.87 -371.07)"/><path class="cls-8" d="M352.3,423a.69.69,0,0,1-1.37,0,.69.69,0,0,1,1.37,0Z" transform="translate(-226.87 -371.07)"/><path class="cls-9" d="M281.58,387.57a1.15,1.15,0,0,0,0-.26,1,1,0,1,0-1.95.51,1.09,1.09,0,0,0,.1.25l1.89,3.31Z" transform="translate(-226.87 -371.07)"/><path class="cls-9" d="M283.49,388.08a1.86,1.86,0,0,0,.1-.25,1,1,0,1,0-1.94-.52.75.75,0,0,0,0,.26l0,3.81Z" transform="translate(-226.87 -371.07)"/><path class="cls-9" d="M284.88,389.47a.65.65,0,0,0,.21-.16,1,1,0,1,0-1.41-1.42.74.74,0,0,0-.16.2l-1.93,3.29Z" transform="translate(-226.87 -371.07)"/><path class="cls-9" d="M285.39,391.38a1.09,1.09,0,0,0,.26,0,1,1,0,1,0-.51-2,1.73,1.73,0,0,0-.24.1l-3.31,1.88Z" transform="translate(-226.87 -371.07)"/><path class="cls-9" d="M284.88,393.29a1.33,1.33,0,0,0,.24.1,1,1,0,0,0,1.25-.7,1,1,0,0,0-.72-1.24,1.09,1.09,0,0,0-.26,0l-3.8,0Z" transform="translate(-226.87 -371.07)"/><path class="cls-9" d="M283.48,394.68a1,1,0,0,0,.16.21,1,1,0,1,0,1.43-1.41.87.87,0,0,0-.21-.17l-3.27-1.93Z" transform="translate(-226.87 -371.07)"/><path class="cls-9" d="M281.57,395.18a1.09,1.09,0,0,0,0,.26,1,1,0,1,0,1.95-.5.87.87,0,0,0-.1-.24l-1.86-3.32Z" transform="translate(-226.87 -371.07)"/><path class="cls-9" d="M279.67,394.66a1.12,1.12,0,0,0-.11.25,1,1,0,1,0,1.94.53,1.09,1.09,0,0,0,0-.26l0-3.8Z" transform="translate(-226.87 -371.07)"/><path class="cls-9" d="M278.28,393.26a.65.65,0,0,0-.21.16,1,1,0,1,0,1.4,1.43,1.06,1.06,0,0,0,.17-.2l1.95-3.27Z" transform="translate(-226.87 -371.07)"/><path class="cls-9" d="M277.78,391.35a1.09,1.09,0,0,0-.26,0,1,1,0,1,0,.74,1.85l3.33-1.85Z" transform="translate(-226.87 -371.07)"/><path class="cls-9" d="M278.3,389.45a.88.88,0,0,0-.24-.11,1,1,0,1,0-.54,1.94,1.17,1.17,0,0,0,.26,0l3.81.06Z" transform="translate(-226.87 -371.07)"/><path class="cls-9" d="M279.71,388.06a1,1,0,0,0-.16-.21,1,1,0,1,0-1.44,1.4,1.57,1.57,0,0,0,.21.17l3.27,2Z" transform="translate(-226.87 -371.07)"/><path class="cls-9" d="M282.06,391.38a.48.48,0,0,1-.48.48.49.49,0,0,1-.48-.48.48.48,0,0,1,.48-.48A.47.47,0,0,1,282.06,391.38Z" transform="translate(-226.87 -371.07)"/><path class="cls-10" d="M244.41,405.2a.91.91,0,0,0,0-.23.85.85,0,1,0-1.65.44,1,1,0,0,0,.08.21l1.6,2.8Z" transform="translate(-226.87 -371.07)"/><path class="cls-10" d="M246,405.63a1,1,0,0,0,.09-.21.86.86,0,1,0-1.65-.45.91.91,0,0,0,0,.23l0,3.22Z" transform="translate(-226.87 -371.07)"/><path class="cls-10" d="M247.21,406.81a.75.75,0,0,0,.17-.14.85.85,0,0,0,0-1.21.88.88,0,0,0-1.22,0,1,1,0,0,0-.13.18l-1.64,2.78Z" transform="translate(-226.87 -371.07)"/><path class="cls-10" d="M247.64,408.43a.83.83,0,0,0,.22,0,.85.85,0,1,0-.43-1.65,1,1,0,0,0-.21.08l-2.81,1.59Z" transform="translate(-226.87 -371.07)"/><path class="cls-10" d="M247.2,410a.67.67,0,0,0,.21.09.86.86,0,1,0,.45-1.65.83.83,0,0,0-.22,0l-3.23,0Z" transform="translate(-226.87 -371.07)"/><path class="cls-10" d="M246,411.22a.75.75,0,0,0,.13.18.85.85,0,1,0,1.21-1.2.7.7,0,0,0-.17-.13l-2.78-1.65Z" transform="translate(-226.87 -371.07)"/><path class="cls-10" d="M244.4,411.65a.83.83,0,0,0,0,.22.85.85,0,0,0,1,.62.87.87,0,0,0,.61-1.05.72.72,0,0,0-.09-.2l-1.58-2.82Z" transform="translate(-226.87 -371.07)"/><path class="cls-10" d="M242.78,411.21a1.19,1.19,0,0,0-.08.2.85.85,0,1,0,1.64.46.83.83,0,0,0,0-.22l0-3.23Z" transform="translate(-226.87 -371.07)"/><path class="cls-10" d="M241.61,410a.59.59,0,0,0-.18.13.85.85,0,1,0,1.19,1.22.62.62,0,0,0,.14-.18l1.65-2.77Z" transform="translate(-226.87 -371.07)"/><path class="cls-10" d="M241.19,408.4a.91.91,0,0,0-.23,0,.85.85,0,0,0-.62,1,.86.86,0,0,0,1,.61.72.72,0,0,0,.2-.09l2.82-1.57Z" transform="translate(-226.87 -371.07)"/><path class="cls-10" d="M241.63,406.79a.67.67,0,0,0-.21-.09.85.85,0,1,0-.46,1.64.91.91,0,0,0,.23,0l3.22.05Z" transform="translate(-226.87 -371.07)"/><path class="cls-10" d="M242.82,405.61a1,1,0,0,0-.13-.18.85.85,0,1,0-1.22,1.19.55.55,0,0,0,.17.14l2.77,1.66Z" transform="translate(-226.87 -371.07)"/><path class="cls-11" d="M341,433a.78.78,0,0,0,0-.26,1,1,0,1,0-1.92.51,1.33,1.33,0,0,0,.1.24l1.86,3.27Z" transform="translate(-226.87 -371.07)"/><path class="cls-11" d="M342.88,433.46a.87.87,0,0,0,.1-.24,1,1,0,0,0-.69-1.23,1,1,0,0,0-1.23.71,1.15,1.15,0,0,0,0,.26l0,3.76Z" transform="translate(-226.87 -371.07)"/><path class="cls-11" d="M344.26,434.84a1,1,0,0,0,.21-.16,1,1,0,1,0-1.4-1.41.83.83,0,0,0-.16.21L341,436.72Z" transform="translate(-226.87 -371.07)"/><path class="cls-11" d="M344.76,436.73a1.09,1.09,0,0,0,.26,0,1,1,0,1,0-.5-1.92.87.87,0,0,0-.24.1L341,436.72Z" transform="translate(-226.87 -371.07)"/><path class="cls-11" d="M344.26,438.61a.87.87,0,0,0,.24.1,1,1,0,0,0,1.23-.69,1,1,0,0,0-.71-1.23,1.09,1.09,0,0,0-.26,0l-3.76,0Z" transform="translate(-226.87 -371.07)"/><path class="cls-11" d="M342.87,440a.83.83,0,0,0,.16.21,1,1,0,1,0,1.42-1.39,1,1,0,0,0-.21-.16L341,436.72Z" transform="translate(-226.87 -371.07)"/><path class="cls-11" d="M341,440.48a1.15,1.15,0,0,0,0,.26,1,1,0,1,0,1.92-.5.85.85,0,0,0-.09-.24L341,436.72Z" transform="translate(-226.87 -371.07)"/><path class="cls-11" d="M339.11,440a.88.88,0,0,0-.11.24,1,1,0,1,0,1.92.53,2.34,2.34,0,0,0,0-.26l0-3.76Z" transform="translate(-226.87 -371.07)"/><path class="cls-11" d="M337.73,438.58a.74.74,0,0,0-.2.16,1,1,0,0,0,0,1.41,1,1,0,0,0,1.42,0l.16-.21,1.92-3.23Z" transform="translate(-226.87 -371.07)"/><path class="cls-11" d="M337.24,436.69l-.26,0a1,1,0,1,0,.5,1.93,1.22,1.22,0,0,0,.24-.1l3.28-1.83Z" transform="translate(-226.87 -371.07)"/><path class="cls-11" d="M337.76,434.81a1.33,1.33,0,0,0-.24-.1,1,1,0,1,0-.54,1.91.82.82,0,0,0,.26,0l3.76.06Z" transform="translate(-226.87 -371.07)"/><path class="cls-11" d="M339.15,433.45a.8.8,0,0,0-.15-.21,1,1,0,0,0-1.42,0,1,1,0,0,0,0,1.41.87.87,0,0,0,.21.17l3.22,1.93Z" transform="translate(-226.87 -371.07)"/><path class="cls-11" d="M341.47,436.72a.47.47,0,1,1-.94,0,.47.47,0,0,1,.94,0Z" transform="translate(-226.87 -371.07)"/><path class="cls-12" d="M241.9,420.64a.83.83,0,1,0-1.63.21,1.19,1.19,0,0,0,.08.2l1.55,2.72Z" transform="translate(-226.87 -371.07)"/><path class="cls-12" d="M243.47,421.06a.76.76,0,0,0,.08-.21.82.82,0,1,0-1.62-.21l0,3.13Z" transform="translate(-226.87 -371.07)"/><path class="cls-12" d="M244.62,422.2a.52.52,0,0,0,.17-.13.82.82,0,1,0-1.16-1.17.75.75,0,0,0-.14.17l-1.59,2.7Z" transform="translate(-226.87 -371.07)"/><path class="cls-12" d="M245,423.78l.21,0a.83.83,0,1,0-.42-1.6.5.5,0,0,0-.2.08l-2.73,1.54Z" transform="translate(-226.87 -371.07)"/><path class="cls-12" d="M244.62,425.34a.61.61,0,0,0,.2.09.83.83,0,1,0,.43-1.6l-.21,0-3.14,0Z" transform="translate(-226.87 -371.07)"/><path class="cls-12" d="M243.46,426.49a1.09,1.09,0,0,0,.13.17.84.84,0,0,0,1.18,0,.83.83,0,0,0,0-1.18.7.7,0,0,0-.17-.13l-2.7-1.6Z" transform="translate(-226.87 -371.07)"/><path class="cls-12" d="M241.89,426.9a.78.78,0,0,0,0,.22.83.83,0,1,0,1.6-.41,1.31,1.31,0,0,0-.08-.21l-1.54-2.73Z" transform="translate(-226.87 -371.07)"/><path class="cls-12" d="M240.32,426.48a1.19,1.19,0,0,0-.08.2.83.83,0,1,0,1.59.44,1.43,1.43,0,0,0,0-.22l0-3.13Z" transform="translate(-226.87 -371.07)"/><path class="cls-12" d="M239.18,425.32a1.09,1.09,0,0,0-.17.13.84.84,0,0,0,0,1.18.83.83,0,0,0,1.18,0,1.09,1.09,0,0,0,.13-.17l1.6-2.69Z" transform="translate(-226.87 -371.07)"/><path class="cls-12" d="M238.77,423.75l-.21,0a.83.83,0,1,0,.41,1.61l.2-.08,2.73-1.53Z" transform="translate(-226.87 -371.07)"/><path class="cls-12" d="M239.2,422.18l-.2-.08a.83.83,0,1,0-.44,1.59l.21,0,3.13,0Z" transform="translate(-226.87 -371.07)"/><path class="cls-12" d="M240.36,421a.7.7,0,0,0-.13-.17.84.84,0,0,0-1.18,0,.82.82,0,0,0,0,1.17.75.75,0,0,0,.17.14l2.68,1.61Z" transform="translate(-226.87 -371.07)"/><circle class="cls-12" cx="15.04" cy="52.71" r="0.39"/><path class="cls-13" d="M262.88,389.31a.83.83,0,1,0-1.63.21,1.19,1.19,0,0,0,.08.2l1.55,2.72Z" transform="translate(-226.87 -371.07)"/><path class="cls-13" d="M264.45,389.73a1.31,1.31,0,0,0,.08-.21.83.83,0,1,0-1.63-.21l0,3.13Z" transform="translate(-226.87 -371.07)"/><path class="cls-13" d="M265.6,390.87a.52.52,0,0,0,.17-.13.83.83,0,1,0-1.17-1.17,1.09,1.09,0,0,0-.13.17l-1.59,2.7Z" transform="translate(-226.87 -371.07)"/><path class="cls-13" d="M266,392.45l.21,0a.83.83,0,0,0,.6-1,.82.82,0,0,0-1-.58.5.5,0,0,0-.2.08l-2.73,1.54Z" transform="translate(-226.87 -371.07)"/><path class="cls-13" d="M265.59,394a.72.72,0,0,0,.2.09.83.83,0,1,0,.44-1.6l-.21,0-3.14,0Z" transform="translate(-226.87 -371.07)"/><path class="cls-13" d="M264.44,395.16a1.09,1.09,0,0,0,.13.17.84.84,0,0,0,1.18,0,.83.83,0,0,0,0-1.18.7.7,0,0,0-.17-.13l-2.7-1.6Z" transform="translate(-226.87 -371.07)"/><path class="cls-13" d="M262.87,395.57a.78.78,0,0,0,0,.22.82.82,0,0,0,1,.6.83.83,0,0,0,.59-1,1.31,1.31,0,0,0-.08-.21l-1.54-2.73Z" transform="translate(-226.87 -371.07)"/><path class="cls-13" d="M261.3,395.15a1.19,1.19,0,0,0-.08.2.83.83,0,1,0,1.59.44.78.78,0,0,0,0-.22l0-3.13Z" transform="translate(-226.87 -371.07)"/><path class="cls-13" d="M260.16,394l-.18.13a.84.84,0,0,0,0,1.18.82.82,0,0,0,1.17,0,.75.75,0,0,0,.14-.17l1.6-2.69Z" transform="translate(-226.87 -371.07)"/><path class="cls-13" d="M259.75,392.42l-.22,0a.83.83,0,1,0,.41,1.61,1.31,1.31,0,0,0,.21-.08l2.73-1.53Z" transform="translate(-226.87 -371.07)"/><path class="cls-13" d="M260.18,390.85l-.2-.08a.83.83,0,1,0-.23,1.62l3.13.05Z" transform="translate(-226.87 -371.07)"/><path class="cls-13" d="M261.34,389.71a.7.7,0,0,0-.13-.17.84.84,0,0,0-1.18,0,.82.82,0,0,0,0,1.17,1,1,0,0,0,.17.14l2.69,1.61Z" transform="translate(-226.87 -371.07)"/><path class="cls-13" d="M263.27,392.44a.39.39,0,1,1-.39-.39A.39.39,0,0,1,263.27,392.44Z" transform="translate(-226.87 -371.07)"/><path class="cls-13" d="M327.79,390.11a.89.89,0,0,0,0-.22.83.83,0,1,0-1.6.43,1.19,1.19,0,0,0,.08.2l1.56,2.72Z" transform="translate(-226.87 -371.07)"/><path class="cls-13" d="M329.36,390.53a.5.5,0,0,0,.08-.2.82.82,0,0,0-.57-1,.83.83,0,0,0-1,.59.89.89,0,0,0,0,.22l0,3.13Z" transform="translate(-226.87 -371.07)"/><path class="cls-13" d="M330.51,391.68a1.09,1.09,0,0,0,.17-.13.84.84,0,0,0,0-1.18.83.83,0,0,0-1.18,0,.75.75,0,0,0-.14.17l-1.58,2.7Z" transform="translate(-226.87 -371.07)"/><path class="cls-13" d="M330.93,393.25l.22,0a.83.83,0,1,0-.42-1.6,1.31,1.31,0,0,0-.21.08l-2.72,1.54Z" transform="translate(-226.87 -371.07)"/><path class="cls-13" d="M330.51,394.82l.2.08a.82.82,0,1,0,.44-1.59l-.22,0-3.13,0Z" transform="translate(-226.87 -371.07)"/><path class="cls-13" d="M329.35,396a.79.79,0,0,0,.14.18.82.82,0,0,0,1.17,0,.84.84,0,0,0,0-1.18,1.18,1.18,0,0,0-.18-.13l-2.69-1.6Z" transform="translate(-226.87 -371.07)"/><path class="cls-13" d="M327.78,396.38a.76.76,0,0,0,0,.21.83.83,0,1,0,1.6-.41.7.7,0,0,0-.08-.2l-1.53-2.74Z" transform="translate(-226.87 -371.07)"/><path class="cls-13" d="M326.21,396a1.19,1.19,0,0,0-.08.2.83.83,0,0,0,.57,1,.85.85,0,0,0,1-.59.76.76,0,0,0,0-.21l0-3.14Z" transform="translate(-226.87 -371.07)"/><path class="cls-13" d="M325.07,394.79a.75.75,0,0,0-.17.14.82.82,0,0,0,0,1.17.84.84,0,0,0,1.18,0,.7.7,0,0,0,.13-.17l1.61-2.7Z" transform="translate(-226.87 -371.07)"/><path class="cls-13" d="M324.66,393.22l-.21,0a.83.83,0,1,0,.41,1.6.7.7,0,0,0,.2-.08l2.74-1.53Z" transform="translate(-226.87 -371.07)"/><path class="cls-13" d="M325.09,391.65a.93.93,0,0,0-.2-.08.83.83,0,1,0-.44,1.59l.21,0,3.14,0Z" transform="translate(-226.87 -371.07)"/><path class="cls-13" d="M326.25,390.52a.55.55,0,0,0-.13-.18.83.83,0,1,0-1.18,1.16.7.7,0,0,0,.17.13l2.69,1.61Z" transform="translate(-226.87 -371.07)"/><path class="cls-13" d="M328.19,393.25a.4.4,0,1,1-.4-.4A.4.4,0,0,1,328.19,393.25Z" transform="translate(-226.87 -371.07)"/><path class="cls-12" d="M343.39,399.56a.76.76,0,0,0,0-.21.83.83,0,1,0-1.6.42.93.93,0,0,0,.08.2l1.55,2.73Z" transform="translate(-226.87 -371.07)"/><path class="cls-12" d="M345,400a1.19,1.19,0,0,0,.08-.2.83.83,0,1,0-1.6-.43.76.76,0,0,0,0,.21l0,3.14Z" transform="translate(-226.87 -371.07)"/><path class="cls-12" d="M346.11,401.13a.7.7,0,0,0,.17-.13.84.84,0,0,0,0-1.18.85.85,0,0,0-1.18,0,1.18,1.18,0,0,0-.13.18l-1.59,2.7Z" transform="translate(-226.87 -371.07)"/><path class="cls-12" d="M346.53,402.7l.21,0a.83.83,0,1,0-.42-1.6l-.2.08-2.73,1.55Z" transform="translate(-226.87 -371.07)"/><path class="cls-12" d="M346.1,404.27a.5.5,0,0,0,.2.08.83.83,0,1,0,.44-1.59l-.21,0-3.14,0Z" transform="translate(-226.87 -371.07)"/><path class="cls-12" d="M345,405.42a1.09,1.09,0,0,0,.13.17.83.83,0,1,0,1.18-1.16.75.75,0,0,0-.17-.14l-2.7-1.59Z" transform="translate(-226.87 -371.07)"/><path class="cls-12" d="M343.38,405.83a.83.83,0,0,0,0,.22.82.82,0,0,0,1,.6.84.84,0,0,0,.59-1,1.19,1.19,0,0,0-.08-.2l-1.54-2.73Z" transform="translate(-226.87 -371.07)"/><path class="cls-12" d="M341.81,405.4a.7.7,0,0,0-.08.2.83.83,0,1,0,1.62.23l0-3.13Z" transform="translate(-226.87 -371.07)"/><path class="cls-12" d="M340.67,404.25a1,1,0,0,0-.18.13.83.83,0,1,0,1.16,1.18.75.75,0,0,0,.14-.17l1.6-2.69Z" transform="translate(-226.87 -371.07)"/><path class="cls-12" d="M340.26,402.67a.83.83,0,1,0,.19,1.64.93.93,0,0,0,.2-.08l2.74-1.53Z" transform="translate(-226.87 -371.07)"/><path class="cls-12" d="M340.69,401.11a.72.72,0,0,0-.2-.09.83.83,0,0,0-1,.57.85.85,0,0,0,.58,1,.83.83,0,0,0,.22,0l3.13.05Z" transform="translate(-226.87 -371.07)"/><path class="cls-12" d="M341.85,400a1.09,1.09,0,0,0-.13-.17.83.83,0,0,0-1.18,0,.84.84,0,0,0,0,1.18l.17.14,2.69,1.61Z" transform="translate(-226.87 -371.07)"/><circle class="cls-12" cx="116.52" cy="31.63" r="0.39"/><path class="cls-14" d="M309.05,383.07a1.1,1.1,0,0,0,0-.31,1.19,1.19,0,1,0-2.31.61,1.26,1.26,0,0,0,.12.29l2.24,3.92Z" transform="translate(-226.87 -371.07)"/><path class="cls-14" d="M311.31,383.67a1.1,1.1,0,0,0,.12-.29,1.19,1.19,0,1,0-2.3-.62,1.1,1.1,0,0,0,0,.31l0,4.51Z" transform="translate(-226.87 -371.07)"/><path class="cls-14" d="M313,385.33a1.43,1.43,0,0,0,.24-.19,1.19,1.19,0,1,0-1.67-1.7,1.57,1.57,0,0,0-.2.25l-2.28,3.89Z" transform="translate(-226.87 -371.07)"/><path class="cls-14" d="M313.57,387.59a1.1,1.1,0,0,0,.31,0,1.19,1.19,0,1,0-.6-2.31,1.1,1.1,0,0,0-.29.12l-3.93,2.22Z" transform="translate(-226.87 -371.07)"/><path class="cls-14" d="M313,389.85a1.48,1.48,0,0,0,.29.12,1.2,1.2,0,0,0,1.48-.83,1.21,1.21,0,0,0-.85-1.47,1.1,1.1,0,0,0-.31,0l-4.51-.05Z" transform="translate(-226.87 -371.07)"/><path class="cls-14" d="M311.3,391.5a1.1,1.1,0,0,0,.19.25,1.2,1.2,0,1,0,1.7-1.68,1.5,1.5,0,0,0-.25-.19l-3.88-2.3Z" transform="translate(-226.87 -371.07)"/><path class="cls-14" d="M309,392.1a1.15,1.15,0,0,0,0,.31,1.19,1.19,0,1,0,2.3-.6.92.92,0,0,0-.11-.29l-2.21-3.94Z" transform="translate(-226.87 -371.07)"/><path class="cls-14" d="M306.78,391.48a1.26,1.26,0,0,0-.12.29,1.19,1.19,0,1,0,2.3.64,1.76,1.76,0,0,0,0-.31l.06-4.52Z" transform="translate(-226.87 -371.07)"/><path class="cls-14" d="M305.13,389.82a2,2,0,0,0-.25.18,1.21,1.21,0,0,0,0,1.7,1.2,1.2,0,0,0,1.69,0,1.57,1.57,0,0,0,.2-.25l2.31-3.88Z" transform="translate(-226.87 -371.07)"/><path class="cls-14" d="M304.54,387.55a1.15,1.15,0,0,0-.31,0,1.19,1.19,0,1,0,.59,2.31,1.34,1.34,0,0,0,.3-.12l3.94-2.2Z" transform="translate(-226.87 -371.07)"/><path class="cls-14" d="M305.17,385.29a1.48,1.48,0,0,0-.29-.12,1.2,1.2,0,1,0-.65,2.3,1.15,1.15,0,0,0,.31,0l4.52.07Z" transform="translate(-226.87 -371.07)"/><path class="cls-14" d="M306.84,383.65a2.07,2.07,0,0,0-.19-.25,1.2,1.2,0,1,0-1.71,1.67,1.1,1.1,0,0,0,.25.19l3.87,2.32Z" transform="translate(-226.87 -371.07)"/><path class="cls-14" d="M309.62,387.59a.57.57,0,1,1-.57-.57A.56.56,0,0,1,309.62,387.59Z" transform="translate(-226.87 -371.07)"/><path class="cls-14" d="M250.14,431a1.76,1.76,0,0,0,0-.31,1.2,1.2,0,1,0-2.31.62,1.48,1.48,0,0,0,.12.29l2.23,3.92Z" transform="translate(-226.87 -371.07)"/><path class="cls-14" d="M252.4,431.6a1.48,1.48,0,0,0,.12-.29,1.19,1.19,0,1,0-2.3-.63,1.18,1.18,0,0,0-.05.31l0,4.52Z" transform="translate(-226.87 -371.07)"/><path class="cls-14" d="M254.05,433.25a.92.92,0,0,0,.25-.19,1.19,1.19,0,1,0-1.68-1.69,1.5,1.5,0,0,0-.19.25l-2.29,3.89Z" transform="translate(-226.87 -371.07)"/><path class="cls-14" d="M254.66,435.51a1.15,1.15,0,0,0,.31,0,1.19,1.19,0,1,0-.61-2.3,1,1,0,0,0-.29.11l-3.93,2.23Z" transform="translate(-226.87 -371.07)"/><path class="cls-14" d="M254.05,437.77a.84.84,0,0,0,.29.12,1.19,1.19,0,1,0,.63-2.29,1.18,1.18,0,0,0-.31-.05l-4.52,0Z" transform="translate(-226.87 -371.07)"/><path class="cls-14" d="M252.39,439.42a.92.92,0,0,0,.19.25,1.19,1.19,0,1,0,1.69-1.67.88.88,0,0,0-.24-.19l-3.89-2.3Z" transform="translate(-226.87 -371.07)"/><path class="cls-14" d="M250.12,440a1.65,1.65,0,0,0,0,.31,1.19,1.19,0,1,0,2.31-.6,1.48,1.48,0,0,0-.12-.29l-2.21-3.93Z" transform="translate(-226.87 -371.07)"/><path class="cls-14" d="M247.87,439.4a1.08,1.08,0,0,0-.13.29,1.19,1.19,0,1,0,2.3.64,1.12,1.12,0,0,0,.05-.31l0-4.51Z" transform="translate(-226.87 -371.07)"/><path class="cls-14" d="M246.22,437.74a1.1,1.1,0,0,0-.25.19,1.19,1.19,0,1,0,1.67,1.7,1.06,1.06,0,0,0,.19-.24l2.31-3.88Z" transform="translate(-226.87 -371.07)"/><path class="cls-14" d="M245.63,435.48a1.09,1.09,0,0,0-.31,0,1.19,1.19,0,1,0,.59,2.31.92.92,0,0,0,.29-.11l3.94-2.2Z" transform="translate(-226.87 -371.07)"/><path class="cls-14" d="M246.25,433.22a1.18,1.18,0,0,0-.28-.12,1.19,1.19,0,1,0-.65,2.29,1.12,1.12,0,0,0,.31.05l4.51.07Z" transform="translate(-226.87 -371.07)"/><path class="cls-14" d="M247.92,431.58a1.1,1.1,0,0,0-.19-.25A1.19,1.19,0,1,0,246,433a1.16,1.16,0,0,0,.24.2l3.87,2.32Z" transform="translate(-226.87 -371.07)"/><path class="cls-14" d="M250.71,435.51a.57.57,0,1,1-.57-.57A.58.58,0,0,1,250.71,435.51Z" transform="translate(-226.87 -371.07)"/></svg>