<svg id="レイヤー_1" data-name="レイヤー 1" xmlns="http://www.w3.org/2000/svg" viewBox="0 0 91.12 28.4"><defs><style>.cls-1{fill:#f9dbe8;}.cls-2{fill:#fff;}</style></defs><path class="cls-1" d="M7.37,24.68a.72.72,0,0,1,0,.92.72.72,0,0,1-.92-.09,2.84,2.84,0,0,0,.5,3.26,2.67,2.67,0,0,0,3.7.6,2.68,2.68,0,0,0-.08-3.75A2.85,2.85,0,0,0,7.37,24.68Z" transform="translate(-2.34 -2.77)"/><path class="cls-1" d="M88.7,21.76A2,2,0,1,1,86,21.23,2,2,0,0,1,88.7,21.76Z" transform="translate(-2.34 -2.77)"/><path class="cls-1" d="M83.79,17.19a.68.68,0,0,1-.1.86.69.69,0,0,1-.84-.23,2.79,2.79,0,0,0,.2,3.12c.87,1.28,2.36,1.78,3.34,1.12s1.08-2.24.22-3.52A2.78,2.78,0,0,0,83.79,17.19Z" transform="translate(-2.34 -2.77)"/><path class="cls-1" d="M91.5,18.08a.57.57,0,1,1-.87-.71,2.78,2.78,0,0,0-2.92,1.12c-1,1.2-1,2.78-.08,3.52s2.45.37,3.42-.84A2.76,2.76,0,0,0,91.5,18.08Z" transform="translate(-2.34 -2.77)"/><path class="cls-1" d="M93.11,25.34c-.34-.17-.53-.48-.44-.74a.66.66,0,0,1,.79-.33,2.78,2.78,0,0,0-2.08-2.34c-1.47-.47-2.95.05-3.32,1.18s.53,2.42,2,2.9A2.76,2.76,0,0,0,93.11,25.34Z" transform="translate(-2.34 -2.77)"/><path class="cls-1" d="M86.67,29.41c0-.37.28-.66.56-.66s.51.27.57.64a2.79,2.79,0,0,0,1.54-2.72c0-1.54-1-2.78-2.19-2.76s-2.12,1.28-2.1,2.83A2.78,2.78,0,0,0,86.67,29.41Z" transform="translate(-2.34 -2.77)"/><path class="cls-1" d="M80.74,24.63a.69.69,0,0,1,.81.31.67.67,0,0,1-.43.75,2.78,2.78,0,0,0,3.07.58c1.46-.53,2.31-1.85,1.91-3s-1.9-1.59-3.36-1.07A2.78,2.78,0,0,0,80.74,24.63Z" transform="translate(-2.34 -2.77)"/><path class="cls-2" d="M86.09,21.4a.31.31,0,1,1-.44-.06A.31.31,0,0,1,86.09,21.4Z" transform="translate(-2.34 -2.77)"/><polygon class="cls-2" points="84.92 20.49 84.76 20.61 83.45 18.89 83.61 18.77 84.92 20.49"/><path class="cls-2" d="M87.71,21.23a.31.31,0,0,1-.62-.08.31.31,0,1,1,.62.08Z" transform="translate(-2.34 -2.77)"/><rect class="cls-2" x="86.18" y="22.2" width="2.16" height="0.2" transform="translate(51.2 103.03) rotate(-82.35)"/><path class="cls-2" d="M89,22.26a.31.31,0,0,1-.43-.06.31.31,0,0,1,.06-.44.31.31,0,0,1,.43.06A.31.31,0,0,1,89,22.26Z" transform="translate(-2.34 -2.77)"/><polygon class="cls-2" points="84.77 20.66 84.65 20.5 86.36 19.18 86.48 19.34 84.77 20.66"/><path class="cls-2" d="M89.14,23.88a.3.3,0,0,1-.26-.35.31.31,0,1,1,.61.08A.31.31,0,0,1,89.14,23.88Z" transform="translate(-2.34 -2.77)"/><rect class="cls-2" x="87.97" y="22.35" width="0.2" height="2.16" transform="translate(50.71 104.8) rotate(-82.3)"/><path class="cls-2" d="M88.11,25.14a.31.31,0,0,1,.06-.43.31.31,0,0,1,.44.06.31.31,0,0,1-.06.43A.31.31,0,0,1,88.11,25.14Z" transform="translate(-2.34 -2.77)"/><rect class="cls-2" x="87.58" y="22.99" width="0.2" height="2.16" transform="translate(0.98 55.22) rotate(-37.26)"/><path class="cls-2" d="M86.49,25.31a.31.31,0,0,1,.35-.26.31.31,0,0,1,.27.35.3.3,0,0,1-.35.26A.31.31,0,0,1,86.49,25.31Z" transform="translate(-2.34 -2.77)"/><rect class="cls-2" x="85.86" y="24.15" width="2.16" height="0.2" transform="translate(49 104.41) rotate(-82.35)"/><path class="cls-2" d="M85.23,24.29a.3.3,0,0,1,.43.05.31.31,0,1,1-.49.38A.3.3,0,0,1,85.23,24.29Z" transform="translate(-2.34 -2.77)"/><rect class="cls-2" x="85.22" y="23.75" width="2.16" height="0.2" transform="translate(0.89 54.48) rotate(-37.36)"/><path class="cls-2" d="M85.06,22.66a.31.31,0,0,1-.08.62.31.31,0,1,1,.08-.62Z" transform="translate(-2.34 -2.77)"/><rect class="cls-2" x="86.02" y="22.03" width="0.2" height="2.16" transform="translate(49.32 102.58) rotate(-82.28)"/><path class="cls-2" d="M87.6,23a.59.59,0,0,1-.16.82.58.58,0,0,1-.65-1A.59.59,0,0,1,87.6,23Z" transform="translate(-2.34 -2.77)"/><path class="cls-1" d="M10.3,7.41A2,2,0,1,1,7,9.6,2,2,0,0,1,10.3,7.41Z" transform="translate(-2.34 -2.77)"/><path class="cls-1" d="M5.38,2.83a.67.67,0,0,1-.1.86.66.66,0,0,1-.83-.23,2.79,2.79,0,0,0,.2,3.12C5.51,7.86,7,8.36,8,7.7s1.08-2.23.21-3.51A2.78,2.78,0,0,0,5.38,2.83Z" transform="translate(-2.34 -2.77)"/><path class="cls-1" d="M13.1,3.72a.68.68,0,0,1-.85.16.68.68,0,0,1,0-.86A2.78,2.78,0,0,0,9.3,4.13c-1,1.2-1,2.78-.08,3.52s2.46.37,3.43-.84A2.78,2.78,0,0,0,13.1,3.72Z" transform="translate(-2.34 -2.77)"/><path class="cls-1" d="M14.71,11a.68.68,0,0,1-.45-.74.68.68,0,0,1,.8-.33A2.78,2.78,0,0,0,13,7.57c-1.47-.47-3,0-3.32,1.18s.53,2.42,2,2.9A2.77,2.77,0,0,0,14.71,11Z" transform="translate(-2.34 -2.77)"/><path class="cls-1" d="M8.27,15.05c.05-.37.28-.66.55-.66s.52.27.58.64a2.77,2.77,0,0,0,1.53-2.72c0-1.54-1-2.78-2.18-2.76s-2.13,1.28-2.1,2.83A2.77,2.77,0,0,0,8.27,15.05Z" transform="translate(-2.34 -2.77)"/><path class="cls-1" d="M2.34,10.28a.66.66,0,0,1,.8.3c.1.27-.09.58-.42.76a2.8,2.8,0,0,0,3.07.57c1.46-.52,2.31-1.85,1.91-3S5.79,7.35,4.34,7.87A2.78,2.78,0,0,0,2.34,10.28Z" transform="translate(-2.34 -2.77)"/><path class="cls-2" d="M7.68,7a.31.31,0,0,1-.06.44.31.31,0,0,1-.43-.06A.31.31,0,0,1,7.25,7,.31.31,0,0,1,7.68,7Z" transform="translate(-2.34 -2.77)"/><polygon class="cls-2" points="6.52 6.13 6.36 6.25 5.05 4.54 5.21 4.42 6.52 6.13"/><path class="cls-2" d="M9.31,6.87A.32.32,0,0,1,9,7.14.31.31,0,1,1,9,6.52.32.32,0,0,1,9.31,6.87Z" transform="translate(-2.34 -2.77)"/><rect class="cls-2" x="7.78" y="7.84" width="2.16" height="0.2" transform="translate(-2.53 12.89) rotate(-82.35)"/><path class="cls-2" d="M10.57,7.9a.3.3,0,0,1-.43-.06.32.32,0,0,1,0-.44.33.33,0,0,1,.44.06A.32.32,0,0,1,10.57,7.9Z" transform="translate(-2.34 -2.77)"/><polygon class="cls-2" points="6.37 6.3 6.24 6.14 7.96 4.83 8.08 4.99 6.37 6.3"/><path class="cls-2" d="M10.74,9.52a.31.31,0,0,1-.27-.35.31.31,0,1,1,.62.08A.31.31,0,0,1,10.74,9.52Z" transform="translate(-2.34 -2.77)"/><rect class="cls-2" x="9.57" y="7.99" width="0.2" height="2.16" transform="translate(-2.95 14.67) rotate(-82.3)"/><path class="cls-2" d="M9.71,10.79a.31.31,0,1,1,.5-.38.31.31,0,1,1-.5.38Z" transform="translate(-2.34 -2.77)"/><rect class="cls-2" x="9.17" y="8.64" width="0.2" height="2.16" transform="translate(-6.33 4.82) rotate(-37.26)"/><path class="cls-2" d="M8.09,11a.3.3,0,0,1,.35-.26.31.31,0,0,1,.27.35.32.32,0,0,1-.35.27A.33.33,0,0,1,8.09,11Z" transform="translate(-2.34 -2.77)"/><rect class="cls-2" x="7.46" y="9.79" width="2.16" height="0.2" transform="translate(-4.74 14.26) rotate(-82.35)"/><path class="cls-2" d="M6.82,9.93a.31.31,0,1,1,.38.49.3.3,0,0,1-.43-.06A.3.3,0,0,1,6.82,9.93Z" transform="translate(-2.34 -2.77)"/><rect class="cls-2" x="6.82" y="9.39" width="2.16" height="0.2" transform="translate(-6.48 3.96) rotate(-37.36)"/><path class="cls-2" d="M6.66,8.31a.31.31,0,1,1-.35.26A.3.3,0,0,1,6.66,8.31Z" transform="translate(-2.34 -2.77)"/><rect class="cls-2" x="7.62" y="7.67" width="0.2" height="2.16" transform="translate(-4.33 12.45) rotate(-82.28)"/><path class="cls-2" d="M9.2,8.6a.59.59,0,0,1-1,.65.58.58,0,0,1,.16-.81A.59.59,0,0,1,9.2,8.6Z" transform="translate(-2.34 -2.77)"/><path class="cls-1" d="M24.16,21.53A2,2,0,1,1,21.43,21,2,2,0,0,1,24.16,21.53Z" transform="translate(-2.34 -2.77)"/><path class="cls-1" d="M19.24,17a.66.66,0,0,1-.1.85.67.67,0,0,1-.83-.22,2.77,2.77,0,0,0,.2,3.11c.86,1.28,2.36,1.79,3.34,1.12s1.08-2.23.21-3.51A2.76,2.76,0,0,0,19.24,17Z" transform="translate(-2.34 -2.77)"/><path class="cls-1" d="M27,17.84a.57.57,0,1,1-.88-.7,2.78,2.78,0,0,0-2.92,1.11c-1,1.21-1,2.78-.08,3.52s2.46.37,3.43-.83A2.8,2.8,0,0,0,27,17.84Z" transform="translate(-2.34 -2.77)"/><path class="cls-1" d="M28.57,25.1a.67.67,0,0,1-.45-.74.69.69,0,0,1,.8-.33,2.76,2.76,0,0,0-2.08-2.33c-1.47-.48-3,.05-3.32,1.17s.53,2.43,2,2.9A2.77,2.77,0,0,0,28.57,25.1Z" transform="translate(-2.34 -2.77)"/><path class="cls-1" d="M22.13,29.17c.05-.37.28-.65.55-.66s.52.27.58.65a2.79,2.79,0,0,0,1.53-2.72c0-1.55-1-2.79-2.18-2.77S20.48,25,20.51,26.5A2.76,2.76,0,0,0,22.13,29.17Z" transform="translate(-2.34 -2.77)"/><path class="cls-1" d="M16.2,24.4a.65.65,0,0,1,.8.31c.1.26-.09.57-.42.75a2.78,2.78,0,0,0,3.07.57c1.46-.52,2.31-1.85,1.91-3S19.65,21.47,18.2,22A2.76,2.76,0,0,0,16.2,24.4Z" transform="translate(-2.34 -2.77)"/><path class="cls-2" d="M21.54,21.16a.31.31,0,0,1-.06.44.31.31,0,0,1-.43-.06.31.31,0,0,1,.06-.44A.31.31,0,0,1,21.54,21.16Z" transform="translate(-2.34 -2.77)"/><polygon class="cls-2" points="20.38 20.25 20.22 20.38 18.91 18.66 19.07 18.54 20.38 20.25"/><path class="cls-2" d="M23.17,21a.32.32,0,0,1-.35.27.31.31,0,0,1,.08-.62A.32.32,0,0,1,23.17,21Z" transform="translate(-2.34 -2.77)"/><rect class="cls-2" x="21.64" y="21.96" width="2.16" height="0.2" transform="translate(-4.51 38.86) rotate(-82.35)"/><path class="cls-2" d="M24.43,22A.3.3,0,0,1,24,22a.3.3,0,0,1,.05-.43.31.31,0,1,1,.38.49Z" transform="translate(-2.34 -2.77)"/><polygon class="cls-2" points="20.23 20.42 20.1 20.26 21.82 18.95 21.94 19.11 20.23 20.42"/><path class="cls-2" d="M24.6,23.64a.31.31,0,0,1-.27-.35.31.31,0,0,1,.35-.26.31.31,0,0,1,.27.35A.3.3,0,0,1,24.6,23.64Z" transform="translate(-2.34 -2.77)"/><rect class="cls-2" x="23.43" y="22.12" width="0.2" height="2.16" transform="translate(-4.95 40.63) rotate(-82.3)"/><path class="cls-2" d="M23.57,24.91a.31.31,0,1,1,.5-.38.31.31,0,0,1-.5.38Z" transform="translate(-2.34 -2.77)"/><rect class="cls-2" x="23.03" y="22.76" width="0.2" height="2.16" transform="translate(-12.05 16.1) rotate(-37.26)"/><path class="cls-2" d="M22,25.08a.31.31,0,0,1,.62.08.31.31,0,1,1-.62-.08Z" transform="translate(-2.34 -2.77)"/><rect class="cls-2" x="21.32" y="23.91" width="2.16" height="0.2" transform="translate(-6.72 40.24) rotate(-82.35)"/><path class="cls-2" d="M20.68,24.05a.32.32,0,0,1,.44.06.31.31,0,0,1-.49.38A.31.31,0,0,1,20.68,24.05Z" transform="translate(-2.34 -2.77)"/><rect class="cls-2" x="20.68" y="23.51" width="2.16" height="0.2" transform="translate(-12.2 15.27) rotate(-37.36)"/><path class="cls-2" d="M20.52,22.43a.31.31,0,1,1-.35.26A.3.3,0,0,1,20.52,22.43Z" transform="translate(-2.34 -2.77)"/><rect class="cls-2" x="21.48" y="21.79" width="0.2" height="2.16" transform="translate(-6.32 38.41) rotate(-82.28)"/><path class="cls-2" d="M23.06,22.72a.59.59,0,0,1-1,.65.58.58,0,0,1,.16-.81A.59.59,0,0,1,23.06,22.72Z" transform="translate(-2.34 -2.77)"/><path class="cls-1" d="M43.16,11.53A2,2,0,1,1,40.43,11,2,2,0,0,1,43.16,11.53Z" transform="translate(-2.34 -2.77)"/><path class="cls-1" d="M38.24,7a.66.66,0,0,1-.1.85.67.67,0,0,1-.83-.22,2.77,2.77,0,0,0,.2,3.11c.86,1.28,2.36,1.79,3.34,1.12s1.08-2.23.21-3.51A2.76,2.76,0,0,0,38.24,7Z" transform="translate(-2.34 -2.77)"/><path class="cls-1" d="M46,7.84a.68.68,0,0,1-.85.16.68.68,0,0,1,0-.86,2.78,2.78,0,0,0-2.92,1.11c-1,1.21-1,2.78-.08,3.52s2.46.37,3.43-.83A2.8,2.8,0,0,0,46,7.84Z" transform="translate(-2.34 -2.77)"/><path class="cls-1" d="M47.57,15.1a.67.67,0,0,1-.45-.74.69.69,0,0,1,.8-.33,2.76,2.76,0,0,0-2.08-2.33c-1.47-.48-3,.05-3.32,1.17s.53,2.43,2,2.9A2.77,2.77,0,0,0,47.57,15.1Z" transform="translate(-2.34 -2.77)"/><path class="cls-1" d="M41.13,19.17c0-.37.28-.65.55-.66s.52.27.58.65a2.79,2.79,0,0,0,1.53-2.72c0-1.55-1-2.79-2.18-2.77S39.48,15,39.51,16.5A2.76,2.76,0,0,0,41.13,19.17Z" transform="translate(-2.34 -2.77)"/><path class="cls-1" d="M35.2,14.4a.65.65,0,0,1,.8.31c.1.26-.09.57-.42.75a2.78,2.78,0,0,0,3.07.57c1.46-.52,2.31-1.85,1.91-3S38.65,11.47,37.2,12A2.76,2.76,0,0,0,35.2,14.4Z" transform="translate(-2.34 -2.77)"/><path class="cls-2" d="M40.54,11.16a.31.31,0,0,1-.06.44.31.31,0,0,1-.43-.06.31.31,0,0,1,.06-.44A.31.31,0,0,1,40.54,11.16Z" transform="translate(-2.34 -2.77)"/><polygon class="cls-2" points="39.38 10.25 39.22 10.38 37.91 8.66 38.07 8.54 39.38 10.25"/><path class="cls-2" d="M42.17,11a.32.32,0,0,1-.35.27.31.31,0,0,1,.08-.62A.32.32,0,0,1,42.17,11Z" transform="translate(-2.34 -2.77)"/><rect class="cls-2" x="40.64" y="11.96" width="2.16" height="0.2" transform="translate(21.87 49.03) rotate(-82.35)"/><path class="cls-2" d="M43.43,12A.3.3,0,0,1,43,12a.3.3,0,0,1,0-.43.31.31,0,1,1,.38.49Z" transform="translate(-2.34 -2.77)"/><polygon class="cls-2" points="39.23 10.42 39.1 10.26 40.82 8.95 40.94 9.11 39.23 10.42"/><path class="cls-2" d="M43.6,13.64a.31.31,0,0,1-.27-.35.31.31,0,0,1,.35-.26.31.31,0,0,1,.27.35A.3.3,0,0,1,43.6,13.64Z" transform="translate(-2.34 -2.77)"/><rect class="cls-2" x="42.43" y="12.12" width="0.2" height="2.16" transform="translate(21.42 50.8) rotate(-82.3)"/><path class="cls-2" d="M42.57,14.91a.31.31,0,0,1,.5-.38.31.31,0,0,1-.5.38Z" transform="translate(-2.34 -2.77)"/><rect class="cls-2" x="42.03" y="12.76" width="0.2" height="2.16" transform="translate(-2.12 25.56) rotate(-37.26)"/><path class="cls-2" d="M41,15.08a.31.31,0,0,1,.62.08.31.31,0,1,1-.62-.08Z" transform="translate(-2.34 -2.77)"/><rect class="cls-2" x="40.32" y="13.91" width="2.16" height="0.2" transform="translate(19.66 50.4) rotate(-82.35)"/><path class="cls-2" d="M39.68,14.05a.32.32,0,0,1,.44.06.31.31,0,0,1-.49.38A.31.31,0,0,1,39.68,14.05Z" transform="translate(-2.34 -2.77)"/><rect class="cls-2" x="39.68" y="13.51" width="2.16" height="0.2" transform="translate(-2.24 24.75) rotate(-37.36)"/><path class="cls-2" d="M39.52,12.43a.31.31,0,1,1-.35.26A.3.3,0,0,1,39.52,12.43Z" transform="translate(-2.34 -2.77)"/><rect class="cls-2" x="40.48" y="11.79" width="0.2" height="2.16" transform="translate(20.04 48.58) rotate(-82.28)"/><path class="cls-2" d="M42.06,12.72a.59.59,0,0,1-1,.65.58.58,0,0,1,.16-.81A.59.59,0,0,1,42.06,12.72Z" transform="translate(-2.34 -2.77)"/><path class="cls-1" d="M62.16,23.53A2,2,0,1,1,59.43,23,2,2,0,0,1,62.16,23.53Z" transform="translate(-2.34 -2.77)"/><path class="cls-1" d="M57.24,19a.66.66,0,0,1-.1.85.67.67,0,0,1-.83-.22,2.77,2.77,0,0,0,.2,3.11c.86,1.28,2.36,1.79,3.34,1.12s1.08-2.23.21-3.51A2.76,2.76,0,0,0,57.24,19Z" transform="translate(-2.34 -2.77)"/><path class="cls-1" d="M65,19.84a.57.57,0,1,1-.88-.7,2.78,2.78,0,0,0-2.92,1.11c-1,1.21-1,2.78-.08,3.52s2.46.37,3.43-.83A2.8,2.8,0,0,0,65,19.84Z" transform="translate(-2.34 -2.77)"/><path class="cls-1" d="M66.57,27.1a.67.67,0,0,1-.45-.74.69.69,0,0,1,.8-.33,2.76,2.76,0,0,0-2.08-2.33c-1.47-.48-3,.05-3.32,1.17s.53,2.43,2,2.9A2.77,2.77,0,0,0,66.57,27.1Z" transform="translate(-2.34 -2.77)"/><path class="cls-1" d="M60.13,31.17c0-.37.28-.65.55-.66s.52.27.58.65a2.79,2.79,0,0,0,1.53-2.72c0-1.55-1-2.79-2.18-2.77S58.48,27,58.51,28.5A2.76,2.76,0,0,0,60.13,31.17Z" transform="translate(-2.34 -2.77)"/><path class="cls-1" d="M54.2,26.4a.65.65,0,0,1,.8.31c.1.26-.09.57-.42.75a2.78,2.78,0,0,0,3.07.57c1.46-.52,2.31-1.85,1.91-3S57.65,23.47,56.2,24A2.76,2.76,0,0,0,54.2,26.4Z" transform="translate(-2.34 -2.77)"/><path class="cls-2" d="M59.54,23.16a.31.31,0,0,1-.06.44.31.31,0,0,1-.43-.06.31.31,0,0,1,.06-.44A.31.31,0,0,1,59.54,23.16Z" transform="translate(-2.34 -2.77)"/><polygon class="cls-2" points="58.38 22.25 58.22 22.38 56.91 20.66 57.07 20.54 58.38 22.25"/><path class="cls-2" d="M61.17,23a.32.32,0,0,1-.35.27.31.31,0,0,1,.08-.62A.32.32,0,0,1,61.17,23Z" transform="translate(-2.34 -2.77)"/><rect class="cls-2" x="59.64" y="23.96" width="2.16" height="0.2" transform="translate(26.45 78.26) rotate(-82.35)"/><path class="cls-2" d="M62.43,24A.3.3,0,0,1,62,24a.3.3,0,0,1,0-.43.31.31,0,1,1,.38.49Z" transform="translate(-2.34 -2.77)"/><polygon class="cls-2" points="58.23 22.42 58.1 22.26 59.82 20.95 59.94 21.11 58.23 22.42"/><path class="cls-2" d="M62.6,25.64a.31.31,0,0,1-.27-.35.31.31,0,0,1,.35-.26.31.31,0,0,1,.27.35A.3.3,0,0,1,62.6,25.64Z" transform="translate(-2.34 -2.77)"/><rect class="cls-2" x="61.43" y="24.12" width="0.2" height="2.16" transform="matrix(0.13, -0.99, 0.99, 0.13, 25.98, 80.02)"/><path class="cls-2" d="M61.57,26.91a.31.31,0,1,1,.5-.38.31.31,0,1,1-.5.38Z" transform="translate(-2.34 -2.77)"/><rect class="cls-2" x="61.03" y="24.76" width="0.2" height="2.16" transform="translate(-5.5 39.51) rotate(-37.26)"/><path class="cls-2" d="M60,27.08a.31.31,0,0,1,.62.08.31.31,0,1,1-.62-.08Z" transform="translate(-2.34 -2.77)"/><rect class="cls-2" x="59.32" y="25.91" width="2.16" height="0.2" transform="translate(24.24 79.63) rotate(-82.35)"/><path class="cls-2" d="M58.68,26.05a.32.32,0,0,1,.44.06.31.31,0,0,1-.49.38A.31.31,0,0,1,58.68,26.05Z" transform="translate(-2.34 -2.77)"/><rect class="cls-2" x="58.68" y="25.51" width="2.16" height="0.2" transform="translate(-5.62 38.74) rotate(-37.36)"/><path class="cls-2" d="M58.52,24.43a.31.31,0,1,1-.35.26A.3.3,0,0,1,58.52,24.43Z" transform="translate(-2.34 -2.77)"/><rect class="cls-2" x="59.48" y="23.79" width="0.2" height="2.16" transform="translate(24.59 77.8) rotate(-82.28)"/><path class="cls-2" d="M61.06,24.72a.59.59,0,0,1-1,.65.58.58,0,0,1,.16-.81A.59.59,0,0,1,61.06,24.72Z" transform="translate(-2.34 -2.77)"/><path class="cls-1" d="M70.16,12.53A2,2,0,1,1,67.43,12,2,2,0,0,1,70.16,12.53Z" transform="translate(-2.34 -2.77)"/><path class="cls-1" d="M65.24,8a.66.66,0,0,1-.1.85.67.67,0,0,1-.83-.22,2.77,2.77,0,0,0,.2,3.11c.86,1.28,2.36,1.79,3.34,1.12s1.08-2.23.21-3.51A2.76,2.76,0,0,0,65.24,8Z" transform="translate(-2.34 -2.77)"/><path class="cls-1" d="M73,8.84a.68.68,0,0,1-.85.16.68.68,0,0,1,0-.86,2.78,2.78,0,0,0-2.92,1.11c-1,1.21-1,2.78-.08,3.52s2.46.37,3.43-.83A2.8,2.8,0,0,0,73,8.84Z" transform="translate(-2.34 -2.77)"/><path class="cls-1" d="M74.57,16.1a.67.67,0,0,1-.45-.74.69.69,0,0,1,.8-.33,2.76,2.76,0,0,0-2.08-2.33c-1.47-.48-3,.05-3.32,1.17s.53,2.43,2,2.9A2.77,2.77,0,0,0,74.57,16.1Z" transform="translate(-2.34 -2.77)"/><path class="cls-1" d="M68.13,20.17c.05-.37.28-.65.55-.66s.52.27.58.65a2.79,2.79,0,0,0,1.53-2.72c0-1.55-1-2.79-2.18-2.77S66.48,16,66.51,17.5A2.76,2.76,0,0,0,68.13,20.17Z" transform="translate(-2.34 -2.77)"/><path class="cls-1" d="M62.2,15.4a.65.65,0,0,1,.8.31c.1.26-.09.57-.42.75a2.78,2.78,0,0,0,3.07.57c1.46-.52,2.31-1.85,1.91-3S65.65,12.47,64.2,13A2.76,2.76,0,0,0,62.2,15.4Z" transform="translate(-2.34 -2.77)"/><path class="cls-2" d="M67.54,12.16a.31.31,0,0,1-.06.44.31.31,0,0,1-.43-.06.31.31,0,0,1,.06-.44A.31.31,0,0,1,67.54,12.16Z" transform="translate(-2.34 -2.77)"/><polygon class="cls-2" points="66.38 11.25 66.22 11.38 64.91 9.66 65.07 9.54 66.38 11.25"/><path class="cls-2" d="M69.17,12a.32.32,0,0,1-.35.27.31.31,0,0,1,.08-.62A.32.32,0,0,1,69.17,12Z" transform="translate(-2.34 -2.77)"/><rect class="cls-2" x="67.64" y="12.96" width="2.16" height="0.2" transform="translate(44.28 76.65) rotate(-82.35)"/><path class="cls-2" d="M70.43,13A.3.3,0,0,1,70,13a.3.3,0,0,1,0-.43.31.31,0,1,1,.38.49Z" transform="translate(-2.34 -2.77)"/><polygon class="cls-2" points="66.23 11.42 66.1 11.26 67.82 9.95 67.94 10.11 66.23 11.42"/><path class="cls-2" d="M70.6,14.64a.31.31,0,0,1-.27-.35.31.31,0,0,1,.35-.26.31.31,0,0,1,.27.35A.3.3,0,0,1,70.6,14.64Z" transform="translate(-2.34 -2.77)"/><rect class="cls-2" x="69.43" y="13.12" width="0.2" height="2.16" transform="matrix(0.13, -0.99, 0.99, 0.13, 43.81, 78.42)"/><path class="cls-2" d="M69.57,15.91a.31.31,0,1,1,.5-.38.31.31,0,0,1-.5.38Z" transform="translate(-2.34 -2.77)"/><rect class="cls-2" x="69.03" y="13.76" width="0.2" height="2.16" transform="translate(2.79 42.11) rotate(-37.26)"/><path class="cls-2" d="M68,16.08a.31.31,0,0,1,.62.08.31.31,0,0,1-.62-.08Z" transform="translate(-2.34 -2.77)"/><rect class="cls-2" x="67.32" y="14.91" width="2.16" height="0.2" transform="translate(42.08 78.03) rotate(-82.35)"/><path class="cls-2" d="M66.68,15.05a.32.32,0,0,1,.44.06.31.31,0,0,1-.49.38A.31.31,0,0,1,66.68,15.05Z" transform="translate(-2.34 -2.77)"/><rect class="cls-2" x="66.68" y="14.51" width="2.16" height="0.2" transform="translate(2.7 41.34) rotate(-37.36)"/><path class="cls-2" d="M66.52,13.43a.31.31,0,1,1-.35.26A.3.3,0,0,1,66.52,13.43Z" transform="translate(-2.34 -2.77)"/><rect class="cls-2" x="67.48" y="12.79" width="0.2" height="2.16" transform="translate(42.42 76.21) rotate(-82.28)"/><path class="cls-2" d="M69.06,13.72a.59.59,0,0,1-1,.65.58.58,0,0,1,.16-.81A.59.59,0,0,1,69.06,13.72Z" transform="translate(-2.34 -2.77)"/><path class="cls-1" d="M39.8,28.35a.77.77,0,0,1-.91-.39c-.1-.3.13-.65.53-.83a3.21,3.21,0,0,0-3.5-.79c-1.7.52-2.76,2-2.36,3.28s2.1,1.89,3.8,1.37A3.23,3.23,0,0,0,39.8,28.35Z" transform="translate(-2.34 -2.77)"/><path class="cls-1" d="M24.39,12.73c.37-.16.74-.12.87.11s0,.57-.32.82a3,3,0,0,0,3.25-.17c1.42-.85,2.1-2.32,1.52-3.3S27.51,9.1,26.09,10A3,3,0,0,0,24.39,12.73Z" transform="translate(-2.34 -2.77)"/><path class="cls-1" d="M52.58,3.8c.28.29.37.65.2.86a.72.72,0,0,1-.89,0,3,3,0,0,0,1.25,3c1.27,1,2.89,1.2,3.61.32s.29-2.44-1-3.49A3,3,0,0,0,52.58,3.8Z" transform="translate(-2.34 -2.77)"/><path class="cls-1" d="M87,4.5c-.33.23-.7.27-.88.07S86,4,86.29,3.7a3,3,0,0,0-3.15.84c-1.21,1.11-1.57,2.69-.8,3.53s2.37.61,3.59-.5A3,3,0,0,0,87,4.5Z" transform="translate(-2.34 -2.77)"/><path class="cls-1" d="M72.93,24a.7.7,0,0,1,0,.92.71.71,0,0,1-.92-.09,2.87,2.87,0,0,0,.5,3.26,2.69,2.69,0,0,0,3.71.6A2.67,2.67,0,0,0,76.1,25,2.85,2.85,0,0,0,72.93,24Z" transform="translate(-2.34 -2.77)"/></svg>