<svg viewBox="0 0 91.12 28.4" xmlns="http://www.w3.org/2000/svg"><path d="m7.37 24.68a.72.72 0 0 1 0 .92.72.72 0 0 1 -.92-.09 2.84 2.84 0 0 0 .5 3.26 2.67 2.67 0 0 0 3.7.6 2.68 2.68 0 0 0 -.08-3.75 2.85 2.85 0 0 0 -3.2-.94z" fill="#f9dbe8" transform="translate(-2.34 -2.77)"/><path d="m88.7 21.76a2 2 0 1 1 -2.7-.53 2 2 0 0 1 2.7.53z" fill="#f9dbe8" transform="translate(-2.34 -2.77)"/><path d="m83.79 17.19a.68.68 0 0 1 -.1.86.69.69 0 0 1 -.84-.23 2.79 2.79 0 0 0 .2 3.12c.87 1.28 2.36 1.78 3.34 1.12s1.08-2.24.22-3.52a2.78 2.78 0 0 0 -2.82-1.35z" fill="#f9dbe8" transform="translate(-2.34 -2.77)"/><path d="m91.5 18.08a.57.57 0 1 1 -.87-.71 2.78 2.78 0 0 0 -2.92 1.12c-1 1.2-1 2.78-.08 3.52s2.45.37 3.42-.84a2.76 2.76 0 0 0 .45-3.09z" fill="#f9dbe8" transform="translate(-2.34 -2.77)"/><path d="m93.11 25.34c-.34-.17-.53-.48-.44-.74a.66.66 0 0 1 .79-.33 2.78 2.78 0 0 0 -2.08-2.34c-1.47-.47-2.95.05-3.32 1.18s.53 2.42 2 2.9a2.76 2.76 0 0 0 3.05-.67z" fill="#f9dbe8" transform="translate(-2.34 -2.77)"/><path d="m86.67 29.41c0-.37.28-.66.56-.66s.51.27.57.64a2.79 2.79 0 0 0 1.54-2.72c0-1.54-1-2.78-2.19-2.76s-2.12 1.28-2.1 2.83a2.78 2.78 0 0 0 1.62 2.67z" fill="#f9dbe8" transform="translate(-2.34 -2.77)"/><path d="m80.74 24.63a.69.69 0 0 1 .81.31.67.67 0 0 1 -.43.75 2.78 2.78 0 0 0 3.07.58c1.46-.53 2.31-1.85 1.91-3s-1.9-1.59-3.36-1.07a2.78 2.78 0 0 0 -2 2.43z" fill="#f9dbe8" transform="translate(-2.34 -2.77)"/><g fill="#fff"><path d="m86.09 21.4a.31.31 0 1 1 -.44-.06.31.31 0 0 1 .44.06z" transform="translate(-2.34 -2.77)"/><path d="m84.92 20.49-.16.12-1.31-1.72.16-.12z"/><path d="m87.71 21.23a.31.31 0 0 1 -.62-.08.31.31 0 1 1 .62.08z" transform="translate(-2.34 -2.77)"/><path d="m86.18 22.2h2.16v.2h-2.16z" transform="matrix(.13312134 -.99109975 .99109975 .13312134 51.2 103.03)"/><path d="m89 22.26a.31.31 0 0 1 -.43-.06.31.31 0 0 1 .06-.44.31.31 0 0 1 .43.06.31.31 0 0 1 -.06.44z" transform="translate(-2.34 -2.77)"/><path d="m84.77 20.66-.12-.16 1.71-1.32.12.16z"/><path d="m89.14 23.88a.3.3 0 0 1 -.26-.35.31.31 0 1 1 .61.08.31.31 0 0 1 -.35.27z" transform="translate(-2.34 -2.77)"/><path d="m87.97 22.35h.2v2.16h-.2z" transform="matrix(.13398619 -.9909832 .9909832 .13398619 50.71 104.8)"/><path d="m88.11 25.14a.31.31 0 0 1 .06-.43.31.31 0 0 1 .44.06.31.31 0 0 1 -.06.43.31.31 0 0 1 -.44-.06z" transform="translate(-2.34 -2.77)"/><path d="m87.58 22.99h.2v2.16h-.2z" transform="matrix(.79589635 -.60543291 .60543291 .79589635 .98 55.22)"/><path d="m86.49 25.31a.31.31 0 0 1 .35-.26.31.31 0 0 1 .27.35.3.3 0 0 1 -.35.26.31.31 0 0 1 -.27-.35z" transform="translate(-2.34 -2.77)"/><path d="m85.86 24.15h2.16v.2h-2.16z" transform="matrix(.13312134 -.99109975 .99109975 .13312134 49 104.41)"/><path d="m85.23 24.29a.3.3 0 0 1 .43.05.31.31 0 1 1 -.49.38.3.3 0 0 1 .06-.43z" transform="translate(-2.34 -2.77)"/><path d="m85.22 23.75h2.16v.2h-2.16z" transform="matrix(.79483846 -.60682109 .60682109 .79483846 .89 54.48)"/><path d="m85.06 22.66a.31.31 0 0 1 -.08.62.31.31 0 1 1 .08-.62z" transform="translate(-2.34 -2.77)"/><path d="m86.02 22.03h.2v2.16h-.2z" transform="matrix(.1343321 -.99093637 .99093637 .1343321 49.32 102.58)"/><path d="m87.6 23a.59.59 0 0 1 -.16.82.58.58 0 0 1 -.65-1 .59.59 0 0 1 .81.18z" transform="translate(-2.34 -2.77)"/></g><path d="m10.3 7.41a2 2 0 1 1 -3.3 2.19 2 2 0 0 1 3.3-2.19z" fill="#f9dbe8" transform="translate(-2.34 -2.77)"/><path d="m5.38 2.83a.67.67 0 0 1 -.1.86.66.66 0 0 1 -.83-.23 2.79 2.79 0 0 0 .2 3.12c.86 1.28 2.35 1.78 3.35 1.12s1.08-2.23.21-3.51a2.78 2.78 0 0 0 -2.83-1.36z" fill="#f9dbe8" transform="translate(-2.34 -2.77)"/><path d="m13.1 3.72a.68.68 0 0 1 -.85.16.68.68 0 0 1 0-.86 2.78 2.78 0 0 0 -2.95 1.11c-1 1.2-1 2.78-.08 3.52s2.46.37 3.43-.84a2.78 2.78 0 0 0 .45-3.09z" fill="#f9dbe8" transform="translate(-2.34 -2.77)"/><path d="m14.71 11a.68.68 0 0 1 -.45-.74.68.68 0 0 1 .8-.33 2.78 2.78 0 0 0 -2.06-2.36c-1.47-.47-3 0-3.32 1.18s.53 2.42 2 2.9a2.77 2.77 0 0 0 3.03-.65z" fill="#f9dbe8" transform="translate(-2.34 -2.77)"/><path d="m8.27 15.05c.05-.37.28-.66.55-.66s.52.27.58.64a2.77 2.77 0 0 0 1.53-2.72c0-1.54-1-2.78-2.18-2.76s-2.13 1.28-2.1 2.83a2.77 2.77 0 0 0 1.62 2.67z" fill="#f9dbe8" transform="translate(-2.34 -2.77)"/><path d="m2.34 10.28a.66.66 0 0 1 .8.3c.1.27-.09.58-.42.76a2.8 2.8 0 0 0 3.07.57c1.46-.52 2.31-1.85 1.91-3s-1.91-1.56-3.36-1.04a2.78 2.78 0 0 0 -2 2.41z" fill="#f9dbe8" transform="translate(-2.34 -2.77)"/><path d="m7.68 7a.31.31 0 0 1 -.06.44.31.31 0 0 1 -.43-.06.31.31 0 0 1 .06-.38.31.31 0 0 1 .43 0z" fill="#fff" transform="translate(-2.34 -2.77)"/><path d="m6.52 6.13-.16.12-1.31-1.71.16-.12z" fill="#fff"/><path d="m9.31 6.87a.32.32 0 0 1 -.31.27.31.31 0 1 1 0-.62.32.32 0 0 1 .31.35z" fill="#fff" transform="translate(-2.34 -2.77)"/><path d="m7.78 7.84h2.16v.2h-2.16z" fill="#fff" transform="matrix(.13312134 -.99109975 .99109975 .13312134 -2.53 12.89)"/><path d="m10.57 7.9a.3.3 0 0 1 -.43-.06.32.32 0 0 1 0-.44.33.33 0 0 1 .44.06.32.32 0 0 1 -.01.44z" fill="#fff" transform="translate(-2.34 -2.77)"/><path d="m6.37 6.3-.13-.16 1.72-1.31.12.16z" fill="#fff"/><path d="m10.74 9.52a.31.31 0 0 1 -.27-.35.31.31 0 1 1 .62.08.31.31 0 0 1 -.35.27z" fill="#fff" transform="translate(-2.34 -2.77)"/><path d="m9.57 7.99h.2v2.16h-.2z" fill="#fff" transform="matrix(.13398619 -.9909832 .9909832 .13398619 -2.95 14.67)"/><path d="m9.71 10.79a.31.31 0 1 1 .5-.38.31.31 0 1 1 -.5.38z" fill="#fff" transform="translate(-2.34 -2.77)"/><path d="m9.17 8.64h.2v2.16h-.2z" fill="#fff" transform="matrix(.79589635 -.60543291 .60543291 .79589635 -6.33 4.82)"/><path d="m8.09 11a.3.3 0 0 1 .35-.26.31.31 0 0 1 .27.35.32.32 0 0 1 -.35.27.33.33 0 0 1 -.27-.36z" fill="#fff" transform="translate(-2.34 -2.77)"/><path d="m7.46 9.79h2.16v.2h-2.16z" fill="#fff" transform="matrix(.13312134 -.99109975 .99109975 .13312134 -4.74 14.26)"/><path d="m6.82 9.93a.31.31 0 1 1 .38.49.3.3 0 0 1 -.43-.06.3.3 0 0 1 .05-.43z" fill="#fff" transform="translate(-2.34 -2.77)"/><path d="m6.82 9.39h2.16v.2h-2.16z" fill="#fff" transform="matrix(.79483846 -.60682109 .60682109 .79483846 -6.48 3.96)"/><path d="m6.66 8.31a.31.31 0 1 1 -.35.26.3.3 0 0 1 .35-.26z" fill="#fff" transform="translate(-2.34 -2.77)"/><path d="m7.62 7.67h.2v2.16h-.2z" fill="#fff" transform="matrix(.1343321 -.99093637 .99093637 .1343321 -4.33 12.45)"/><path d="m9.2 8.6a.59.59 0 0 1 -1 .65.58.58 0 0 1 .16-.81.59.59 0 0 1 .84.16z" fill="#fff" transform="translate(-2.34 -2.77)"/><path d="m24.16 21.53a2 2 0 1 1 -2.73-.53 2 2 0 0 1 2.73.53z" fill="#f9dbe8" transform="translate(-2.34 -2.77)"/><path d="m19.24 17a.66.66 0 0 1 -.1.85.67.67 0 0 1 -.83-.22 2.77 2.77 0 0 0 .2 3.11c.86 1.28 2.36 1.79 3.34 1.12s1.08-2.23.21-3.51a2.76 2.76 0 0 0 -2.82-1.35z" fill="#f9dbe8" transform="translate(-2.34 -2.77)"/><path d="m27 17.84a.57.57 0 1 1 -.88-.7 2.78 2.78 0 0 0 -2.92 1.11c-1 1.21-1 2.78-.08 3.52s2.46.37 3.43-.83a2.8 2.8 0 0 0 .45-3.1z" fill="#f9dbe8" transform="translate(-2.34 -2.77)"/><path d="m28.57 25.1a.67.67 0 0 1 -.45-.74.69.69 0 0 1 .8-.33 2.76 2.76 0 0 0 -2.08-2.33c-1.47-.48-3 .05-3.32 1.17s.53 2.43 2 2.9a2.77 2.77 0 0 0 3.05-.67z" fill="#f9dbe8" transform="translate(-2.34 -2.77)"/><path d="m22.13 29.17c.05-.37.28-.65.55-.66s.52.27.58.65a2.79 2.79 0 0 0 1.53-2.72c0-1.55-1-2.79-2.18-2.77s-2.13 1.33-2.1 2.83a2.76 2.76 0 0 0 1.62 2.67z" fill="#f9dbe8" transform="translate(-2.34 -2.77)"/><path d="m16.2 24.4a.65.65 0 0 1 .8.31c.1.26-.09.57-.42.75a2.78 2.78 0 0 0 3.07.57c1.46-.52 2.31-1.85 1.91-3s-1.91-1.56-3.36-1.03a2.76 2.76 0 0 0 -2 2.4z" fill="#f9dbe8" transform="translate(-2.34 -2.77)"/><path d="m21.54 21.16a.31.31 0 0 1 -.06.44.31.31 0 0 1 -.43-.06.31.31 0 0 1 .06-.44.31.31 0 0 1 .43.06z" fill="#fff" transform="translate(-2.34 -2.77)"/><path d="m20.38 20.25-.16.13-1.31-1.72.16-.12z" fill="#fff"/><path d="m23.17 21a.32.32 0 0 1 -.35.27.31.31 0 0 1 .08-.62.32.32 0 0 1 .27.35z" fill="#fff" transform="translate(-2.34 -2.77)"/><path d="m21.64 21.96h2.16v.2h-2.16z" fill="#fff" transform="matrix(.13312134 -.99109975 .99109975 .13312134 -4.51 38.86)"/><path d="m24.43 22a.3.3 0 0 1 -.43 0 .3.3 0 0 1 .05-.43.31.31 0 1 1 .38.49z" fill="#fff" transform="translate(-2.34 -2.77)"/><path d="m20.23 20.42-.13-.16 1.72-1.31.12.16z" fill="#fff"/><path d="m24.6 23.64a.31.31 0 0 1 -.27-.35.31.31 0 0 1 .35-.26.31.31 0 0 1 .27.35.3.3 0 0 1 -.35.26z" fill="#fff" transform="translate(-2.34 -2.77)"/><path d="m23.43 22.12h.2v2.16h-.2z" fill="#fff" transform="matrix(.13398619 -.9909832 .9909832 .13398619 -4.95 40.63)"/><path d="m23.57 24.91a.31.31 0 1 1 .5-.38.31.31 0 0 1 -.5.38z" fill="#fff" transform="translate(-2.34 -2.77)"/><path d="m23.03 22.76h.2v2.16h-.2z" fill="#fff" transform="matrix(.79589635 -.60543291 .60543291 .79589635 -12.05 16.1)"/><path d="m22 25.08a.31.31 0 0 1 .62.08.31.31 0 1 1 -.62-.08z" fill="#fff" transform="translate(-2.34 -2.77)"/><path d="m21.32 23.91h2.16v.2h-2.16z" fill="#fff" transform="matrix(.13312134 -.99109975 .99109975 .13312134 -6.72 40.24)"/><path d="m20.68 24.05a.32.32 0 0 1 .44.06.31.31 0 0 1 -.49.38.31.31 0 0 1 .05-.44z" fill="#fff" transform="translate(-2.34 -2.77)"/><path d="m20.68 23.51h2.16v.2h-2.16z" fill="#fff" transform="matrix(.79483846 -.60682109 .60682109 .79483846 -12.2 15.27)"/><path d="m20.52 22.43a.31.31 0 1 1 -.35.26.3.3 0 0 1 .35-.26z" fill="#fff" transform="translate(-2.34 -2.77)"/><path d="m21.48 21.79h.2v2.16h-.2z" fill="#fff" transform="matrix(.1343321 -.99093637 .99093637 .1343321 -6.32 38.41)"/><path d="m23.06 22.72a.59.59 0 0 1 -1 .65.58.58 0 0 1 .16-.81.59.59 0 0 1 .84.16z" fill="#fff" transform="translate(-2.34 -2.77)"/><path d="m43.16 11.53a2 2 0 1 1 -2.73-.53 2 2 0 0 1 2.73.53z" fill="#f9dbe8" transform="translate(-2.34 -2.77)"/><path d="m38.24 7a.66.66 0 0 1 -.1.85.67.67 0 0 1 -.83-.22 2.77 2.77 0 0 0 .2 3.11c.86 1.28 2.36 1.79 3.34 1.12s1.08-2.23.21-3.51a2.76 2.76 0 0 0 -2.82-1.35z" fill="#f9dbe8" transform="translate(-2.34 -2.77)"/><path d="m46 7.84a.68.68 0 0 1 -.85.16.68.68 0 0 1 0-.86 2.78 2.78 0 0 0 -2.92 1.11c-1 1.21-1 2.78-.08 3.52s2.46.37 3.43-.83a2.8 2.8 0 0 0 .42-3.1z" fill="#f9dbe8" transform="translate(-2.34 -2.77)"/><path d="m47.57 15.1a.67.67 0 0 1 -.45-.74.69.69 0 0 1 .8-.33 2.76 2.76 0 0 0 -2.08-2.33c-1.47-.48-3 .05-3.32 1.17s.53 2.43 2 2.9a2.77 2.77 0 0 0 3.05-.67z" fill="#f9dbe8" transform="translate(-2.34 -2.77)"/><path d="m41.13 19.17c0-.37.28-.65.55-.66s.52.27.58.65a2.79 2.79 0 0 0 1.53-2.72c0-1.55-1-2.79-2.18-2.77s-2.13 1.33-2.1 2.83a2.76 2.76 0 0 0 1.62 2.67z" fill="#f9dbe8" transform="translate(-2.34 -2.77)"/><path d="m35.2 14.4a.65.65 0 0 1 .8.31c.1.26-.09.57-.42.75a2.78 2.78 0 0 0 3.07.57c1.46-.52 2.31-1.85 1.91-3s-1.91-1.56-3.36-1.03a2.76 2.76 0 0 0 -2 2.4z" fill="#f9dbe8" transform="translate(-2.34 -2.77)"/><path d="m40.54 11.16a.31.31 0 0 1 -.06.44.31.31 0 0 1 -.43-.06.31.31 0 0 1 .06-.44.31.31 0 0 1 .43.06z" fill="#fff" transform="translate(-2.34 -2.77)"/><path d="m39.38 10.25-.16.13-1.31-1.72.16-.12z" fill="#fff"/><path d="m42.17 11a.32.32 0 0 1 -.35.27.31.31 0 0 1 .08-.62.32.32 0 0 1 .27.35z" fill="#fff" transform="translate(-2.34 -2.77)"/><path d="m40.64 11.96h2.16v.2h-2.16z" fill="#fff" transform="matrix(.13312134 -.99109975 .99109975 .13312134 21.87 49.03)"/><path d="m43.43 12a.3.3 0 0 1 -.43 0 .3.3 0 0 1 0-.43.31.31 0 1 1 .38.49z" fill="#fff" transform="translate(-2.34 -2.77)"/><path d="m39.23 10.42-.13-.16 1.72-1.31.12.16z" fill="#fff"/><path d="m43.6 13.64a.31.31 0 0 1 -.27-.35.31.31 0 0 1 .35-.26.31.31 0 0 1 .27.35.3.3 0 0 1 -.35.26z" fill="#fff" transform="translate(-2.34 -2.77)"/><path d="m42.43 12.12h.2v2.16h-.2z" fill="#fff" transform="matrix(.13398619 -.9909832 .9909832 .13398619 21.42 50.8)"/><path d="m42.57 14.91a.31.31 0 0 1 .5-.38.31.31 0 0 1 -.5.38z" fill="#fff" transform="translate(-2.34 -2.77)"/><path d="m42.03 12.76h.2v2.16h-.2z" fill="#fff" transform="matrix(.79589635 -.60543291 .60543291 .79589635 -2.12 25.56)"/><path d="m41 15.08a.31.31 0 0 1 .62.08.31.31 0 1 1 -.62-.08z" fill="#fff" transform="translate(-2.34 -2.77)"/><path d="m40.32 13.91h2.16v.2h-2.16z" fill="#fff" transform="matrix(.13312134 -.99109975 .99109975 .13312134 19.66 50.4)"/><path d="m39.68 14.05a.32.32 0 0 1 .44.06.31.31 0 0 1 -.49.38.31.31 0 0 1 .05-.44z" fill="#fff" transform="translate(-2.34 -2.77)"/><path d="m39.68 13.51h2.16v.2h-2.16z" fill="#fff" transform="matrix(.79483846 -.60682109 .60682109 .79483846 -2.24 24.75)"/><path d="m39.52 12.43a.31.31 0 1 1 -.35.26.3.3 0 0 1 .35-.26z" fill="#fff" transform="translate(-2.34 -2.77)"/><path d="m40.48 11.79h.2v2.16h-.2z" fill="#fff" transform="matrix(.1343321 -.99093637 .99093637 .1343321 20.04 48.58)"/><path d="m42.06 12.72a.59.59 0 0 1 -1 .65.58.58 0 0 1 .16-.81.59.59 0 0 1 .84.16z" fill="#fff" transform="translate(-2.34 -2.77)"/><path d="m62.16 23.53a2 2 0 1 1 -2.73-.53 2 2 0 0 1 2.73.53z" fill="#f9dbe8" transform="translate(-2.34 -2.77)"/><path d="m57.24 19a.66.66 0 0 1 -.1.85.67.67 0 0 1 -.83-.22 2.77 2.77 0 0 0 .2 3.11c.86 1.28 2.36 1.79 3.34 1.12s1.08-2.23.21-3.51a2.76 2.76 0 0 0 -2.82-1.35z" fill="#f9dbe8" transform="translate(-2.34 -2.77)"/><path d="m65 19.84a.57.57 0 1 1 -.88-.7 2.78 2.78 0 0 0 -2.92 1.11c-1 1.21-1 2.78-.08 3.52s2.46.37 3.43-.83a2.8 2.8 0 0 0 .45-3.1z" fill="#f9dbe8" transform="translate(-2.34 -2.77)"/><path d="m66.57 27.1a.67.67 0 0 1 -.45-.74.69.69 0 0 1 .8-.33 2.76 2.76 0 0 0 -2.08-2.33c-1.47-.48-3 .05-3.32 1.17s.53 2.43 2 2.9a2.77 2.77 0 0 0 3.05-.67z" fill="#f9dbe8" transform="translate(-2.34 -2.77)"/><path d="m60.13 31.17c0-.37.28-.65.55-.66s.52.27.58.65a2.79 2.79 0 0 0 1.53-2.72c0-1.55-1-2.79-2.18-2.77s-2.13 1.33-2.1 2.83a2.76 2.76 0 0 0 1.62 2.67z" fill="#f9dbe8" transform="translate(-2.34 -2.77)"/><path d="m54.2 26.4a.65.65 0 0 1 .8.31c.1.26-.09.57-.42.75a2.78 2.78 0 0 0 3.07.57c1.46-.52 2.31-1.85 1.91-3s-1.91-1.56-3.36-1.03a2.76 2.76 0 0 0 -2 2.4z" fill="#f9dbe8" transform="translate(-2.34 -2.77)"/><path d="m59.54 23.16a.31.31 0 0 1 -.06.44.31.31 0 0 1 -.43-.06.31.31 0 0 1 .06-.44.31.31 0 0 1 .43.06z" fill="#fff" transform="translate(-2.34 -2.77)"/><path d="m58.38 22.25-.16.13-1.31-1.72.16-.12z" fill="#fff"/><path d="m61.17 23a.32.32 0 0 1 -.35.27.31.31 0 0 1 .08-.62.32.32 0 0 1 .27.35z" fill="#fff" transform="translate(-2.34 -2.77)"/><path d="m59.64 23.96h2.16v.2h-2.16z" fill="#fff" transform="matrix(.13312134 -.99109975 .99109975 .13312134 26.45 78.26)"/><path d="m62.43 24a.3.3 0 0 1 -.43 0 .3.3 0 0 1 0-.43.31.31 0 1 1 .38.49z" fill="#fff" transform="translate(-2.34 -2.77)"/><path d="m58.23 22.42-.13-.16 1.72-1.31.12.16z" fill="#fff"/><path d="m62.6 25.64a.31.31 0 0 1 -.27-.35.31.31 0 0 1 .35-.26.31.31 0 0 1 .27.35.3.3 0 0 1 -.35.26z" fill="#fff" transform="translate(-2.34 -2.77)"/><path d="m61.43 24.12h.2v2.16h-.2z" fill="#fff" transform="matrix(.13 -.99 .99 .13 25.98 80.02)"/><path d="m61.57 26.91a.31.31 0 1 1 .5-.38.31.31 0 1 1 -.5.38z" fill="#fff" transform="translate(-2.34 -2.77)"/><path d="m61.03 24.76h.2v2.16h-.2z" fill="#fff" transform="matrix(.79589635 -.60543291 .60543291 .79589635 -5.5 39.51)"/><path d="m60 27.08a.31.31 0 0 1 .62.08.31.31 0 1 1 -.62-.08z" fill="#fff" transform="translate(-2.34 -2.77)"/><path d="m59.32 25.91h2.16v.2h-2.16z" fill="#fff" transform="matrix(.13312134 -.99109975 .99109975 .13312134 24.24 79.63)"/><path d="m58.68 26.05a.32.32 0 0 1 .44.06.31.31 0 0 1 -.49.38.31.31 0 0 1 .05-.44z" fill="#fff" transform="translate(-2.34 -2.77)"/><path d="m58.68 25.51h2.16v.2h-2.16z" fill="#fff" transform="matrix(.79483846 -.60682109 .60682109 .79483846 -5.62 38.74)"/><path d="m58.52 24.43a.31.31 0 1 1 -.35.26.3.3 0 0 1 .35-.26z" fill="#fff" transform="translate(-2.34 -2.77)"/><path d="m59.48 23.79h.2v2.16h-.2z" fill="#fff" transform="matrix(.1343321 -.99093637 .99093637 .1343321 24.59 77.8)"/><path d="m61.06 24.72a.59.59 0 0 1 -1 .65.58.58 0 0 1 .16-.81.59.59 0 0 1 .84.16z" fill="#fff" transform="translate(-2.34 -2.77)"/><path d="m70.16 12.53a2 2 0 1 1 -2.73-.53 2 2 0 0 1 2.73.53z" fill="#f9dbe8" transform="translate(-2.34 -2.77)"/><path d="m65.24 8a.66.66 0 0 1 -.1.85.67.67 0 0 1 -.83-.22 2.77 2.77 0 0 0 .2 3.11c.86 1.28 2.36 1.79 3.34 1.12s1.08-2.23.21-3.51a2.76 2.76 0 0 0 -2.82-1.35z" fill="#f9dbe8" transform="translate(-2.34 -2.77)"/><path d="m73 8.84a.68.68 0 0 1 -.85.16.68.68 0 0 1 0-.86 2.78 2.78 0 0 0 -2.92 1.11c-1 1.21-1 2.78-.08 3.52s2.46.37 3.43-.83a2.8 2.8 0 0 0 .42-3.1z" fill="#f9dbe8" transform="translate(-2.34 -2.77)"/><path d="m74.57 16.1a.67.67 0 0 1 -.45-.74.69.69 0 0 1 .8-.33 2.76 2.76 0 0 0 -2.08-2.33c-1.47-.48-3 .05-3.32 1.17s.53 2.43 2 2.9a2.77 2.77 0 0 0 3.05-.67z" fill="#f9dbe8" transform="translate(-2.34 -2.77)"/><path d="m68.13 20.17c.05-.37.28-.65.55-.66s.52.27.58.65a2.79 2.79 0 0 0 1.53-2.72c0-1.55-1-2.79-2.18-2.77s-2.13 1.33-2.1 2.83a2.76 2.76 0 0 0 1.62 2.67z" fill="#f9dbe8" transform="translate(-2.34 -2.77)"/><path d="m62.2 15.4a.65.65 0 0 1 .8.31c.1.26-.09.57-.42.75a2.78 2.78 0 0 0 3.07.57c1.46-.52 2.31-1.85 1.91-3s-1.91-1.56-3.36-1.03a2.76 2.76 0 0 0 -2 2.4z" fill="#f9dbe8" transform="translate(-2.34 -2.77)"/><path d="m67.54 12.16a.31.31 0 0 1 -.06.44.31.31 0 0 1 -.43-.06.31.31 0 0 1 .06-.44.31.31 0 0 1 .43.06z" fill="#fff" transform="translate(-2.34 -2.77)"/><path d="m66.38 11.25-.16.13-1.31-1.72.16-.12z" fill="#fff"/><path d="m69.17 12a.32.32 0 0 1 -.35.27.31.31 0 0 1 .08-.62.32.32 0 0 1 .27.35z" fill="#fff" transform="translate(-2.34 -2.77)"/><path d="m67.64 12.96h2.16v.2h-2.16z" fill="#fff" transform="matrix(.13312134 -.99109975 .99109975 .13312134 44.28 76.65)"/><path d="m70.43 13a.3.3 0 0 1 -.43 0 .3.3 0 0 1 0-.43.31.31 0 1 1 .38.49z" fill="#fff" transform="translate(-2.34 -2.77)"/><path d="m66.23 11.42-.13-.16 1.72-1.31.12.16z" fill="#fff"/><path d="m70.6 14.64a.31.31 0 0 1 -.27-.35.31.31 0 0 1 .35-.26.31.31 0 0 1 .27.35.3.3 0 0 1 -.35.26z" fill="#fff" transform="translate(-2.34 -2.77)"/><path d="m69.43 13.12h.2v2.16h-.2z" fill="#fff" transform="matrix(.13 -.99 .99 .13 43.81 78.42)"/><path d="m69.57 15.91a.31.31 0 1 1 .5-.38.31.31 0 0 1 -.5.38z" fill="#fff" transform="translate(-2.34 -2.77)"/><path d="m69.03 13.76h.2v2.16h-.2z" fill="#fff" transform="matrix(.79589635 -.60543291 .60543291 .79589635 2.79 42.11)"/><path d="m68 16.08a.31.31 0 0 1 .62.08.31.31 0 0 1 -.62-.08z" fill="#fff" transform="translate(-2.34 -2.77)"/><path d="m67.32 14.91h2.16v.2h-2.16z" fill="#fff" transform="matrix(.13312134 -.99109975 .99109975 .13312134 42.08 78.03)"/><path d="m66.68 15.05a.32.32 0 0 1 .44.06.31.31 0 0 1 -.49.38.31.31 0 0 1 .05-.44z" fill="#fff" transform="translate(-2.34 -2.77)"/><path d="m66.68 14.51h2.16v.2h-2.16z" fill="#fff" transform="matrix(.79483846 -.60682109 .60682109 .79483846 2.7 41.34)"/><path d="m66.52 13.43a.31.31 0 1 1 -.35.26.3.3 0 0 1 .35-.26z" fill="#fff" transform="translate(-2.34 -2.77)"/><path d="m67.48 12.79h.2v2.16h-.2z" fill="#fff" transform="matrix(.1343321 -.99093637 .99093637 .1343321 42.42 76.21)"/><path d="m69.06 13.72a.59.59 0 0 1 -1 .65.58.58 0 0 1 .16-.81.59.59 0 0 1 .84.16z" fill="#fff" transform="translate(-2.34 -2.77)"/><path d="m39.8 28.35a.77.77 0 0 1 -.91-.39c-.1-.3.13-.65.53-.83a3.21 3.21 0 0 0 -3.5-.79c-1.7.52-2.76 2-2.36 3.28s2.1 1.89 3.8 1.37a3.23 3.23 0 0 0 2.44-2.64z" fill="#f9dbe8" transform="translate(-2.34 -2.77)"/><path d="m24.39 12.73c.37-.16.74-.12.87.11s0 .57-.32.82a3 3 0 0 0 3.25-.17c1.42-.85 2.1-2.32 1.52-3.3s-2.2-1.09-3.62-.19a3 3 0 0 0 -1.7 2.73z" fill="#f9dbe8" transform="translate(-2.34 -2.77)"/><path d="m52.58 3.8c.28.29.37.65.2.86a.72.72 0 0 1 -.89 0 3 3 0 0 0 1.25 3c1.27 1 2.89 1.2 3.61.32s.29-2.44-1-3.49a3 3 0 0 0 -3.17-.69z" fill="#f9dbe8" transform="translate(-2.34 -2.77)"/><path d="m87 4.5c-.33.23-.7.27-.88.07s-.12-.57.17-.87a3 3 0 0 0 -3.15.84c-1.21 1.11-1.57 2.69-.8 3.53s2.37.61 3.59-.5a3 3 0 0 0 1.07-3.07z" fill="#f9dbe8" transform="translate(-2.34 -2.77)"/><path d="m72.93 24a.7.7 0 0 1 0 .92.71.71 0 0 1 -.92-.09 2.87 2.87 0 0 0 .5 3.26 2.69 2.69 0 0 0 3.71.6 2.67 2.67 0 0 0 -.12-3.69 2.85 2.85 0 0 0 -3.17-1z" fill="#f9dbe8" transform="translate(-2.34 -2.77)"/></svg>