<svg viewBox="0 0 500 160" xmlns="http://www.w3.org/2000/svg"><path d="m27.62 123.39c1.14 1.86 1.11 4-.18 5.2s-3.4.88-5-.53c-3 5.18-2.08 12.71 2.71 18.37 5.74 6.78 14.85 8.3 20.33 3.4s5.28-14.36-.46-21.14c-4.83-5.69-12.02-7.69-17.4-5.3z" fill="#f9dbe8"/><path d="m473.87 107a11.25 11.25 0 0 1 -2.87 15.35 10.61 10.61 0 0 1 -15-3 11.25 11.25 0 0 1 2.9-15.35 10.61 10.61 0 0 1 14.97 3z" fill="#f9dbe8"/><path d="m446.92 81.22c.9 1.91.71 4-.55 4.83s-3.18.29-4.57-1.28c-3.14 4.38-2.86 11.55 1.1 17.57 4.73 7.21 12.94 10 18.32 6.3s5.91-12.59 1.18-19.8c-3.96-6.03-10.34-8.99-15.48-7.62z" fill="#f9dbe8"/><path d="m489.27 86.21c-1.51 1.45-3.47 1.87-4.66.89s-1.21-3-.16-4.85c-5-1.79-11.59.61-16 6.27-5.3 6.78-5.5 15.66-.43 19.84s13.47 2.07 18.77-4.72c4.41-5.64 5.27-12.8 2.48-17.43z" fill="#f9dbe8"/><path d="m498.1 127.11c-1.86-.93-2.93-2.67-2.46-4.16s2.32-2.24 4.36-1.87c-.15-5.44-4.67-10.91-11.4-13.15-8.06-2.69-16.21.27-18.22 6.62s2.9 13.66 11 16.34c6.69 2.25 13.5.55 16.72-3.78z" fill="#f9dbe8"/><path d="m462.76 150.05c.26-2.11 1.51-3.71 3-3.73s2.82 1.53 3.14 3.63c5-1.9 8.55-8.07 8.44-15.32-.13-8.7-5.49-15.67-12-15.57s-11.66 7.23-11.53 15.93c.19 7.27 3.92 13.33 8.95 15.06z" fill="#f9dbe8"/><path d="m430.21 123.15c2-.43 3.9.26 4.42 1.74s-.5 3.23-2.33 4.22c3.36 4.21 10.2 5.69 16.86 3.23 8-2.94 12.65-10.42 10.45-16.69s-10.44-9-18.41-6c-6.66 2.43-11.03 8.05-10.99 13.5z" fill="#f9dbe8"/><g fill="#fff"><path d="m459.54 104.92a1.78 1.78 0 0 1 -.32 2.45 1.67 1.67 0 0 1 -2.39-.33 1.78 1.78 0 0 1 .32-2.46 1.68 1.68 0 0 1 2.39.34z"/><path d="m465.98 115.44-.88.68-7.19-9.67.88-.69z"/><path d="m468.44 104a1.72 1.72 0 0 1 -1.92 1.5 1.75 1.75 0 0 1 -1.47-2 1.72 1.72 0 0 1 1.95-1.5 1.75 1.75 0 0 1 1.44 2z"/><path d="m465.74 116.08-1.09-.15 1.58-12.06 1.09.15z"/><path d="m475.38 109.76a1.69 1.69 0 0 1 -2.39-.33 1.79 1.79 0 0 1 .32-2.46 1.67 1.67 0 0 1 2.39.33 1.78 1.78 0 0 1 -.32 2.46z"/><path d="m465.14 116.36-.67-.9 9.42-7.38.67.91z"/><path d="m476.31 118.89a1.75 1.75 0 0 1 -1.47-2 1.72 1.72 0 0 1 1.92-1.5 1.75 1.75 0 0 1 1.47 2 1.72 1.72 0 0 1 -1.92 1.5z"/><path d="m464.51 116.13.15-1.13 11.74 1.63-.15 1.12z"/><path d="m470.67 126a1.78 1.78 0 0 1 .32-2.45 1.68 1.68 0 0 1 2.39.32 1.78 1.78 0 0 1 -.32 2.46 1.67 1.67 0 0 1 -2.39-.33z"/><path d="m464.23 115.5.88-.69 7.19 9.68-.88.69z"/><path d="m461.77 127a1.72 1.72 0 0 1 1.92-1.5 1.76 1.76 0 0 1 1.47 2 1.72 1.72 0 0 1 -1.93 1.5 1.74 1.74 0 0 1 -1.46-2z"/><path d="m464.46 114.86 1.1.15-1.58 12.06-1.09-.15z"/><path d="m454.82 121.18a1.69 1.69 0 0 1 2.4.33 1.79 1.79 0 0 1 -.32 2.46 1.69 1.69 0 0 1 -2.4-.33 1.8 1.8 0 0 1 .32-2.46z"/><path d="m465.07 114.58.67.9-9.42 7.37-.67-.9z"/><path d="m453.9 112.05a1.74 1.74 0 0 1 1.46 2 1.7 1.7 0 0 1 -1.91 1.5 1.75 1.75 0 0 1 -1.47-2 1.72 1.72 0 0 1 1.92-1.5z"/><path d="m465.7 114.81-.15 1.13-11.74-1.63.14-1.12z"/><path d="m467.83 113.69a3.35 3.35 0 0 1 -.86 4.57 3.16 3.16 0 0 1 -4.46-.89 3.34 3.34 0 0 1 .87-4.57 3.15 3.15 0 0 1 4.45.89z"/></g><path d="m43.67 26.09a11.27 11.27 0 0 1 -2.91 15.38 10.63 10.63 0 0 1 -15-3 11.27 11.27 0 0 1 2.94-15.37 10.61 10.61 0 0 1 14.97 2.99z" fill="#f9dbe8"/><path d="m16.71.33c.91 1.91.71 4-.55 4.83s-3.16.29-4.56-1.28c-3.15 4.38-2.87 11.55 1.09 17.57 4.73 7.21 12.94 10 18.32 6.31s5.92-12.6 1.18-19.76c-3.96-6.08-10.34-9-15.48-7.67z" fill="#f9dbe8"/><path d="m59.06 5.32c-1.51 1.46-3.46 1.87-4.65.89s-1.22-3-.17-4.85c-5-1.79-11.59.61-16 6.28-5.3 6.78-5.5 15.66-.43 19.83s13.47 2.07 18.77-4.71c4.42-5.67 5.28-12.76 2.48-17.44z" fill="#f9dbe8"/><path d="m67.89 46.22c-1.89-.93-2.89-2.66-2.46-4.15s2.33-2.25 4.36-1.88c-.14-5.44-4.67-10.91-11.4-13.15-8-2.69-16.21.28-18.22 6.62s2.9 13.66 11 16.35c6.7 2.25 13.5.54 16.72-3.79z" fill="#f9dbe8"/><path d="m32.55 69.16c.26-2.1 1.51-3.7 3-3.73s2.85 1.57 3.18 3.63c5-1.9 8.54-8.06 8.44-15.32-.13-8.7-5.5-15.67-12-15.57s-11.65 7.23-11.53 15.93c.11 7.27 3.88 13.33 8.91 15.06z" fill="#f9dbe8"/><path d="m0 42.26c2-.43 3.91.26 4.42 1.74s-.5 3.23-2.32 4.22c3.36 4.21 10.2 5.69 16.9 3.23 8-2.94 12.65-10.41 10.46-16.69s-10.45-9-18.42-6c-6.71 2.43-11.04 8.06-11.04 13.5z" fill="#f9dbe8"/><path d="m29.33 24a1.78 1.78 0 0 1 -.33 2.48 1.66 1.66 0 0 1 -2.39-.33 1.78 1.78 0 0 1 .32-2.45 1.67 1.67 0 0 1 2.4.3z" fill="#fff"/><path d="m35.77 34.55-.88.68-7.19-9.67.88-.68z" fill="#fff"/><path d="m38.23 23.08a1.71 1.71 0 0 1 -1.92 1.5 1.74 1.74 0 0 1 -1.46-2 1.71 1.71 0 0 1 1.92-1.5 1.74 1.74 0 0 1 1.46 2z" fill="#fff"/><path d="m35.54 35.19-1.1-.15 1.58-12.06 1.1.15z" fill="#fff"/><path d="m45.18 28.87a1.68 1.68 0 0 1 -2.4-.33 1.79 1.79 0 0 1 .33-2.46 1.67 1.67 0 0 1 2.39.33 1.8 1.8 0 0 1 -.32 2.46z" fill="#fff"/><path d="m34.93 35.48-.67-.91 9.42-7.37.67.9z" fill="#fff"/><path d="m46.1 38a1.74 1.74 0 0 1 -1.46-2 1.71 1.71 0 0 1 1.92-1.5 1.75 1.75 0 0 1 1.46 2 1.72 1.72 0 0 1 -1.92 1.5z" fill="#fff"/><path d="m34.3 35.24.15-1.13 11.75 1.63-.15 1.12z" fill="#fff"/><path d="m40.46 45.13a1.78 1.78 0 0 1 .32-2.45 1.68 1.68 0 0 1 2.4.33 1.8 1.8 0 0 1 -.32 2.46 1.69 1.69 0 0 1 -2.4-.34z" fill="#fff"/><path d="m34.03 34.61.88-.68 7.18 9.67-.88.69z" fill="#fff"/><path d="m31.56 46.08a1.72 1.72 0 0 1 1.92-1.5 1.76 1.76 0 0 1 -.48 3.48 1.77 1.77 0 0 1 -1.44-1.98z" fill="#fff"/><path d="m34.26 33.97 1.09.15-1.58 12.06-1.09-.15z" fill="#fff"/><path d="m24.62 40.3a1.66 1.66 0 0 1 2.39.33 1.78 1.78 0 0 1 -.32 2.45 1.67 1.67 0 0 1 -2.39-.33 1.78 1.78 0 0 1 .32-2.45z" fill="#fff"/><path d="m34.86 33.69.67.9-9.42 7.38-.67-.91z" fill="#fff"/><path d="m23.69 31.16a1.74 1.74 0 0 1 1.47 2 1.71 1.71 0 0 1 -1.92 1.5 1.75 1.75 0 0 1 -1.47-2 1.72 1.72 0 0 1 1.92-1.5z" fill="#fff"/><path d="m35.49 33.92-.15 1.13-11.74-1.62.15-1.13z" fill="#fff"/><path d="m37.62 32.8a3.33 3.33 0 0 1 -.86 4.57 3.17 3.17 0 0 1 -4.46-.88 3.36 3.36 0 0 1 .87-4.58 3.15 3.15 0 0 1 4.45.89z" fill="#fff"/><path d="m119.72 105.65a11.25 11.25 0 0 1 -2.91 15.35 10.61 10.61 0 0 1 -15-3 11.25 11.25 0 0 1 2.91-15.37 10.61 10.61 0 0 1 15 3.02z" fill="#f9dbe8"/><path d="m92.77 79.89c.9 1.91.71 4-.56 4.83s-3.21.28-4.56-1.28c-3.15 4.38-2.86 11.56 1.09 17.56 4.74 7.21 12.94 10 18.33 6.3s5.91-12.59 1.17-19.8c-3.96-6.02-10.34-8.98-15.47-7.61z" fill="#f9dbe8"/><path d="m135.11 84.88c-1.5 1.45-3.46 1.87-4.65.89s-1.22-3-.17-4.85c-5-1.79-11.59.61-16 6.27-5.3 6.78-5.49 15.66-.43 19.84s13.47 2.07 18.78-4.72c4.41-5.67 5.27-12.8 2.47-17.43z" fill="#f9dbe8"/><path d="m143.94 125.78c-1.85-.93-2.93-2.67-2.45-4.16s2.32-2.24 4.36-1.88c-.15-5.43-4.68-10.91-11.4-13.14-8.06-2.69-16.22.27-18.22 6.62s2.89 13.66 11 16.34c6.69 2.25 13.49.54 16.71-3.78z" fill="#f9dbe8"/><path d="m108.6 148.72c.26-2.11 1.51-3.71 3-3.73s2.81 1.53 3.14 3.63c5-1.9 8.54-8.07 8.44-15.33-.13-8.69-5.5-15.66-12-15.56s-11.61 7.27-11.48 15.93c.1 7.27 3.87 13.34 8.9 15.06z" fill="#f9dbe8"/><path d="m76.05 121.82c2-.43 3.91.26 4.42 1.74s-.5 3.23-2.32 4.22c3.36 4.22 10.2 5.69 16.85 3.22 8-2.94 12.65-10.42 10.45-16.69s-10.45-9-18.42-6c-6.65 2.44-11.03 8.06-10.98 13.51z" fill="#f9dbe8"/><path d="m105.39 103.59a1.78 1.78 0 0 1 -.33 2.45 1.67 1.67 0 0 1 -2.39-.33 1.79 1.79 0 0 1 .32-2.46 1.69 1.69 0 0 1 2.4.34z" fill="#fff"/><path d="m111.82 114.11-.88.68-7.18-9.67.88-.69z" fill="#fff"/><path d="m114.28 102.64a1.71 1.71 0 0 1 -1.92 1.5 1.74 1.74 0 0 1 -1.46-2 1.71 1.71 0 0 1 1.92-1.5 1.74 1.74 0 0 1 1.46 2z" fill="#fff"/><path d="m111.59 114.75-1.1-.15 1.59-12.06 1.09.15z" fill="#fff"/><path d="m121.23 108.43a1.69 1.69 0 0 1 -2.39-.33 1.79 1.79 0 0 1 .32-2.46 1.67 1.67 0 0 1 2.39.33 1.79 1.79 0 0 1 -.32 2.46z" fill="#fff"/><path d="m110.98 115.03-.67-.9 9.43-7.38.66.91z" fill="#fff"/><path d="m122.15 117.56a1.74 1.74 0 0 1 -1.46-2 1.71 1.71 0 0 1 1.92-1.5 1.74 1.74 0 0 1 1.46 2 1.71 1.71 0 0 1 -1.92 1.5z" fill="#fff"/><path d="m110.36 114.79.14-1.12 11.75 1.62-.15 1.13z" fill="#fff"/><path d="m116.51 124.69a1.78 1.78 0 0 1 .33-2.45 1.68 1.68 0 0 1 2.39.32 1.79 1.79 0 0 1 -.32 2.46 1.68 1.68 0 0 1 -2.4-.33z" fill="#fff"/><path d="m110.08 114.17.88-.69 7.18 9.68-.88.68z" fill="#fff"/><path d="m107.62 125.64a1.71 1.71 0 0 1 1.92-1.5 1.74 1.74 0 0 1 1.46 2 1.71 1.71 0 0 1 -1.92 1.5 1.74 1.74 0 0 1 -1.46-2z" fill="#fff"/><path d="m110.31 113.53 1.1.15-1.59 12.06-1.09-.15z" fill="#fff"/><path d="m100.67 119.85a1.68 1.68 0 0 1 2.39.33 1.79 1.79 0 0 1 -.32 2.46 1.68 1.68 0 0 1 -2.39-.33 1.79 1.79 0 0 1 .32-2.46z" fill="#fff"/><path d="m110.92 113.25.67.9-9.42 7.37-.67-.9z" fill="#fff"/><path d="m99.75 110.72a1.74 1.74 0 0 1 1.46 2 1.71 1.71 0 0 1 -1.92 1.5 1.74 1.74 0 0 1 -1.46-2 1.71 1.71 0 0 1 1.92-1.5z" fill="#fff"/><path d="m111.54 113.48-.15 1.13-11.74-1.63.15-1.12z" fill="#fff"/><path d="m113.68 112.36a3.35 3.35 0 0 1 -.87 4.57 3.16 3.16 0 0 1 -4.46-.89 3.35 3.35 0 0 1 .87-4.57 3.16 3.16 0 0 1 4.46.89z" fill="#fff"/><path d="m224 49.31a11.27 11.27 0 0 1 -2.92 15.38 10.62 10.62 0 0 1 -15-3 11.28 11.28 0 0 1 2.92-15.37 10.62 10.62 0 0 1 15 2.99z" fill="#f9dbe8"/><path d="m197 23.55c.9 1.91.71 3.95-.55 4.83s-3.18.29-4.57-1.28c-3.14 4.38-2.86 11.55 1.1 17.57 4.73 7.21 12.94 10 18.32 6.31s5.91-12.6 1.18-19.81c-3.94-6.03-10.32-8.99-15.48-7.62z" fill="#f9dbe8"/><path d="m239.37 28.54c-1.51 1.46-3.47 1.87-4.65.89s-1.22-3-.17-4.85c-5-1.79-11.59.61-16 6.28-5.3 6.78-5.5 15.66-.43 19.83s13.47 2.07 18.77-4.71c4.41-5.67 5.28-12.81 2.48-17.44z" fill="#f9dbe8"/><path d="m248.2 69.44c-1.86-.93-2.93-2.66-2.46-4.15s2.33-2.25 4.36-1.88c-.1-5.41-4.67-10.91-11.4-13.15-8-2.69-16.21.28-18.22 6.62s2.9 13.66 11 16.35c6.7 2.25 13.52.54 16.72-3.79z" fill="#f9dbe8"/><path d="m212.86 92.38c.26-2.1 1.51-3.7 3-3.73s2.82 1.54 3.14 3.63c5-1.9 8.55-8.06 8.44-15.32-.12-8.7-5.49-15.67-12-15.57s-11.61 7.23-11.44 15.93c.06 7.27 3.83 13.33 8.86 15.06z" fill="#f9dbe8"/><path d="m180.31 65.48c2-.43 3.91.26 4.42 1.74s-.5 3.23-2.32 4.23c3.36 4.2 10.2 5.68 16.85 3.22 8-2.94 12.65-10.41 10.45-16.69s-10.44-9-18.41-6c-6.66 2.43-11.02 8.02-10.99 13.5z" fill="#f9dbe8"/><path d="m209.64 47.25a1.78 1.78 0 0 1 -.32 2.45 1.67 1.67 0 0 1 -2.39-.32 1.78 1.78 0 0 1 .32-2.46 1.67 1.67 0 0 1 2.39.33z" fill="#fff"/><path d="m216.08 57.77-.88.68-7.19-9.67.88-.68z" fill="#fff"/><path d="m218.54 46.3a1.71 1.71 0 1 1 -1.46-2 1.75 1.75 0 0 1 1.46 2z" fill="#fff"/><path d="m215.84 58.41-1.09-.15 1.58-12.06 1.1.15z" fill="#fff"/><path d="m225.48 52.09a1.67 1.67 0 0 1 -2.39-.33 1.79 1.79 0 0 1 .32-2.46 1.67 1.67 0 0 1 2.39.33 1.78 1.78 0 0 1 -.32 2.46z" fill="#fff"/><path d="m215.24 58.7-.67-.91 9.42-7.37.67.9z" fill="#fff"/><path d="m226.41 61.22a1.73 1.73 0 0 1 -1.46-2 1.71 1.71 0 0 1 1.92-1.5 1.75 1.75 0 0 1 1.46 2 1.72 1.72 0 0 1 -1.92 1.5z" fill="#fff"/><path d="m214.61 58.46.15-1.13 11.74 1.63-.15 1.12z" fill="#fff"/><path d="m220.77 68.35a1.78 1.78 0 0 1 .32-2.45 1.67 1.67 0 0 1 2.39.33 1.78 1.78 0 0 1 -.32 2.46 1.67 1.67 0 0 1 -2.39-.34z" fill="#fff"/><path d="m214.34 57.83.88-.68 7.18 9.67-.88.69z" fill="#fff"/><path d="m211.87 69.3a1.72 1.72 0 0 1 1.92-1.5 1.76 1.76 0 1 1 -1.92 1.5z" fill="#fff"/><path d="m214.57 57.19 1.09.15-1.58 12.06-1.09-.15z" fill="#fff"/><path d="m204.93 63.52a1.66 1.66 0 0 1 2.39.33 1.78 1.78 0 0 1 -.32 2.45 1.67 1.67 0 0 1 -2.39-.33 1.78 1.78 0 0 1 .32-2.45z" fill="#fff"/><path d="m215.17 56.91.67.9-9.42 7.38-.67-.91z" fill="#fff"/><path d="m204 54.38a1.75 1.75 0 0 1 1.47 2 1.72 1.72 0 0 1 -1.92 1.5 1.74 1.74 0 0 1 -1.47-2 1.72 1.72 0 0 1 1.92-1.5z" fill="#fff"/><path d="m215.8 57.14-.15 1.13-11.74-1.62.15-1.13z" fill="#fff"/><path d="m217.93 56a3.34 3.34 0 0 1 -.86 4.57 3.17 3.17 0 0 1 -4.46-.88 3.36 3.36 0 0 1 .87-4.58 3.15 3.15 0 0 1 4.45.89z" fill="#fff"/><path d="m328.23 116.92a11.25 11.25 0 0 1 -2.91 15.37 10.61 10.61 0 0 1 -15-3 11.25 11.25 0 0 1 2.91-15.37 10.61 10.61 0 0 1 15 3z" fill="#f9dbe8"/><path d="m301.28 91.15c.9 1.91.71 4-.56 4.83s-3.17.3-4.56-1.27c-3.14 4.37-2.86 11.55 1.09 17.56 4.74 7.22 12.94 10 18.33 6.31s5.91-12.6 1.18-19.81c-3.96-6.03-10.35-8.98-15.48-7.62z" fill="#f9dbe8"/><path d="m343.63 96.15c-1.51 1.45-3.47 1.85-4.63.85s-1.21-3-.16-4.86c-5-1.78-11.59.62-16 6.28-5.31 6.78-5.5 15.66-.44 19.84s13.47 2.06 18.78-4.72c4.38-5.63 5.24-12.76 2.45-17.39z" fill="#f9dbe8"/><path d="m352.46 137.05c-1.86-.94-2.93-2.67-2.46-4.16s2.32-2.24 4.36-1.88c-.15-5.44-4.68-10.91-11.4-13.15-8.06-2.68-16.22.28-18.22 6.63s2.9 13.66 11 16.34c6.69 2.25 13.49.54 16.72-3.78z" fill="#f9dbe8"/><path d="m317.11 160c.27-2.11 1.51-3.71 3-3.73s2.82 1.53 3.14 3.63c5-1.9 8.55-8.07 8.44-15.33-.13-8.69-5.5-15.66-12-15.57s-11.66 7.24-11.53 15.93c.16 7.26 3.93 13.32 8.95 15.07z" fill="#f9dbe8"/><path d="m284.57 133.09c2-.43 3.9.26 4.42 1.73s-.5 3.24-2.33 4.23c3.36 4.21 10.2 5.69 16.86 3.23 8-2.95 12.65-10.42 10.45-16.7s-10.44-9-18.41-6c-6.67 2.42-11.03 8.06-10.99 13.51z" fill="#f9dbe8"/><path d="m313.9 114.85a1.79 1.79 0 0 1 -.33 2.46 1.67 1.67 0 0 1 -2.39-.33 1.8 1.8 0 0 1 .32-2.46 1.69 1.69 0 0 1 2.4.33z" fill="#fff"/><path d="m320.33 125.38-.88.68-7.18-9.67.88-.69z" fill="#fff"/><path d="m322.79 113.9a1.71 1.71 0 0 1 -1.91 1.51 1.75 1.75 0 0 1 -1.47-2 1.72 1.72 0 0 1 1.92-1.51 1.75 1.75 0 0 1 1.46 2z" fill="#fff"/><path d="m320.1 126.02-1.09-.16 1.58-12.05 1.09.15z" fill="#fff"/><path d="m329.74 119.69a1.67 1.67 0 0 1 -2.39-.33 1.78 1.78 0 0 1 .32-2.45 1.67 1.67 0 0 1 2.39.33 1.78 1.78 0 0 1 -.32 2.45z" fill="#fff"/><path d="m319.49 126.3-.67-.9 9.43-7.38.67.9z" fill="#fff"/><path d="m330.67 128.83a1.76 1.76 0 1 1 1.91-1.5 1.71 1.71 0 0 1 -1.91 1.5z" fill="#fff"/><path d="m318.87 126.06.15-1.12 11.74 1.62-.15 1.13z" fill="#fff"/><path d="m325 136a1.79 1.79 0 0 1 .32-2.46 1.68 1.68 0 0 1 2.39.33 1.79 1.79 0 0 1 -.32 2.46 1.67 1.67 0 0 1 -2.39-.33z" fill="#fff"/><path d="m318.59 125.44.88-.69 7.18 9.68-.87.68z" fill="#fff"/><path d="m316.13 136.91a1.7 1.7 0 0 1 1.92-1.5 1.74 1.74 0 0 1 1.46 2 1.71 1.71 0 0 1 -1.92 1.5 1.74 1.74 0 0 1 -1.46-2z" fill="#fff"/><path d="m318.82 124.8 1.1.15-1.58 12.05-1.1-.15z" fill="#fff"/><path d="m309.18 131.12a1.69 1.69 0 0 1 2.4.33 1.79 1.79 0 0 1 -.33 2.46 1.68 1.68 0 0 1 -2.39-.33 1.79 1.79 0 0 1 .32-2.46z" fill="#fff"/><path d="m319.43 124.51.67.91-9.42 7.37-.67-.9z" fill="#fff"/><path d="m308.26 122a1.75 1.75 0 0 1 1.46 2 1.71 1.71 0 0 1 -1.92 1.5 1.74 1.74 0 0 1 -1.46-2 1.72 1.72 0 0 1 1.92-1.5z" fill="#fff"/><path d="m320.05 124.75-.15 1.13-11.73-1.63.14-1.12z" fill="#fff"/><path d="m322.19 123.62a3.36 3.36 0 0 1 -.87 4.58 3.15 3.15 0 0 1 -4.45-.89 3.35 3.35 0 0 1 .86-4.58 3.17 3.17 0 0 1 4.46.89z" fill="#fff"/><path d="m372.13 55a11.25 11.25 0 0 1 -2.91 15.37 10.61 10.61 0 0 1 -15-3 11.25 11.25 0 0 1 2.94-15.37 10.61 10.61 0 0 1 14.97 3z" fill="#f9dbe8"/><path d="m345.18 29.18c.9 1.91.71 4-.56 4.83s-3.17.3-4.56-1.27c-3.15 4.37-2.86 11.54 1.09 17.56 4.74 7.22 12.94 10 18.33 6.31s5.91-12.6 1.17-19.81c-3.96-6.03-10.34-8.98-15.47-7.62z" fill="#f9dbe8"/><path d="m387.52 34.18c-1.5 1.45-3.46 1.86-4.65.88s-1.22-3-.17-4.85c-5-1.79-11.59.62-16 6.28-5.3 6.78-5.49 15.66-.43 19.84s13.47 2.06 18.78-4.72c4.41-5.67 5.27-12.81 2.47-17.43z" fill="#f9dbe8"/><path d="m396.35 75.08c-1.85-.94-2.93-2.67-2.45-4.16s2.32-2.24 4.36-1.88c-.15-5.44-4.68-10.91-11.4-13.15-8.06-2.68-16.22.28-18.22 6.63s2.89 13.66 10.95 16.34c6.74 2.25 13.54.54 16.76-3.78z" fill="#f9dbe8"/><path d="m361 98c.26-2.11 1.51-3.71 3-3.73s2.81 1.53 3.14 3.62c5-1.9 8.54-8.06 8.44-15.32-.13-8.69-5.5-15.66-12-15.57s-11.58 7.26-11.47 16c.1 7.22 3.89 13.28 8.89 15z" fill="#f9dbe8"/><path d="m328.46 71.11c2-.42 3.91.27 4.42 1.74s-.5 3.23-2.32 4.23c3.36 4.21 10.2 5.68 16.86 3.23 8-3 12.65-10.42 10.45-16.7s-10.44-9-18.42-6c-6.66 2.39-11.02 8.06-10.99 13.5z" fill="#f9dbe8"/><path d="m357.8 52.88a1.79 1.79 0 0 1 -.33 2.46 1.67 1.67 0 0 1 -2.39-.33 1.79 1.79 0 0 1 .32-2.46 1.69 1.69 0 0 1 2.4.33z" fill="#fff"/><path d="m364.23 63.4-.88.69-7.18-9.68.88-.68z" fill="#fff"/><path d="m366.69 51.93a1.71 1.71 0 0 1 -1.92 1.51 1.74 1.74 0 0 1 -1.46-2 1.72 1.72 0 0 1 1.92-1.44 1.74 1.74 0 0 1 1.46 1.93z" fill="#fff"/><path d="m364 64.04-1.1-.15 1.59-12.05 1.09.15z" fill="#fff"/><path d="m373.64 57.72a1.67 1.67 0 0 1 -2.39-.33 1.78 1.78 0 0 1 .32-2.45 1.68 1.68 0 0 1 2.39.32 1.79 1.79 0 0 1 -.32 2.46z" fill="#fff"/><path d="m363.39 64.33-.67-.9 9.43-7.38.66.9z" fill="#fff"/><path d="m374.56 66.86a1.74 1.74 0 0 1 -1.46-2 1.71 1.71 0 0 1 1.9-1.48 1.74 1.74 0 0 1 1.46 2 1.71 1.71 0 0 1 -1.9 1.48z" fill="#fff"/><path d="m362.77 64.09.15-1.12 11.74 1.62-.15 1.12z" fill="#fff"/><path d="m368.92 74a1.79 1.79 0 0 1 .33-2.46 1.68 1.68 0 0 1 2.39.33 1.79 1.79 0 0 1 -.32 2.46 1.68 1.68 0 0 1 -2.4-.33z" fill="#fff"/><path d="m362.49 63.47.88-.69 7.18 9.67-.88.69z" fill="#fff"/><path d="m360 74.94a1.7 1.7 0 0 1 1.92-1.5 1.75 1.75 0 1 1 -1.92 1.5z" fill="#fff"/><path d="m362.72 62.83 1.1.15-1.58 12.05-1.1-.15z" fill="#fff"/><path d="m353.08 69.15a1.67 1.67 0 0 1 2.39.33 1.79 1.79 0 0 1 -.32 2.46 1.69 1.69 0 0 1 -2.39-.33 1.79 1.79 0 0 1 .32-2.46z" fill="#fff"/><path d="m363.33 62.54.67.9-9.42 7.38-.67-.9z" fill="#fff"/><path d="m352.16 60a1.74 1.74 0 0 1 1.46 2 1.71 1.71 0 0 1 -1.92 1.51 1.75 1.75 0 0 1 -1.46-2 1.71 1.71 0 0 1 1.92-1.51z" fill="#fff"/><path d="m363.95 62.78-.15 1.12-11.74-1.62.15-1.12z" fill="#fff"/><path d="m366.09 61.65a3.36 3.36 0 0 1 -.87 4.58 3.16 3.16 0 0 1 -4.46-.89 3.36 3.36 0 0 1 .87-4.58 3.17 3.17 0 0 1 4.46.89z" fill="#fff"/><path d="m205.55 144.07c-2.36.39-4.48-.48-5-2.18s.76-3.65 2.91-4.7c-3.64-4.93-11.42-6.93-19.21-4.45-9.33 3-15.12 11.24-12.94 18.48s11.52 10.69 20.85 7.71c7.84-2.48 13.13-8.67 13.39-14.86z" fill="#f9dbe8"/><path d="m121 56.07c2-.9 4.06-.69 4.81.61s0 3.23-1.77 4.62c4.08 3.24 11.35 3 17.84-.95 7.78-4.75 11.5-13.07 8.31-18.57s-12.08-6.12-19.86-1.37c-6.51 3.97-10.18 10.43-9.33 15.66z" fill="#f9dbe8"/><path d="m275.7 5.76c1.51 1.65 2 3.7 1.06 4.86s-3 1-4.84-.17c-1.61 5 1 12 6.85 16.94 7 5.94 15.84 6.76 19.82 1.83s1.57-13.74-5.39-19.68c-5.82-4.96-12.98-6.34-17.5-3.78z" fill="#f9dbe8"/><path d="m464.68 9.7c-1.81 1.31-3.84 1.53-4.84.42s-.6-3.17.82-4.9c-4.66-2.31-11.66-.55-17.28 4.7-6.66 6.28-8.64 15.21-4.42 19.92s13.04 3.45 19.71-2.84c5.57-5.26 7.87-12.36 6.01-17.3z" fill="#f9dbe8"/><path d="m387.38 119.75c1.14 1.86 1.11 4-.18 5.2s-3.4.88-5-.54c-3 5.19-2.07 12.72 2.72 18.38 5.74 6.78 14.85 8.3 20.33 3.4s5.28-14.37-.46-21.15c-4.79-5.66-11.99-7.65-17.41-5.29z" fill="#f9dbe8"/></svg>