<svg id="レイヤー_1" data-name="レイヤー 1" xmlns="http://www.w3.org/2000/svg" viewBox="0 0 519.75 109.23"><defs><style>.cls-1{fill:#f9dbe8;}.cls-2{fill:#fff;}</style></defs><path class="cls-1" d="M54.9,39.84c3.58,5.8,2.18,13.67-3.13,17.59S39.27,59.81,35.69,54s-2.18-13.67,3.13-17.59S51.32,34,54.9,39.84Z" transform="translate(-8 -9.88)"/><path class="cls-1" d="M26,10.38c1,2.18.76,4.52-.6,5.52s-3.41.34-4.9-1.46c-3.37,5-3.07,13.21,1.18,20.09,5.08,8.25,13.9,11.48,19.68,7.22s6.35-14.41,1.26-22.66C38.32,12.2,31.47,8.81,26,10.38Z" transform="translate(-8 -9.88)"/><path class="cls-1" d="M71.43,16.09c-1.62,1.66-3.72,2.13-5,1s-1.3-3.46-.18-5.55c-5.37-2-12.44.71-17.2,7.18-5.7,7.76-5.9,17.92-.46,22.69S63.05,43.79,68.75,36C73.51,29.54,74.44,21.38,71.43,16.09Z" transform="translate(-8 -9.88)"/><path class="cls-1" d="M80.92,62.87c-2-1.07-3.15-3-2.65-4.76S80.77,55.55,83,56c-.16-6.22-5-12.47-12.24-15-8.66-3.07-17.42.32-19.57,7.58s3.11,15.62,11.76,18.7C70.15,69.77,77.45,67.81,80.92,62.87Z" transform="translate(-8 -9.88)"/><path class="cls-1" d="M43,89.11c.28-2.41,1.62-4.24,3.26-4.27s3,1.75,3.37,4.15c5.33-2.18,9.18-9.23,9.07-17.53-.14-9.94-5.91-17.92-12.88-17.8S33.26,61.93,33.39,71.87C33.51,80.19,37.56,87.12,43,89.11Z" transform="translate(-8 -9.88)"/><path class="cls-1" d="M8,58.34c2.18-.49,4.2.3,4.75,2s-.54,3.7-2.5,4.84c3.61,4.81,11,6.5,18.11,3.69,8.56-3.37,13.58-11.92,11.22-19.09S28.37,39.49,19.8,42.85C12.65,45.67,8,52.11,8,58.34Z" transform="translate(-8 -9.88)"/><path class="cls-2" d="M39.5,37.48a2.13,2.13,0,0,1-.34,2.81,1.73,1.73,0,0,1-2.57-.38,2.13,2.13,0,0,1,.34-2.81A1.73,1.73,0,0,1,39.5,37.48Z" transform="translate(-8 -9.88)"/><polygon class="cls-2" points="38.42 39.63 37.47 40.42 29.75 29.35 30.7 28.57 38.42 39.63"/><path class="cls-2" d="M49.06,36.4A1.88,1.88,0,0,1,47,38.12a2,2,0,0,1-1.57-2.26,1.87,1.87,0,0,1,2.06-1.72A2,2,0,0,1,49.06,36.4Z" transform="translate(-8 -9.88)"/><polygon class="cls-2" points="38.17 40.37 36.99 40.2 38.69 26.41 39.86 26.58 38.17 40.37"/><path class="cls-2" d="M56.52,43A1.73,1.73,0,0,1,54,42.64a2.14,2.14,0,0,1,.34-2.81,1.73,1.73,0,0,1,2.57.38A2.13,2.13,0,0,1,56.52,43Z" transform="translate(-8 -9.88)"/><polygon class="cls-2" points="37.51 40.7 36.8 39.66 46.92 31.22 47.63 32.26 37.51 40.7"/><path class="cls-2" d="M57.51,53.47a2,2,0,0,1-1.57-2.26A1.88,1.88,0,0,1,58,49.49a2,2,0,0,1,1.57,2.26A1.88,1.88,0,0,1,57.51,53.47Z" transform="translate(-8 -9.88)"/><polygon class="cls-2" points="36.84 40.42 37 39.14 49.61 40.99 49.45 42.28 36.84 40.42"/><path class="cls-2" d="M51.46,61.62a2.13,2.13,0,0,1,.34-2.81,1.73,1.73,0,0,1,2.57.38A2.13,2.13,0,0,1,54,62,1.73,1.73,0,0,1,51.46,61.62Z" transform="translate(-8 -9.88)"/><polygon class="cls-2" points="36.55 39.71 37.49 38.92 45.2 49.99 44.26 50.77 36.55 39.71"/><path class="cls-2" d="M41.9,62.71A1.87,1.87,0,0,1,44,61a2,2,0,0,1,1.57,2.25A1.86,1.86,0,0,1,43.47,65,2,2,0,0,1,41.9,62.71Z" transform="translate(-8 -9.88)"/><polygon class="cls-2" points="36.79 38.98 37.97 39.15 36.27 52.94 35.1 52.77 36.79 38.98"/><path class="cls-2" d="M34.44,56.09a1.73,1.73,0,0,1,2.57.38,2.12,2.12,0,0,1-.35,2.8,1.73,1.73,0,0,1-2.57-.37A2.14,2.14,0,0,1,34.44,56.09Z" transform="translate(-8 -9.88)"/><polygon class="cls-2" points="37.44 38.65 38.16 39.68 28.05 48.12 27.33 47.09 37.44 38.65"/><path class="cls-2" d="M33.45,45.64A2,2,0,0,1,35,47.89,1.87,1.87,0,0,1,33,49.61a2,2,0,0,1-1.58-2.25A1.87,1.87,0,0,1,33.45,45.64Z" transform="translate(-8 -9.88)"/><polygon class="cls-2" points="38.12 38.92 37.95 40.21 25.35 38.35 25.5 37.07 38.12 38.92"/><path class="cls-2" d="M48.41,47.51a4,4,0,0,1-.93,5.24,3.28,3.28,0,0,1-4.79-1,4,4,0,0,1,.93-5.23A3.27,3.27,0,0,1,48.41,47.51Z" transform="translate(-8 -9.88)"/><path class="cls-1" d="M219.55,66.4c3.58,5.8,2.18,13.67-3.13,17.58s-12.5,2.38-16.08-3.42S198.17,66.89,203.47,63,216,60.6,219.55,66.4Z" transform="translate(-8 -9.88)"/><path class="cls-1" d="M190.6,36.93c1,2.19.76,4.53-.59,5.53s-3.41.33-4.9-1.46c-3.38,5-3.08,13.21,1.17,20.09,5.08,8.25,13.9,11.48,19.68,7.21s6.35-14.4,1.26-22.65C203,38.75,196.12,35.37,190.6,36.93Z" transform="translate(-8 -9.88)"/><path class="cls-1" d="M236.08,42.65c-1.62,1.66-3.72,2.13-5,1s-1.3-3.46-.17-5.55c-5.38-2-12.45.7-17.21,7.18C208,53.05,207.8,63.2,213.24,68s14.46,2.36,20.16-5.39C238.16,56.1,239.09,47.94,236.08,42.65Z" transform="translate(-8 -9.88)"/><path class="cls-1" d="M245.57,89.42c-2-1.06-3.15-3-2.64-4.75s2.49-2.56,4.68-2.15c-.16-6.22-5-12.48-12.24-15-8.66-3.07-17.42.32-19.57,7.58s3.11,15.62,11.77,18.69C234.8,96.32,242.11,94.37,245.57,89.42Z" transform="translate(-8 -9.88)"/><path class="cls-1" d="M207.61,115.66c.28-2.41,1.62-4.24,3.26-4.26s3,1.75,3.37,4.15c5.33-2.18,9.18-9.23,9.07-17.53-.14-10-5.91-17.92-12.88-17.81s-12.52,8.28-12.38,18.22C198.16,106.75,202.21,113.68,207.61,115.66Z" transform="translate(-8 -9.88)"/><path class="cls-1" d="M172.65,84.89c2.18-.49,4.2.3,4.75,2s-.54,3.7-2.5,4.84c3.61,4.81,11,6.5,18.11,3.69,8.56-3.37,13.58-11.92,11.22-19.1S193,66.05,184.46,69.41C177.3,72.23,172.62,78.67,172.65,84.89Z" transform="translate(-8 -9.88)"/><path class="cls-2" d="M204.15,64a2.13,2.13,0,0,1-.34,2.81,1.73,1.73,0,0,1-2.57-.38,2.13,2.13,0,0,1,.34-2.81A1.73,1.73,0,0,1,204.15,64Z" transform="translate(-8 -9.88)"/><polygon class="cls-2" points="203.07 66.19 202.12 66.98 194.41 55.91 195.35 55.13 203.07 66.19"/><path class="cls-2" d="M213.71,63a1.87,1.87,0,0,1-2.06,1.72,2,2,0,0,1-1.57-2.25,1.87,1.87,0,0,1,2.06-1.72A2,2,0,0,1,213.71,63Z" transform="translate(-8 -9.88)"/><polygon class="cls-2" points="202.82 66.93 201.64 66.75 203.34 52.96 204.51 53.13 202.82 66.93"/><path class="cls-2" d="M221.17,69.58a1.73,1.73,0,0,1-2.57-.38,2.13,2.13,0,0,1,.35-2.81,1.72,1.72,0,0,1,2.56.38A2.13,2.13,0,0,1,221.17,69.58Z" transform="translate(-8 -9.88)"/><polygon class="cls-2" points="202.17 67.25 201.45 66.22 211.57 57.78 212.28 58.82 202.17 67.25"/><path class="cls-2" d="M222.16,80a2,2,0,0,1-1.57-2.26,1.87,1.87,0,0,1,2.06-1.72,2,2,0,0,1,1.57,2.26A1.87,1.87,0,0,1,222.16,80Z" transform="translate(-8 -9.88)"/><polygon class="cls-2" points="201.5 66.98 201.65 65.69 214.26 67.55 214.1 68.84 201.5 66.98"/><path class="cls-2" d="M216.11,88.18a2.13,2.13,0,0,1,.34-2.81,1.73,1.73,0,0,1,2.57.38,2.13,2.13,0,0,1-.34,2.81A1.73,1.73,0,0,1,216.11,88.18Z" transform="translate(-8 -9.88)"/><polygon class="cls-2" points="201.2 66.27 202.14 65.48 209.86 76.55 208.91 77.33 201.2 66.27"/><path class="cls-2" d="M206.55,89.27a1.87,1.87,0,0,1,2.06-1.72,2,2,0,0,1,1.58,2.25,1.87,1.87,0,0,1-2.07,1.72A2,2,0,0,1,206.55,89.27Z" transform="translate(-8 -9.88)"/><polygon class="cls-2" points="201.44 65.53 202.62 65.71 200.92 79.49 199.75 79.32 201.44 65.53"/><path class="cls-2" d="M199.09,82.65a1.73,1.73,0,0,1,2.57.37,2.14,2.14,0,0,1-.34,2.81,1.74,1.74,0,0,1-2.57-.37A2.13,2.13,0,0,1,199.09,82.65Z" transform="translate(-8 -9.88)"/><polygon class="cls-2" points="202.1 65.21 202.81 66.24 192.7 74.67 191.98 73.64 202.1 65.21"/><path class="cls-2" d="M198.1,72.19a2,2,0,0,1,1.57,2.26,1.86,1.86,0,0,1-2.06,1.72A2,2,0,0,1,196,73.91,1.87,1.87,0,0,1,198.1,72.19Z" transform="translate(-8 -9.88)"/><polygon class="cls-2" points="202.77 65.48 202.61 66.77 190 64.91 190.16 63.63 202.77 65.48"/><path class="cls-2" d="M213.06,74.07a4,4,0,0,1-.93,5.24,3.28,3.28,0,0,1-4.79-1,4,4,0,0,1,.93-5.24A3.28,3.28,0,0,1,213.06,74.07Z" transform="translate(-8 -9.88)"/><path class="cls-1" d="M381.67,69.85c3.57,5.79,2.18,13.67-3.13,17.58S366,89.81,362.46,84s-2.18-13.67,3.13-17.58S378.09,64.05,381.67,69.85Z" transform="translate(-8 -9.88)"/><path class="cls-1" d="M352.72,40.38c1,2.18.76,4.52-.6,5.52s-3.41.34-4.9-1.46c-3.38,5-3.07,13.21,1.18,20.09,5.08,8.25,13.89,11.48,19.68,7.22s6.35-14.41,1.26-22.66C365.09,42.2,358.23,38.81,352.72,40.38Z" transform="translate(-8 -9.88)"/><path class="cls-1" d="M398.2,46.09c-1.62,1.66-3.72,2.13-5,1s-1.3-3.46-.18-5.54c-5.37-2.05-12.44.7-17.2,7.17-5.7,7.76-5.91,17.92-.47,22.69s14.47,2.37,20.17-5.39C400.28,59.55,401.2,51.38,398.2,46.09Z" transform="translate(-8 -9.88)"/><path class="cls-1" d="M407.68,92.87c-2-1.07-3.14-3.05-2.64-4.75s2.5-2.57,4.69-2.15c-.16-6.22-5-12.48-12.25-15-8.65-3.07-17.41.32-19.57,7.57S381,94.13,389.68,97.2C396.92,99.77,404.22,97.81,407.68,92.87Z" transform="translate(-8 -9.88)"/><path class="cls-1" d="M369.73,119.11c.28-2.41,1.62-4.24,3.26-4.27s3,1.76,3.37,4.15c5.33-2.17,9.18-9.22,9.06-17.53-.13-9.94-5.9-17.91-12.88-17.8S360,91.93,360.16,101.88C360.28,110.19,364.33,117.12,369.73,119.11Z" transform="translate(-8 -9.88)"/><path class="cls-1" d="M334.77,88.34c2.18-.49,4.19.3,4.75,2S339,94,337,95.16c3.61,4.81,11,6.5,18.1,3.69,8.57-3.37,13.59-11.91,11.23-19.09s-11.22-10.27-19.78-6.9C339.42,75.67,334.73,82.11,334.77,88.34Z" transform="translate(-8 -9.88)"/><path class="cls-2" d="M366.27,67.48a2.13,2.13,0,0,1-.35,2.81,1.72,1.72,0,0,1-2.56-.37,2.13,2.13,0,0,1,.34-2.81A1.73,1.73,0,0,1,366.27,67.48Z" transform="translate(-8 -9.88)"/><polygon class="cls-2" points="365.18 69.64 364.24 70.42 356.52 59.36 357.47 58.57 365.18 69.64"/><path class="cls-2" d="M375.83,66.4a1.88,1.88,0,0,1-2.06,1.72,2,2,0,0,1-1.58-2.26,1.89,1.89,0,0,1,2.07-1.72A2,2,0,0,1,375.83,66.4Z" transform="translate(-8 -9.88)"/><polygon class="cls-2" points="364.93 70.37 363.76 70.2 365.46 56.41 366.63 56.58 364.93 70.37"/><path class="cls-2" d="M383.29,73a1.73,1.73,0,0,1-2.57-.38,2.14,2.14,0,0,1,.34-2.81,1.73,1.73,0,0,1,2.57.38A2.13,2.13,0,0,1,383.29,73Z" transform="translate(-8 -9.88)"/><polygon class="cls-2" points="364.28 70.7 363.56 69.67 373.69 61.23 374.4 62.26 364.28 70.7"/><path class="cls-2" d="M384.28,83.47a2,2,0,0,1-1.57-2.25,1.88,1.88,0,0,1,2.06-1.73,2,2,0,0,1,1.57,2.26A1.87,1.87,0,0,1,384.28,83.47Z" transform="translate(-8 -9.88)"/><polygon class="cls-2" points="363.61 70.42 363.77 69.14 376.38 71 376.22 72.28 363.61 70.42"/><path class="cls-2" d="M378.22,91.62a2.13,2.13,0,0,1,.35-2.8,1.72,1.72,0,0,1,2.57.37,2.13,2.13,0,0,1-.35,2.81A1.73,1.73,0,0,1,378.22,91.62Z" transform="translate(-8 -9.88)"/><polygon class="cls-2" points="363.31 69.71 364.26 68.92 371.97 79.99 371.03 80.78 363.31 69.71"/><path class="cls-2" d="M368.67,92.71A1.87,1.87,0,0,1,370.73,91a2,2,0,0,1,1.57,2.26A1.88,1.88,0,0,1,370.24,95,2,2,0,0,1,368.67,92.71Z" transform="translate(-8 -9.88)"/><polygon class="cls-2" points="363.56 68.98 364.74 69.15 363.04 82.94 361.87 82.77 363.56 68.98"/><path class="cls-2" d="M361.21,86.09a1.73,1.73,0,0,1,2.57.38,2.13,2.13,0,0,1-.35,2.81,1.73,1.73,0,0,1-2.57-.38A2.13,2.13,0,0,1,361.21,86.09Z" transform="translate(-8 -9.88)"/><polygon class="cls-2" points="364.21 68.65 364.93 69.68 354.81 78.12 354.1 77.09 364.21 68.65"/><path class="cls-2" d="M360.22,75.64a2,2,0,0,1,1.57,2.26,1.87,1.87,0,0,1-2.06,1.71,2,2,0,0,1-1.58-2.25A1.87,1.87,0,0,1,360.22,75.64Z" transform="translate(-8 -9.88)"/><polygon class="cls-2" points="364.88 68.92 364.72 70.21 352.12 68.35 352.27 67.07 364.88 68.92"/><path class="cls-2" d="M375.18,77.52a4,4,0,0,1-.93,5.23,3.27,3.27,0,0,1-4.79-1,4,4,0,0,1,.93-5.23A3.28,3.28,0,0,1,375.18,77.52Z" transform="translate(-8 -9.88)"/><path class="cls-1" d="M477.52,39.73c3.58,5.79,2.18,13.67-3.13,17.58s-12.5,2.38-16.08-3.42-2.17-13.67,3.13-17.58S474,33.92,477.52,39.73Z" transform="translate(-8 -9.88)"/><path class="cls-1" d="M448.57,10.26c1,2.18.77,4.52-.59,5.52s-3.41.34-4.9-1.46c-3.38,5-3.08,13.21,1.17,20.09,5.09,8.25,13.9,11.48,19.68,7.22S470.28,27.22,465.2,19C460.94,12.08,454.09,8.69,448.57,10.26Z" transform="translate(-8 -9.88)"/><path class="cls-1" d="M494.06,16c-1.62,1.66-3.73,2.13-5,1s-1.31-3.46-.18-5.54c-5.37-2-12.45.7-17.21,7.17-5.69,7.76-5.9,17.92-.46,22.69s14.47,2.37,20.16-5.39C496.13,29.42,497.06,21.26,494.06,16Z" transform="translate(-8 -9.88)"/><path class="cls-1" d="M503.54,62.75c-2-1.07-3.15-3-2.64-4.75s2.5-2.57,4.68-2.15c-.16-6.22-5-12.48-12.24-15-8.66-3.08-17.42.31-19.57,7.57s3.11,15.63,11.77,18.7C492.77,69.65,500.08,67.69,503.54,62.75Z" transform="translate(-8 -9.88)"/><path class="cls-1" d="M465.58,89c.28-2.41,1.62-4.24,3.26-4.27s3,1.75,3.37,4.15c5.34-2.17,9.18-9.22,9.07-17.53-.14-9.94-5.9-17.91-12.88-17.8S455.88,61.81,456,71.76C456.13,80.07,460.18,87,465.58,89Z" transform="translate(-8 -9.88)"/><path class="cls-1" d="M430.62,58.22c2.18-.49,4.2.3,4.75,2s-.53,3.7-2.49,4.84c3.6,4.81,10.95,6.5,18.1,3.69,8.56-3.37,13.59-11.91,11.22-19.09S451,39.37,442.43,42.74C435.27,45.55,430.59,52,430.62,58.22Z" transform="translate(-8 -9.88)"/><path class="cls-2" d="M462.13,37.36a2.14,2.14,0,0,1-.35,2.81,1.73,1.73,0,0,1-2.57-.37,2.14,2.14,0,0,1,.35-2.82A1.74,1.74,0,0,1,462.13,37.36Z" transform="translate(-8 -9.88)"/><polygon class="cls-2" points="461.04 39.52 460.09 40.3 452.38 29.23 453.32 28.45 461.04 39.52"/><path class="cls-2" d="M471.68,36.28A1.87,1.87,0,0,1,469.62,38a2,2,0,0,1-1.57-2.26A1.88,1.88,0,0,1,470.11,34,2,2,0,0,1,471.68,36.28Z" transform="translate(-8 -9.88)"/><polygon class="cls-2" points="460.79 40.25 459.61 40.08 461.31 26.29 462.49 26.46 460.79 40.25"/><path class="cls-2" d="M479.14,42.9a1.73,1.73,0,0,1-2.57-.38,2.13,2.13,0,0,1,.35-2.81,1.73,1.73,0,0,1,2.57.38A2.13,2.13,0,0,1,479.14,42.9Z" transform="translate(-8 -9.88)"/><polygon class="cls-2" points="460.14 40.58 459.42 39.54 469.54 31.11 470.26 32.14 460.14 40.58"/><path class="cls-2" d="M480.13,53.35a2,2,0,0,1-1.57-2.26,1.88,1.88,0,0,1,2.06-1.72,2,2,0,0,1,1.58,2.26A1.88,1.88,0,0,1,480.13,53.35Z" transform="translate(-8 -9.88)"/><polygon class="cls-2" points="459.47 40.3 459.63 39.02 472.24 40.87 472.08 42.16 459.47 40.3"/><path class="cls-2" d="M474.08,61.5a2.13,2.13,0,0,1,.34-2.8,1.72,1.72,0,0,1,2.57.37,2.13,2.13,0,0,1-.34,2.81A1.73,1.73,0,0,1,474.08,61.5Z" transform="translate(-8 -9.88)"/><polygon class="cls-2" points="459.17 39.59 460.11 38.8 467.83 49.87 466.88 50.65 459.17 39.59"/><path class="cls-2" d="M464.52,62.59a1.87,1.87,0,0,1,2.06-1.72,2,2,0,0,1,1.58,2.25,1.89,1.89,0,0,1-2.07,1.73A2,2,0,0,1,464.52,62.59Z" transform="translate(-8 -9.88)"/><polygon class="cls-2" points="459.42 38.86 460.59 39.03 458.89 52.82 457.72 52.65 459.42 38.86"/><path class="cls-2" d="M457.06,56a1.73,1.73,0,0,1,2.57.38,2.13,2.13,0,0,1-.34,2.81,1.74,1.74,0,0,1-2.57-.38A2.14,2.14,0,0,1,457.06,56Z" transform="translate(-8 -9.88)"/><polygon class="cls-2" points="460.07 38.53 460.79 39.56 450.67 48 449.95 46.97 460.07 38.53"/><path class="cls-2" d="M456.07,45.52a2,2,0,0,1,1.57,2.25,1.86,1.86,0,0,1-2.06,1.72A2,2,0,0,1,454,47.24,1.87,1.87,0,0,1,456.07,45.52Z" transform="translate(-8 -9.88)"/><polygon class="cls-2" points="460.74 38.8 460.58 40.09 447.97 38.23 448.13 36.95 460.74 38.8"/><path class="cls-2" d="M471,47.39a4,4,0,0,1-.93,5.24,3.28,3.28,0,0,1-4.79-1,4,4,0,0,1,.94-5.23A3.26,3.26,0,0,1,471,47.39Z" transform="translate(-8 -9.88)"/><path class="cls-1" d="M137.94,74.13c2.18-1,4.37-.78,5.17.69s0,3.7-1.9,5.29c4.38,3.71,12.19,3.45,19.16-1.09,8.36-5.43,12.35-14.94,8.93-21.24s-13-7-21.33-1.56C141,60.76,137.05,68.15,137.94,74.13Z" transform="translate(-8 -9.88)"/><path class="cls-1" d="M304.1,16.59c1.62,1.89,2.14,4.23,1.14,5.55S302,23.34,300,22c-1.72,5.76,1.11,13.71,7.36,19.38,7.47,6.79,17,7.72,21.29,2.09s1.69-15.71-5.79-22.5C316.64,15.24,309,13.66,304.1,16.59Z" transform="translate(-8 -9.88)"/><path class="cls-1" d="M527.06,91.1c-1.93,1.49-4.12,1.74-5.19.48s-.65-3.63.87-5.61c-5-2.64-12.57-.63-18.55,5.37-7.15,7.19-9.28,17.4-4.75,22.79s14,3.94,21.18-3.25C526.6,104.87,529.06,96.75,527.06,91.1Z" transform="translate(-8 -9.88)"/></svg>