<svg id="レイヤー_1" data-name="レイヤー 1" xmlns="http://www.w3.org/2000/svg" viewBox="0 0 500 160"><defs><style>.cls-1{fill:#f9dbe8;}.cls-2{fill:#fff;}</style></defs><path class="cls-1" d="M27.62,123.39c1.14,1.86,1.11,4-.18,5.2s-3.4.88-5-.53c-3,5.18-2.08,12.71,2.71,18.37,5.74,6.78,14.85,8.3,20.33,3.4s5.28-14.36-.46-21.14C40.19,123,33,121,27.62,123.39Z"/><path class="cls-1" d="M473.87,107A11.25,11.25,0,0,1,471,122.35a10.61,10.61,0,0,1-15-3A11.25,11.25,0,0,1,458.9,104,10.61,10.61,0,0,1,473.87,107Z"/><path class="cls-1" d="M446.92,81.22c.9,1.91.71,4-.55,4.83s-3.18.29-4.57-1.28c-3.14,4.38-2.86,11.55,1.1,17.57,4.73,7.21,12.94,10,18.32,6.3s5.91-12.59,1.18-19.8C458.44,82.81,452.06,79.85,446.92,81.22Z"/><path class="cls-1" d="M489.27,86.21c-1.51,1.45-3.47,1.87-4.66.89s-1.21-3-.16-4.85c-5-1.79-11.59.61-16,6.27-5.3,6.78-5.5,15.66-.43,19.84s13.47,2.07,18.77-4.72C491.2,98,492.06,90.84,489.27,86.21Z"/><path class="cls-1" d="M498.1,127.11c-1.86-.93-2.93-2.67-2.46-4.16s2.32-2.24,4.36-1.87c-.15-5.44-4.67-10.91-11.4-13.15-8.06-2.69-16.21.27-18.22,6.62s2.9,13.66,11,16.34C488.07,133.14,494.88,131.44,498.1,127.11Z"/><path class="cls-1" d="M462.76,150.05c.26-2.11,1.51-3.71,3-3.73s2.82,1.53,3.14,3.63c5-1.9,8.55-8.07,8.44-15.32-.13-8.7-5.49-15.67-12-15.57s-11.66,7.23-11.53,15.93C454,142.26,457.73,148.32,462.76,150.05Z"/><path class="cls-1" d="M430.21,123.15c2-.43,3.9.26,4.42,1.74s-.5,3.23-2.33,4.22c3.36,4.21,10.2,5.69,16.86,3.23,8-2.94,12.65-10.42,10.45-16.69s-10.44-9-18.41-6C434.54,112.08,430.17,117.7,430.21,123.15Z"/><path class="cls-2" d="M459.54,104.92a1.78,1.78,0,0,1-.32,2.45,1.67,1.67,0,0,1-2.39-.33,1.78,1.78,0,0,1,.32-2.46A1.68,1.68,0,0,1,459.54,104.92Z"/><polygon class="cls-2" points="465.98 115.44 465.1 116.12 457.91 106.45 458.79 105.76 465.98 115.44"/><path class="cls-2" d="M468.44,104a1.72,1.72,0,0,1-1.92,1.5,1.75,1.75,0,0,1-1.47-2A1.72,1.72,0,0,1,467,102,1.75,1.75,0,0,1,468.44,104Z"/><polygon class="cls-2" points="465.74 116.08 464.65 115.93 466.23 103.87 467.32 104.02 465.74 116.08"/><path class="cls-2" d="M475.38,109.76a1.69,1.69,0,0,1-2.39-.33,1.79,1.79,0,0,1,.32-2.46,1.67,1.67,0,0,1,2.39.33A1.78,1.78,0,0,1,475.38,109.76Z"/><polygon class="cls-2" points="465.14 116.36 464.47 115.46 473.89 108.08 474.56 108.99 465.14 116.36"/><path class="cls-2" d="M476.31,118.89a1.75,1.75,0,0,1-1.47-2,1.72,1.72,0,0,1,1.92-1.5,1.75,1.75,0,0,1,1.47,2A1.72,1.72,0,0,1,476.31,118.89Z"/><polygon class="cls-2" points="464.51 116.13 464.66 115 476.4 116.63 476.25 117.75 464.51 116.13"/><path class="cls-2" d="M470.67,126a1.78,1.78,0,0,1,.32-2.45,1.68,1.68,0,0,1,2.39.32,1.78,1.78,0,0,1-.32,2.46A1.67,1.67,0,0,1,470.67,126Z"/><polygon class="cls-2" points="464.23 115.5 465.11 114.81 472.3 124.49 471.42 125.18 464.23 115.5"/><path class="cls-2" d="M461.77,127a1.72,1.72,0,0,1,1.92-1.5,1.76,1.76,0,0,1,1.47,2,1.72,1.72,0,0,1-1.93,1.5A1.74,1.74,0,0,1,461.77,127Z"/><polygon class="cls-2" points="464.46 114.86 465.56 115.01 463.98 127.07 462.89 126.92 464.46 114.86"/><path class="cls-2" d="M454.82,121.18a1.69,1.69,0,0,1,2.4.33,1.79,1.79,0,0,1-.32,2.46,1.69,1.69,0,0,1-2.4-.33A1.8,1.8,0,0,1,454.82,121.18Z"/><polygon class="cls-2" points="465.07 114.58 465.74 115.48 456.32 122.85 455.65 121.95 465.07 114.58"/><path class="cls-2" d="M453.9,112.05a1.74,1.74,0,0,1,1.46,2,1.7,1.7,0,0,1-1.91,1.5,1.75,1.75,0,0,1-1.47-2A1.72,1.72,0,0,1,453.9,112.05Z"/><polygon class="cls-2" points="465.7 114.81 465.55 115.94 453.81 114.31 453.95 113.19 465.7 114.81"/><path class="cls-2" d="M467.83,113.69a3.35,3.35,0,0,1-.86,4.57,3.16,3.16,0,0,1-4.46-.89,3.34,3.34,0,0,1,.87-4.57A3.15,3.15,0,0,1,467.83,113.69Z"/><path class="cls-1" d="M43.67,26.09a11.27,11.27,0,0,1-2.91,15.38,10.63,10.63,0,0,1-15-3A11.27,11.27,0,0,1,28.7,23.1,10.61,10.61,0,0,1,43.67,26.09Z"/><path class="cls-1" d="M16.71.33c.91,1.91.71,4-.55,4.83S13,5.45,11.6,3.88C8.45,8.26,8.73,15.43,12.69,21.45c4.73,7.21,12.94,10,18.32,6.31S36.93,15.16,32.19,8C28.23,1.92,21.85-1,16.71.33Z"/><path class="cls-1" d="M59.06,5.32c-1.51,1.46-3.46,1.87-4.65.89s-1.22-3-.17-4.85c-5-1.79-11.59.61-16,6.28-5.3,6.78-5.5,15.66-.43,19.83s13.47,2.07,18.77-4.71C61,17.09,61.86,10,59.06,5.32Z"/><path class="cls-1" d="M67.89,46.22C66,45.29,65,43.56,65.43,42.07s2.33-2.25,4.36-1.88c-.14-5.44-4.67-10.91-11.4-13.15-8-2.69-16.21.28-18.22,6.62s2.9,13.66,11,16.35C57.87,52.26,64.67,50.55,67.89,46.22Z"/><path class="cls-1" d="M32.55,69.16c.26-2.1,1.51-3.7,3-3.73S38.4,67,38.73,69.06c5-1.9,8.54-8.06,8.44-15.32-.13-8.7-5.5-15.67-12-15.57S23.52,45.4,23.64,54.1C23.75,61.37,27.52,67.43,32.55,69.16Z"/><path class="cls-1" d="M0,42.26c2-.43,3.91.26,4.42,1.74s-.5,3.23-2.32,4.22C5.46,52.43,12.3,53.91,19,51.45c8-2.94,12.65-10.41,10.46-16.69s-10.45-9-18.42-6C4.33,31.19,0,36.82,0,42.26Z"/><path class="cls-2" d="M29.33,24A1.78,1.78,0,0,1,29,26.48a1.66,1.66,0,0,1-2.39-.33,1.78,1.78,0,0,1,.32-2.45A1.67,1.67,0,0,1,29.33,24Z"/><polygon class="cls-2" points="35.77 34.55 34.89 35.23 27.7 25.56 28.58 24.88 35.77 34.55"/><path class="cls-2" d="M38.23,23.08a1.71,1.71,0,0,1-1.92,1.5,1.74,1.74,0,0,1-1.46-2,1.71,1.71,0,0,1,1.92-1.5A1.74,1.74,0,0,1,38.23,23.08Z"/><polygon class="cls-2" points="35.54 35.19 34.44 35.04 36.02 22.98 37.12 23.13 35.54 35.19"/><path class="cls-2" d="M45.18,28.87a1.68,1.68,0,0,1-2.4-.33,1.79,1.79,0,0,1,.33-2.46,1.67,1.67,0,0,1,2.39.33A1.8,1.8,0,0,1,45.18,28.87Z"/><polygon class="cls-2" points="34.93 35.48 34.26 34.57 43.68 27.2 44.35 28.1 34.93 35.48"/><path class="cls-2" d="M46.1,38a1.74,1.74,0,0,1-1.46-2,1.71,1.71,0,0,1,1.92-1.5,1.75,1.75,0,0,1,1.46,2A1.72,1.72,0,0,1,46.1,38Z"/><polygon class="cls-2" points="34.3 35.24 34.45 34.11 46.2 35.74 46.05 36.86 34.3 35.24"/><path class="cls-2" d="M40.46,45.13a1.78,1.78,0,0,1,.32-2.45,1.68,1.68,0,0,1,2.4.33,1.8,1.8,0,0,1-.32,2.46A1.69,1.69,0,0,1,40.46,45.13Z"/><polygon class="cls-2" points="34.03 34.61 34.91 33.93 42.09 43.6 41.21 44.29 34.03 34.61"/><path class="cls-2" d="M31.56,46.08a1.72,1.72,0,0,1,1.92-1.5A1.76,1.76,0,0,1,33,48.06,1.77,1.77,0,0,1,31.56,46.08Z"/><polygon class="cls-2" points="34.26 33.97 35.35 34.12 33.77 46.18 32.68 46.03 34.26 33.97"/><path class="cls-2" d="M24.62,40.3a1.66,1.66,0,0,1,2.39.33,1.78,1.78,0,0,1-.32,2.45,1.67,1.67,0,0,1-2.39-.33A1.78,1.78,0,0,1,24.62,40.3Z"/><polygon class="cls-2" points="34.86 33.69 35.53 34.59 26.11 41.97 25.44 41.06 34.86 33.69"/><path class="cls-2" d="M23.69,31.16a1.74,1.74,0,0,1,1.47,2,1.71,1.71,0,0,1-1.92,1.5,1.75,1.75,0,0,1-1.47-2A1.72,1.72,0,0,1,23.69,31.16Z"/><polygon class="cls-2" points="35.49 33.92 35.34 35.05 23.6 33.43 23.75 32.3 35.49 33.92"/><path class="cls-2" d="M37.62,32.8a3.33,3.33,0,0,1-.86,4.57,3.17,3.17,0,0,1-4.46-.88,3.36,3.36,0,0,1,.87-4.58A3.15,3.15,0,0,1,37.62,32.8Z"/><path class="cls-1" d="M119.72,105.65A11.25,11.25,0,0,1,116.81,121a10.61,10.61,0,0,1-15-3,11.25,11.25,0,0,1,2.91-15.37A10.61,10.61,0,0,1,119.72,105.65Z"/><path class="cls-1" d="M92.77,79.89c.9,1.91.71,4-.56,4.83S89,85,87.65,83.44C84.5,87.82,84.79,95,88.74,101c4.74,7.21,12.94,10,18.33,6.3s5.91-12.59,1.17-19.8C104.28,81.48,97.9,78.52,92.77,79.89Z"/><path class="cls-1" d="M135.11,84.88c-1.5,1.45-3.46,1.87-4.65.89s-1.22-3-.17-4.85c-5-1.79-11.59.61-16,6.27-5.3,6.78-5.49,15.66-.43,19.84s13.47,2.07,18.78-4.72C137.05,96.64,137.91,89.51,135.11,84.88Z"/><path class="cls-1" d="M143.94,125.78c-1.85-.93-2.93-2.67-2.45-4.16s2.32-2.24,4.36-1.88c-.15-5.43-4.68-10.91-11.4-13.14-8.06-2.69-16.22.27-18.22,6.62s2.89,13.66,11,16.34C133.92,131.81,140.72,130.1,143.94,125.78Z"/><path class="cls-1" d="M108.6,148.72c.26-2.11,1.51-3.71,3-3.73s2.81,1.53,3.14,3.63c5-1.9,8.54-8.07,8.44-15.33-.13-8.69-5.5-15.66-12-15.56S99.57,125,99.7,133.66C99.8,140.93,103.57,147,108.6,148.72Z"/><path class="cls-1" d="M76.05,121.82c2-.43,3.91.26,4.42,1.74s-.5,3.23-2.32,4.22C81.51,132,88.35,133.47,95,131c8-2.94,12.65-10.42,10.45-16.69s-10.45-9-18.42-6C80.38,110.75,76,116.37,76.05,121.82Z"/><path class="cls-2" d="M105.39,103.59a1.78,1.78,0,0,1-.33,2.45,1.67,1.67,0,0,1-2.39-.33,1.79,1.79,0,0,1,.32-2.46A1.69,1.69,0,0,1,105.39,103.59Z"/><polygon class="cls-2" points="111.82 114.11 110.94 114.79 103.76 105.12 104.64 104.43 111.82 114.11"/><path class="cls-2" d="M114.28,102.64a1.71,1.71,0,0,1-1.92,1.5,1.74,1.74,0,0,1-1.46-2,1.71,1.71,0,0,1,1.92-1.5A1.74,1.74,0,0,1,114.28,102.64Z"/><polygon class="cls-2" points="111.59 114.75 110.49 114.6 112.08 102.54 113.17 102.69 111.59 114.75"/><path class="cls-2" d="M121.23,108.43a1.69,1.69,0,0,1-2.39-.33,1.79,1.79,0,0,1,.32-2.46,1.67,1.67,0,0,1,2.39.33A1.79,1.79,0,0,1,121.23,108.43Z"/><polygon class="cls-2" points="110.98 115.03 110.31 114.13 119.74 106.75 120.4 107.66 110.98 115.03"/><path class="cls-2" d="M122.15,117.56a1.74,1.74,0,0,1-1.46-2,1.71,1.71,0,0,1,1.92-1.5,1.74,1.74,0,0,1,1.46,2A1.71,1.71,0,0,1,122.15,117.56Z"/><polygon class="cls-2" points="110.36 114.79 110.5 113.67 122.25 115.29 122.1 116.42 110.36 114.79"/><path class="cls-2" d="M116.51,124.69a1.78,1.78,0,0,1,.33-2.45,1.68,1.68,0,0,1,2.39.32,1.79,1.79,0,0,1-.32,2.46A1.68,1.68,0,0,1,116.51,124.69Z"/><polygon class="cls-2" points="110.08 114.17 110.96 113.48 118.14 123.16 117.26 123.84 110.08 114.17"/><path class="cls-2" d="M107.62,125.64a1.71,1.71,0,0,1,1.92-1.5,1.74,1.74,0,0,1,1.46,2,1.71,1.71,0,0,1-1.92,1.5A1.74,1.74,0,0,1,107.62,125.64Z"/><polygon class="cls-2" points="110.31 113.53 111.41 113.68 109.82 125.74 108.73 125.59 110.31 113.53"/><path class="cls-2" d="M100.67,119.85a1.68,1.68,0,0,1,2.39.33,1.79,1.79,0,0,1-.32,2.46,1.68,1.68,0,0,1-2.39-.33A1.79,1.79,0,0,1,100.67,119.85Z"/><polygon class="cls-2" points="110.92 113.25 111.59 114.15 102.17 121.52 101.5 120.62 110.92 113.25"/><path class="cls-2" d="M99.75,110.72a1.74,1.74,0,0,1,1.46,2,1.71,1.71,0,0,1-1.92,1.5,1.74,1.74,0,0,1-1.46-2A1.71,1.71,0,0,1,99.75,110.72Z"/><polygon class="cls-2" points="111.54 113.48 111.39 114.61 99.65 112.98 99.8 111.86 111.54 113.48"/><path class="cls-2" d="M113.68,112.36a3.35,3.35,0,0,1-.87,4.57,3.16,3.16,0,0,1-4.46-.89,3.35,3.35,0,0,1,.87-4.57A3.16,3.16,0,0,1,113.68,112.36Z"/><path class="cls-1" d="M224,49.31a11.27,11.27,0,0,1-2.92,15.38,10.62,10.62,0,0,1-15-3A11.28,11.28,0,0,1,209,46.32,10.62,10.62,0,0,1,224,49.31Z"/><path class="cls-1" d="M197,23.55c.9,1.91.71,3.95-.55,4.83s-3.18.29-4.57-1.28c-3.14,4.38-2.86,11.55,1.1,17.57,4.73,7.21,12.94,10,18.32,6.31s5.91-12.6,1.18-19.81C208.54,25.14,202.16,22.18,197,23.55Z"/><path class="cls-1" d="M239.37,28.54c-1.51,1.46-3.47,1.87-4.65.89s-1.22-3-.17-4.85c-5-1.79-11.59.61-16,6.28-5.3,6.78-5.5,15.66-.43,19.83s13.47,2.07,18.77-4.71C241.3,40.31,242.17,33.17,239.37,28.54Z"/><path class="cls-1" d="M248.2,69.44c-1.86-.93-2.93-2.66-2.46-4.15s2.33-2.25,4.36-1.88C250,58,245.43,52.5,238.7,50.26c-8-2.69-16.21.28-18.22,6.62s2.9,13.66,11,16.35C238.18,75.48,245,73.77,248.2,69.44Z"/><path class="cls-1" d="M212.86,92.38c.26-2.1,1.51-3.7,3-3.73s2.82,1.54,3.14,3.63c5-1.9,8.55-8.06,8.44-15.32-.12-8.7-5.49-15.67-12-15.57S203.83,68.62,204,77.32C204.06,84.59,207.83,90.65,212.86,92.38Z"/><path class="cls-1" d="M180.31,65.48c2-.43,3.91.26,4.42,1.74s-.5,3.23-2.32,4.23c3.36,4.2,10.2,5.68,16.85,3.22,8-2.94,12.65-10.41,10.45-16.69s-10.44-9-18.41-6C184.64,54.41,180.28,60,180.31,65.48Z"/><path class="cls-2" d="M209.64,47.25a1.78,1.78,0,0,1-.32,2.45,1.67,1.67,0,0,1-2.39-.32,1.78,1.78,0,0,1,.32-2.46A1.67,1.67,0,0,1,209.64,47.25Z"/><polygon class="cls-2" points="216.08 57.77 215.2 58.45 208.01 48.78 208.89 48.1 216.08 57.77"/><path class="cls-2" d="M218.54,46.3a1.71,1.71,0,1,1-1.46-2A1.75,1.75,0,0,1,218.54,46.3Z"/><polygon class="cls-2" points="215.84 58.41 214.75 58.26 216.33 46.2 217.43 46.35 215.84 58.41"/><path class="cls-2" d="M225.48,52.09a1.67,1.67,0,0,1-2.39-.33,1.79,1.79,0,0,1,.32-2.46,1.67,1.67,0,0,1,2.39.33A1.78,1.78,0,0,1,225.48,52.09Z"/><polygon class="cls-2" points="215.24 58.7 214.57 57.79 223.99 50.42 224.66 51.32 215.24 58.7"/><path class="cls-2" d="M226.41,61.22a1.73,1.73,0,0,1-1.46-2,1.71,1.71,0,0,1,1.92-1.5,1.75,1.75,0,0,1,1.46,2A1.72,1.72,0,0,1,226.41,61.22Z"/><polygon class="cls-2" points="214.61 58.46 214.76 57.33 226.5 58.96 226.35 60.08 214.61 58.46"/><path class="cls-2" d="M220.77,68.35a1.78,1.78,0,0,1,.32-2.45,1.67,1.67,0,0,1,2.39.33,1.78,1.78,0,0,1-.32,2.46A1.67,1.67,0,0,1,220.77,68.35Z"/><polygon class="cls-2" points="214.34 57.83 215.22 57.15 222.4 66.82 221.52 67.51 214.34 57.83"/><path class="cls-2" d="M211.87,69.3a1.72,1.72,0,0,1,1.92-1.5,1.76,1.76,0,1,1-1.92,1.5Z"/><polygon class="cls-2" points="214.57 57.19 215.66 57.34 214.08 69.4 212.99 69.25 214.57 57.19"/><path class="cls-2" d="M204.93,63.52a1.66,1.66,0,0,1,2.39.33A1.78,1.78,0,0,1,207,66.3a1.67,1.67,0,0,1-2.39-.33A1.78,1.78,0,0,1,204.93,63.52Z"/><polygon class="cls-2" points="215.17 56.91 215.84 57.81 206.42 65.19 205.75 64.28 215.17 56.91"/><path class="cls-2" d="M204,54.38a1.75,1.75,0,0,1,1.47,2,1.72,1.72,0,0,1-1.92,1.5,1.74,1.74,0,0,1-1.47-2A1.72,1.72,0,0,1,204,54.38Z"/><polygon class="cls-2" points="215.8 57.14 215.65 58.27 203.91 56.65 204.06 55.52 215.8 57.14"/><path class="cls-2" d="M217.93,56a3.34,3.34,0,0,1-.86,4.57,3.17,3.17,0,0,1-4.46-.88,3.36,3.36,0,0,1,.87-4.58A3.15,3.15,0,0,1,217.93,56Z"/><path class="cls-1" d="M328.23,116.92a11.25,11.25,0,0,1-2.91,15.37,10.61,10.61,0,0,1-15-3,11.25,11.25,0,0,1,2.91-15.37A10.61,10.61,0,0,1,328.23,116.92Z"/><path class="cls-1" d="M301.28,91.15c.9,1.91.71,4-.56,4.83s-3.17.3-4.56-1.27c-3.14,4.37-2.86,11.55,1.09,17.56,4.74,7.22,12.94,10,18.33,6.31s5.91-12.6,1.18-19.81C312.8,92.74,306.41,89.79,301.28,91.15Z"/><path class="cls-1" d="M343.63,96.15C342.12,97.6,340.16,98,339,97s-1.21-3-.16-4.86c-5-1.78-11.59.62-16,6.28-5.31,6.78-5.5,15.66-.44,19.84s13.47,2.06,18.78-4.72C345.56,107.91,346.42,100.78,343.63,96.15Z"/><path class="cls-1" d="M352.46,137.05c-1.86-.94-2.93-2.67-2.46-4.16s2.32-2.24,4.36-1.88c-.15-5.44-4.68-10.91-11.4-13.15-8.06-2.68-16.22.28-18.22,6.63s2.9,13.66,11,16.34C342.43,143.08,349.23,141.37,352.46,137.05Z"/><path class="cls-1" d="M317.11,160c.27-2.11,1.51-3.71,3-3.73s2.82,1.53,3.14,3.63c5-1.9,8.55-8.07,8.44-15.33-.13-8.69-5.5-15.66-12-15.57s-11.66,7.24-11.53,15.93C308.32,152.19,312.09,158.25,317.11,160Z"/><path class="cls-1" d="M284.57,133.09c2-.43,3.9.26,4.42,1.73s-.5,3.24-2.33,4.23c3.36,4.21,10.2,5.69,16.86,3.23,8-2.95,12.65-10.42,10.45-16.7s-10.44-9-18.41-6C288.89,122,284.53,127.64,284.57,133.09Z"/><path class="cls-2" d="M313.9,114.85a1.79,1.79,0,0,1-.33,2.46,1.67,1.67,0,0,1-2.39-.33,1.8,1.8,0,0,1,.32-2.46A1.69,1.69,0,0,1,313.9,114.85Z"/><polygon class="cls-2" points="320.33 125.38 319.45 126.06 312.27 116.39 313.15 115.7 320.33 125.38"/><path class="cls-2" d="M322.79,113.9a1.71,1.71,0,0,1-1.91,1.51,1.75,1.75,0,0,1-1.47-2,1.72,1.72,0,0,1,1.92-1.51A1.75,1.75,0,0,1,322.79,113.9Z"/><polygon class="cls-2" points="320.1 126.02 319.01 125.86 320.59 113.81 321.68 113.96 320.1 126.02"/><path class="cls-2" d="M329.74,119.69a1.67,1.67,0,0,1-2.39-.33,1.78,1.78,0,0,1,.32-2.45,1.67,1.67,0,0,1,2.39.33A1.78,1.78,0,0,1,329.74,119.69Z"/><polygon class="cls-2" points="319.49 126.3 318.82 125.4 328.25 118.02 328.92 118.92 319.49 126.3"/><path class="cls-2" d="M330.67,128.83a1.76,1.76,0,1,1,1.91-1.5A1.71,1.71,0,0,1,330.67,128.83Z"/><polygon class="cls-2" points="318.87 126.06 319.02 124.94 330.76 126.56 330.61 127.69 318.87 126.06"/><path class="cls-2" d="M325,136a1.79,1.79,0,0,1,.32-2.46,1.68,1.68,0,0,1,2.39.33,1.79,1.79,0,0,1-.32,2.46A1.67,1.67,0,0,1,325,136Z"/><polygon class="cls-2" points="318.59 125.44 319.47 124.75 326.65 134.43 325.78 135.11 318.59 125.44"/><path class="cls-2" d="M316.13,136.91a1.7,1.7,0,0,1,1.92-1.5,1.74,1.74,0,0,1,1.46,2,1.71,1.71,0,0,1-1.92,1.5A1.74,1.74,0,0,1,316.13,136.91Z"/><polygon class="cls-2" points="318.82 124.8 319.92 124.95 318.34 137 317.24 136.85 318.82 124.8"/><path class="cls-2" d="M309.18,131.12a1.69,1.69,0,0,1,2.4.33,1.79,1.79,0,0,1-.33,2.46,1.68,1.68,0,0,1-2.39-.33A1.79,1.79,0,0,1,309.18,131.12Z"/><polygon class="cls-2" points="319.43 124.51 320.1 125.42 310.68 132.79 310.01 131.89 319.43 124.51"/><path class="cls-2" d="M308.26,122a1.75,1.75,0,0,1,1.46,2,1.71,1.71,0,0,1-1.92,1.5,1.74,1.74,0,0,1-1.46-2A1.72,1.72,0,0,1,308.26,122Z"/><polygon class="cls-2" points="320.05 124.75 319.9 125.88 308.17 124.25 308.31 123.13 320.05 124.75"/><path class="cls-2" d="M322.19,123.62a3.36,3.36,0,0,1-.87,4.58,3.15,3.15,0,0,1-4.45-.89,3.35,3.35,0,0,1,.86-4.58A3.17,3.17,0,0,1,322.19,123.62Z"/><path class="cls-1" d="M372.13,55a11.25,11.25,0,0,1-2.91,15.37,10.61,10.61,0,0,1-15-3A11.25,11.25,0,0,1,357.16,52,10.61,10.61,0,0,1,372.13,55Z"/><path class="cls-1" d="M345.18,29.18c.9,1.91.71,4-.56,4.83s-3.17.3-4.56-1.27c-3.15,4.37-2.86,11.54,1.09,17.56,4.74,7.22,12.94,10,18.33,6.31s5.91-12.6,1.17-19.81C356.69,30.77,350.31,27.82,345.18,29.18Z"/><path class="cls-1" d="M387.52,34.18c-1.5,1.45-3.46,1.86-4.65.88s-1.22-3-.17-4.85c-5-1.79-11.59.62-16,6.28-5.3,6.78-5.49,15.66-.43,19.84s13.47,2.06,18.78-4.72C389.46,45.94,390.32,38.8,387.52,34.18Z"/><path class="cls-1" d="M396.35,75.08c-1.85-.94-2.93-2.67-2.45-4.16s2.32-2.24,4.36-1.88c-.15-5.44-4.68-10.91-11.4-13.15-8.06-2.68-16.22.28-18.22,6.63s2.89,13.66,10.95,16.34C386.33,81.11,393.13,79.4,396.35,75.08Z"/><path class="cls-1" d="M361,98c.26-2.11,1.51-3.71,3-3.73s2.81,1.53,3.14,3.62c5-1.9,8.54-8.06,8.44-15.32-.13-8.69-5.5-15.66-12-15.57S352,74.26,352.11,83C352.21,90.22,356,96.28,361,98Z"/><path class="cls-1" d="M328.46,71.11c2-.42,3.91.27,4.42,1.74s-.5,3.23-2.32,4.23c3.36,4.21,10.2,5.68,16.86,3.23,8-3,12.65-10.42,10.45-16.7s-10.44-9-18.42-6C332.79,60,328.43,65.67,328.46,71.11Z"/><path class="cls-2" d="M357.8,52.88a1.79,1.79,0,0,1-.33,2.46,1.67,1.67,0,0,1-2.39-.33,1.79,1.79,0,0,1,.32-2.46A1.69,1.69,0,0,1,357.8,52.88Z"/><polygon class="cls-2" points="364.23 63.4 363.35 64.09 356.17 54.41 357.05 53.73 364.23 63.4"/><path class="cls-2" d="M366.69,51.93a1.71,1.71,0,0,1-1.92,1.51,1.74,1.74,0,0,1-1.46-2A1.72,1.72,0,0,1,365.23,50,1.74,1.74,0,0,1,366.69,51.93Z"/><polygon class="cls-2" points="364 64.04 362.9 63.89 364.49 51.84 365.58 51.99 364 64.04"/><path class="cls-2" d="M373.64,57.72a1.67,1.67,0,0,1-2.39-.33,1.78,1.78,0,0,1,.32-2.45,1.68,1.68,0,0,1,2.39.32A1.79,1.79,0,0,1,373.64,57.72Z"/><polygon class="cls-2" points="363.39 64.33 362.72 63.43 372.15 56.05 372.81 56.95 363.39 64.33"/><path class="cls-2" d="M374.56,66.86a1.74,1.74,0,0,1-1.46-2A1.71,1.71,0,0,1,375,63.38a1.74,1.74,0,0,1,1.46,2A1.71,1.71,0,0,1,374.56,66.86Z"/><polygon class="cls-2" points="362.77 64.09 362.92 62.97 374.66 64.59 374.51 65.71 362.77 64.09"/><path class="cls-2" d="M368.92,74a1.79,1.79,0,0,1,.33-2.46,1.68,1.68,0,0,1,2.39.33,1.79,1.79,0,0,1-.32,2.46A1.68,1.68,0,0,1,368.92,74Z"/><polygon class="cls-2" points="362.49 63.47 363.37 62.78 370.55 72.45 369.67 73.14 362.49 63.47"/><path class="cls-2" d="M360,74.94a1.7,1.7,0,0,1,1.92-1.5,1.75,1.75,0,1,1-1.92,1.5Z"/><polygon class="cls-2" points="362.72 62.83 363.82 62.98 362.24 75.03 361.14 74.88 362.72 62.83"/><path class="cls-2" d="M353.08,69.15a1.67,1.67,0,0,1,2.39.33,1.79,1.79,0,0,1-.32,2.46,1.69,1.69,0,0,1-2.39-.33A1.79,1.79,0,0,1,353.08,69.15Z"/><polygon class="cls-2" points="363.33 62.54 364 63.44 354.58 70.82 353.91 69.92 363.33 62.54"/><path class="cls-2" d="M352.16,60a1.74,1.74,0,0,1,1.46,2,1.71,1.71,0,0,1-1.92,1.51,1.75,1.75,0,0,1-1.46-2A1.71,1.71,0,0,1,352.16,60Z"/><polygon class="cls-2" points="363.95 62.78 363.8 63.9 352.06 62.28 352.21 61.16 363.95 62.78"/><path class="cls-2" d="M366.09,61.65a3.36,3.36,0,0,1-.87,4.58,3.16,3.16,0,0,1-4.46-.89,3.36,3.36,0,0,1,.87-4.58A3.17,3.17,0,0,1,366.09,61.65Z"/><path class="cls-1" d="M205.55,144.07c-2.36.39-4.48-.48-5-2.18s.76-3.65,2.91-4.7c-3.64-4.93-11.42-6.93-19.21-4.45-9.33,3-15.12,11.24-12.94,18.48s11.52,10.69,20.85,7.71C200,156.45,205.29,150.26,205.55,144.07Z"/><path class="cls-1" d="M121,56.07c2-.9,4.06-.69,4.81.61s0,3.23-1.77,4.62c4.08,3.24,11.35,3,17.84-.95,7.78-4.75,11.5-13.07,8.31-18.57s-12.08-6.12-19.86-1.37C123.82,44.38,120.15,50.84,121,56.07Z"/><path class="cls-1" d="M275.7,5.76c1.51,1.65,2,3.7,1.06,4.86s-3,1-4.84-.17c-1.61,5,1,12,6.85,16.94,7,5.94,15.84,6.76,19.82,1.83s1.57-13.74-5.39-19.68C287.38,4.58,280.22,3.2,275.7,5.76Z"/><path class="cls-1" d="M464.68,9.7c-1.81,1.31-3.84,1.53-4.84.42s-.6-3.17.82-4.9C456,2.91,449,4.67,443.38,9.92c-6.66,6.28-8.64,15.21-4.42,19.92S452,33.29,458.67,27C464.24,21.74,466.54,14.64,464.68,9.7Z"/><path class="cls-1" d="M387.38,119.75c1.14,1.86,1.11,4-.18,5.2s-3.4.88-5-.54c-3,5.19-2.07,12.72,2.72,18.38,5.74,6.78,14.85,8.3,20.33,3.4s5.28-14.37-.46-21.15C400,119.38,392.8,117.39,387.38,119.75Z"/></svg>