<svg viewBox="0 0 519.75 109.23" xmlns="http://www.w3.org/2000/svg"><path d="m54.9 39.84c3.58 5.8 2.18 13.67-3.13 17.59s-12.5 2.38-16.08-3.43-2.18-13.67 3.13-17.59 12.5-2.41 16.08 3.43z" fill="#f9dbe8" transform="translate(-8 -9.88)"/><path d="m26 10.38c1 2.18.76 4.52-.6 5.52s-3.41.34-4.9-1.46c-3.37 5-3.07 13.21 1.18 20.09 5.08 8.25 13.9 11.48 19.68 7.22s6.35-14.41 1.26-22.66c-4.3-6.89-11.15-10.28-16.62-8.71z" fill="#f9dbe8" transform="translate(-8 -9.88)"/><path d="m71.43 16.09c-1.62 1.66-3.72 2.13-5 1s-1.3-3.46-.18-5.55c-5.37-2-12.44.71-17.2 7.18-5.7 7.76-5.9 17.92-.46 22.69s14.46 2.38 20.16-5.41c4.76-6.46 5.69-14.62 2.68-19.91z" fill="#f9dbe8" transform="translate(-8 -9.88)"/><path d="m80.92 62.87c-2-1.07-3.15-3-2.65-4.76s2.5-2.56 4.73-2.11c-.16-6.22-5-12.47-12.24-15-8.66-3.07-17.42.32-19.57 7.58s3.11 15.62 11.76 18.7c7.2 2.49 14.5.53 17.97-4.41z" fill="#f9dbe8" transform="translate(-8 -9.88)"/><path d="m43 89.11c.28-2.41 1.62-4.24 3.26-4.27s3 1.75 3.37 4.15c5.33-2.18 9.18-9.23 9.07-17.53-.14-9.94-5.91-17.92-12.88-17.8s-12.56 8.27-12.43 18.21c.12 8.32 4.17 15.25 9.61 17.24z" fill="#f9dbe8" transform="translate(-8 -9.88)"/><path d="m8 58.34c2.18-.49 4.2.3 4.75 2s-.54 3.7-2.5 4.84c3.61 4.81 11 6.5 18.11 3.69 8.56-3.37 13.58-11.92 11.22-19.09s-11.21-10.29-19.78-6.93c-7.15 2.82-11.8 9.26-11.8 15.49z" fill="#f9dbe8" transform="translate(-8 -9.88)"/><g fill="#fff"><path d="m39.5 37.48a2.13 2.13 0 0 1 -.34 2.81 1.73 1.73 0 0 1 -2.57-.38 2.13 2.13 0 0 1 .34-2.81 1.73 1.73 0 0 1 2.57.38z" transform="translate(-8 -9.88)"/><path d="m38.42 39.63-.95.79-7.72-11.07.95-.78z"/><path d="m49.06 36.4a1.88 1.88 0 0 1 -2.06 1.72 2 2 0 0 1 -1.57-2.26 1.87 1.87 0 0 1 2.06-1.72 2 2 0 0 1 1.57 2.26z" transform="translate(-8 -9.88)"/><path d="m38.17 40.37-1.18-.17 1.7-13.79 1.17.17z"/><path d="m56.52 43a1.73 1.73 0 0 1 -2.52-.36 2.14 2.14 0 0 1 .34-2.81 1.73 1.73 0 0 1 2.57.38 2.13 2.13 0 0 1 -.39 2.79z" transform="translate(-8 -9.88)"/><path d="m37.51 40.7-.71-1.04 10.12-8.44.71 1.04z"/><path d="m57.51 53.47a2 2 0 0 1 -1.57-2.26 1.88 1.88 0 0 1 2.06-1.72 2 2 0 0 1 1.57 2.26 1.88 1.88 0 0 1 -2.06 1.72z" transform="translate(-8 -9.88)"/><path d="m36.84 40.42.16-1.28 12.61 1.85-.16 1.29z"/><path d="m51.46 61.62a2.13 2.13 0 0 1 .34-2.81 1.73 1.73 0 0 1 2.57.38 2.13 2.13 0 0 1 -.37 2.81 1.73 1.73 0 0 1 -2.54-.38z" transform="translate(-8 -9.88)"/><path d="m36.55 39.71.94-.79 7.71 11.07-.94.78z"/><path d="m41.9 62.71a1.87 1.87 0 0 1 2.1-1.71 2 2 0 0 1 1.57 2.25 1.86 1.86 0 0 1 -2.1 1.75 2 2 0 0 1 -1.57-2.29z" transform="translate(-8 -9.88)"/><path d="m36.79 38.98 1.18.17-1.7 13.79-1.17-.17z"/><path d="m34.44 56.09a1.73 1.73 0 0 1 2.57.38 2.12 2.12 0 0 1 -.35 2.8 1.73 1.73 0 0 1 -2.57-.37 2.14 2.14 0 0 1 .35-2.81z" transform="translate(-8 -9.88)"/><path d="m37.44 38.65.72 1.03-10.11 8.44-.72-1.03z"/><path d="m33.45 45.64a2 2 0 0 1 1.55 2.25 1.87 1.87 0 0 1 -2 1.72 2 2 0 0 1 -1.58-2.25 1.87 1.87 0 0 1 2.03-1.72z" transform="translate(-8 -9.88)"/><path d="m38.12 38.92-.17 1.29-12.6-1.86.15-1.28z"/><path d="m48.41 47.51a4 4 0 0 1 -.93 5.24 3.28 3.28 0 0 1 -4.79-1 4 4 0 0 1 .93-5.23 3.27 3.27 0 0 1 4.79.99z" transform="translate(-8 -9.88)"/></g><path d="m219.55 66.4c3.58 5.8 2.18 13.67-3.13 17.58s-12.5 2.38-16.08-3.42-2.17-13.67 3.13-17.56 12.53-2.4 16.08 3.4z" fill="#f9dbe8" transform="translate(-8 -9.88)"/><path d="m190.6 36.93c1 2.19.76 4.53-.59 5.53s-3.41.33-4.9-1.46c-3.38 5-3.08 13.21 1.17 20.09 5.08 8.25 13.9 11.48 19.68 7.21s6.35-14.4 1.26-22.65c-4.22-6.9-11.1-10.28-16.62-8.72z" fill="#f9dbe8" transform="translate(-8 -9.88)"/><path d="m236.08 42.65c-1.62 1.66-3.72 2.13-5 1s-1.3-3.46-.17-5.55c-5.38-2-12.45.7-17.21 7.18-5.7 7.77-5.9 17.92-.46 22.72s14.46 2.36 20.16-5.39c4.76-6.51 5.69-14.67 2.68-19.96z" fill="#f9dbe8" transform="translate(-8 -9.88)"/><path d="m245.57 89.42c-2-1.06-3.15-3-2.64-4.75s2.49-2.56 4.68-2.15c-.16-6.22-5-12.48-12.24-15-8.66-3.07-17.42.32-19.57 7.58s3.11 15.62 11.77 18.69c7.23 2.53 14.54.58 18-4.37z" fill="#f9dbe8" transform="translate(-8 -9.88)"/><path d="m207.61 115.66c.28-2.41 1.62-4.24 3.26-4.26s3 1.75 3.37 4.15c5.33-2.18 9.18-9.23 9.07-17.53-.14-10-5.91-17.92-12.88-17.81s-12.52 8.28-12.38 18.22c.11 8.32 4.16 15.25 9.56 17.23z" fill="#f9dbe8" transform="translate(-8 -9.88)"/><path d="m172.65 84.89c2.18-.49 4.2.3 4.75 2s-.54 3.7-2.5 4.84c3.61 4.81 11 6.5 18.11 3.69 8.56-3.37 13.58-11.92 11.22-19.1s-11.23-10.27-19.77-6.91c-7.16 2.82-11.84 9.26-11.81 15.48z" fill="#f9dbe8" transform="translate(-8 -9.88)"/><path d="m204.15 64a2.13 2.13 0 0 1 -.34 2.81 1.73 1.73 0 0 1 -2.57-.38 2.13 2.13 0 0 1 .34-2.81 1.73 1.73 0 0 1 2.57.38z" fill="#fff" transform="translate(-8 -9.88)"/><path d="m203.07 66.19-.95.79-7.71-11.07.94-.78z" fill="#fff"/><path d="m213.71 63a1.87 1.87 0 0 1 -2.06 1.72 2 2 0 0 1 -1.57-2.25 1.87 1.87 0 0 1 2.06-1.72 2 2 0 0 1 1.57 2.25z" fill="#fff" transform="translate(-8 -9.88)"/><path d="m202.82 66.93-1.18-.18 1.7-13.79 1.17.17z" fill="#fff"/><path d="m221.17 69.58a1.73 1.73 0 0 1 -2.57-.38 2.13 2.13 0 0 1 .35-2.81 1.72 1.72 0 0 1 2.56.38 2.13 2.13 0 0 1 -.34 2.81z" fill="#fff" transform="translate(-8 -9.88)"/><path d="m202.17 67.25-.72-1.03 10.12-8.44.71 1.04z" fill="#fff"/><path d="m222.16 80a2 2 0 0 1 -1.57-2.26 1.87 1.87 0 0 1 2.06-1.72 2 2 0 0 1 1.57 2.26 1.87 1.87 0 0 1 -2.06 1.72z" fill="#fff" transform="translate(-8 -9.88)"/><path d="m201.5 66.98.15-1.29 12.61 1.86-.16 1.29z" fill="#fff"/><path d="m216.11 88.18a2.13 2.13 0 0 1 .34-2.81 1.73 1.73 0 0 1 2.57.38 2.13 2.13 0 0 1 -.34 2.81 1.73 1.73 0 0 1 -2.57-.38z" fill="#fff" transform="translate(-8 -9.88)"/><path d="m201.2 66.27.94-.79 7.72 11.07-.95.78z" fill="#fff"/><path d="m206.55 89.27a1.87 1.87 0 0 1 2.06-1.72 2 2 0 0 1 1.58 2.25 1.87 1.87 0 0 1 -2.07 1.72 2 2 0 0 1 -1.57-2.25z" fill="#fff" transform="translate(-8 -9.88)"/><path d="m201.44 65.53 1.18.18-1.7 13.78-1.17-.17z" fill="#fff"/><path d="m199.09 82.65a1.73 1.73 0 0 1 2.57.37 2.14 2.14 0 0 1 -.34 2.81 1.74 1.74 0 0 1 -2.57-.37 2.13 2.13 0 0 1 .34-2.81z" fill="#fff" transform="translate(-8 -9.88)"/><path d="m202.1 65.21.71 1.03-10.11 8.43-.72-1.03z" fill="#fff"/><path d="m198.1 72.19a2 2 0 0 1 1.57 2.26 1.86 1.86 0 0 1 -2.06 1.72 2 2 0 0 1 -1.61-2.26 1.87 1.87 0 0 1 2.1-1.72z" fill="#fff" transform="translate(-8 -9.88)"/><path d="m202.77 65.48-.16 1.29-12.61-1.86.16-1.28z" fill="#fff"/><path d="m213.06 74.07a4 4 0 0 1 -.93 5.24 3.28 3.28 0 0 1 -4.79-1 4 4 0 0 1 .93-5.24 3.28 3.28 0 0 1 4.79 1z" fill="#fff" transform="translate(-8 -9.88)"/><path d="m381.67 69.85c3.57 5.79 2.18 13.67-3.13 17.58s-12.54 2.38-16.08-3.43-2.18-13.67 3.13-17.58 12.5-2.37 16.08 3.43z" fill="#f9dbe8" transform="translate(-8 -9.88)"/><path d="m352.72 40.38c1 2.18.76 4.52-.6 5.52s-3.41.34-4.9-1.46c-3.38 5-3.07 13.21 1.18 20.09 5.08 8.25 13.89 11.48 19.68 7.22s6.35-14.41 1.26-22.66c-4.25-6.89-11.11-10.28-16.62-8.71z" fill="#f9dbe8" transform="translate(-8 -9.88)"/><path d="m398.2 46.09c-1.62 1.66-3.72 2.13-5 1s-1.3-3.46-.18-5.54c-5.37-2.05-12.44.7-17.2 7.17-5.7 7.76-5.91 17.92-.47 22.69s14.47 2.37 20.17-5.39c4.76-6.47 5.68-14.64 2.68-19.93z" fill="#f9dbe8" transform="translate(-8 -9.88)"/><path d="m407.68 92.87c-2-1.07-3.14-3.05-2.64-4.75s2.5-2.57 4.69-2.15c-.16-6.22-5-12.48-12.25-15-8.65-3.07-17.41.32-19.57 7.57s3.09 15.59 11.77 18.66c7.24 2.57 14.54.61 18-4.33z" fill="#f9dbe8" transform="translate(-8 -9.88)"/><path d="m369.73 119.11c.28-2.41 1.62-4.24 3.26-4.27s3 1.76 3.37 4.15c5.33-2.17 9.18-9.22 9.06-17.53-.13-9.94-5.9-17.91-12.88-17.8s-12.54 8.27-12.38 18.22c.12 8.31 4.17 15.24 9.57 17.23z" fill="#f9dbe8" transform="translate(-8 -9.88)"/><path d="m334.77 88.34c2.18-.49 4.19.3 4.75 2s-.52 3.66-2.52 4.82c3.61 4.81 11 6.5 18.1 3.69 8.57-3.37 13.59-11.91 11.23-19.09s-11.22-10.27-19.78-6.9c-7.13 2.81-11.82 9.25-11.78 15.48z" fill="#f9dbe8" transform="translate(-8 -9.88)"/><path d="m366.27 67.48a2.13 2.13 0 0 1 -.35 2.81 1.72 1.72 0 0 1 -2.56-.37 2.13 2.13 0 0 1 .34-2.81 1.73 1.73 0 0 1 2.57.37z" fill="#fff" transform="translate(-8 -9.88)"/><path d="m365.18 69.64-.94.78-7.72-11.06.95-.79z" fill="#fff"/><path d="m375.83 66.4a1.88 1.88 0 0 1 -2.06 1.72 2 2 0 0 1 -1.58-2.26 1.89 1.89 0 0 1 2.07-1.72 2 2 0 0 1 1.57 2.26z" fill="#fff" transform="translate(-8 -9.88)"/><path d="m364.93 70.37-1.17-.17 1.7-13.79 1.17.17z" fill="#fff"/><path d="m383.29 73a1.73 1.73 0 0 1 -2.57-.38 2.14 2.14 0 0 1 .34-2.81 1.73 1.73 0 0 1 2.57.38 2.13 2.13 0 0 1 -.34 2.81z" fill="#fff" transform="translate(-8 -9.88)"/><path d="m364.28 70.7-.72-1.03 10.13-8.44.71 1.03z" fill="#fff"/><path d="m384.28 83.47a2 2 0 0 1 -1.57-2.25 1.88 1.88 0 0 1 2.06-1.73 2 2 0 0 1 1.57 2.26 1.87 1.87 0 0 1 -2.06 1.72z" fill="#fff" transform="translate(-8 -9.88)"/><path d="m363.61 70.42.16-1.28 12.61 1.86-.16 1.28z" fill="#fff"/><path d="m378.22 91.62a2.13 2.13 0 0 1 .35-2.8 1.72 1.72 0 0 1 2.57.37 2.13 2.13 0 0 1 -.35 2.81 1.73 1.73 0 0 1 -2.57-.38z" fill="#fff" transform="translate(-8 -9.88)"/><path d="m363.31 69.71.95-.79 7.71 11.07-.94.79z" fill="#fff"/><path d="m368.67 92.71a1.87 1.87 0 0 1 2.06-1.71 2 2 0 0 1 1.57 2.26 1.88 1.88 0 0 1 -2.06 1.74 2 2 0 0 1 -1.57-2.29z" fill="#fff" transform="translate(-8 -9.88)"/><path d="m363.56 68.98 1.18.17-1.7 13.79-1.17-.17z" fill="#fff"/><path d="m361.21 86.09a1.73 1.73 0 0 1 2.57.38 2.13 2.13 0 0 1 -.35 2.81 1.73 1.73 0 0 1 -2.57-.38 2.13 2.13 0 0 1 .35-2.81z" fill="#fff" transform="translate(-8 -9.88)"/><path d="m364.21 68.65.72 1.03-10.12 8.44-.71-1.03z" fill="#fff"/><path d="m360.22 75.64a2 2 0 0 1 1.57 2.26 1.87 1.87 0 0 1 -2.06 1.71 2 2 0 0 1 -1.58-2.25 1.87 1.87 0 0 1 2.07-1.72z" fill="#fff" transform="translate(-8 -9.88)"/><path d="m364.88 68.92-.16 1.29-12.6-1.86.15-1.28z" fill="#fff"/><path d="m375.18 77.52a4 4 0 0 1 -.93 5.23 3.27 3.27 0 0 1 -4.79-1 4 4 0 0 1 .93-5.23 3.28 3.28 0 0 1 4.79 1z" fill="#fff" transform="translate(-8 -9.88)"/><path d="m477.52 39.73c3.58 5.79 2.18 13.67-3.13 17.58s-12.5 2.38-16.08-3.42-2.17-13.67 3.13-17.58 12.56-2.39 16.08 3.42z" fill="#f9dbe8" transform="translate(-8 -9.88)"/><path d="m448.57 10.26c1 2.18.77 4.52-.59 5.52s-3.41.34-4.9-1.46c-3.38 5-3.08 13.21 1.17 20.09 5.09 8.25 13.9 11.48 19.68 7.22s6.35-14.41 1.27-22.63c-4.26-6.92-11.11-10.31-16.63-8.74z" fill="#f9dbe8" transform="translate(-8 -9.88)"/><path d="m494.06 16c-1.62 1.66-3.73 2.13-5 1s-1.31-3.46-.18-5.54c-5.37-2-12.45.7-17.21 7.17-5.69 7.76-5.9 17.92-.46 22.69s14.47 2.37 20.16-5.39c4.76-6.51 5.69-14.67 2.69-19.93z" fill="#f9dbe8" transform="translate(-8 -9.88)"/><path d="m503.54 62.75c-2-1.07-3.15-3-2.64-4.75s2.5-2.57 4.68-2.15c-.16-6.22-5-12.48-12.24-15-8.66-3.08-17.42.31-19.57 7.57s3.11 15.63 11.77 18.7c7.23 2.53 14.54.57 18-4.37z" fill="#f9dbe8" transform="translate(-8 -9.88)"/><path d="m465.58 89c.28-2.41 1.62-4.24 3.26-4.27s3 1.75 3.37 4.15c5.34-2.17 9.18-9.22 9.07-17.53-.14-9.94-5.9-17.91-12.88-17.8s-12.52 8.26-12.4 18.21c.13 8.31 4.18 15.24 9.58 17.24z" fill="#f9dbe8" transform="translate(-8 -9.88)"/><path d="m430.62 58.22c2.18-.49 4.2.3 4.75 2s-.53 3.7-2.49 4.84c3.6 4.81 10.95 6.5 18.1 3.69 8.56-3.37 13.59-11.91 11.22-19.09s-11.2-10.29-19.77-6.92c-7.16 2.81-11.84 9.26-11.81 15.48z" fill="#f9dbe8" transform="translate(-8 -9.88)"/><path d="m462.13 37.36a2.14 2.14 0 0 1 -.35 2.81 1.73 1.73 0 0 1 -2.57-.37 2.14 2.14 0 0 1 .35-2.82 1.74 1.74 0 0 1 2.57.38z" fill="#fff" transform="translate(-8 -9.88)"/><path d="m461.04 39.52-.95.78-7.71-11.07.94-.78z" fill="#fff"/><path d="m471.68 36.28a1.87 1.87 0 0 1 -2.06 1.72 2 2 0 0 1 -1.57-2.26 1.88 1.88 0 0 1 2.06-1.74 2 2 0 0 1 1.57 2.28z" fill="#fff" transform="translate(-8 -9.88)"/><path d="m460.79 40.25-1.18-.17 1.7-13.79 1.18.17z" fill="#fff"/><path d="m479.14 42.9a1.73 1.73 0 0 1 -2.57-.38 2.13 2.13 0 0 1 .35-2.81 1.73 1.73 0 0 1 2.57.38 2.13 2.13 0 0 1 -.35 2.81z" fill="#fff" transform="translate(-8 -9.88)"/><path d="m460.14 40.58-.72-1.04 10.12-8.43.72 1.03z" fill="#fff"/><path d="m480.13 53.35a2 2 0 0 1 -1.57-2.26 1.88 1.88 0 0 1 2.06-1.72 2 2 0 0 1 1.58 2.26 1.88 1.88 0 0 1 -2.07 1.72z" fill="#fff" transform="translate(-8 -9.88)"/><path d="m459.47 40.3.16-1.28 12.61 1.85-.16 1.29z" fill="#fff"/><path d="m474.08 61.5a2.13 2.13 0 0 1 .34-2.8 1.72 1.72 0 0 1 2.57.37 2.13 2.13 0 0 1 -.34 2.81 1.73 1.73 0 0 1 -2.57-.38z" fill="#fff" transform="translate(-8 -9.88)"/><path d="m459.17 39.59.94-.79 7.72 11.07-.95.78z" fill="#fff"/><path d="m464.52 62.59a1.87 1.87 0 0 1 2.06-1.72 2 2 0 0 1 1.58 2.25 1.89 1.89 0 0 1 -2.07 1.73 2 2 0 0 1 -1.57-2.26z" fill="#fff" transform="translate(-8 -9.88)"/><path d="m459.42 38.86 1.17.17-1.7 13.79-1.17-.17z" fill="#fff"/><path d="m457.06 56a1.73 1.73 0 0 1 2.57.38 2.13 2.13 0 0 1 -.34 2.81 1.74 1.74 0 0 1 -2.57-.38 2.14 2.14 0 0 1 .34-2.81z" fill="#fff" transform="translate(-8 -9.88)"/><path d="m460.07 38.53.72 1.03-10.12 8.44-.72-1.03z" fill="#fff"/><path d="m456.07 45.52a2 2 0 0 1 1.57 2.25 1.86 1.86 0 0 1 -2.06 1.72 2 2 0 0 1 -1.58-2.25 1.87 1.87 0 0 1 2.07-1.72z" fill="#fff" transform="translate(-8 -9.88)"/><path d="m460.74 38.8-.16 1.29-12.61-1.86.16-1.28z" fill="#fff"/><path d="m471 47.39a4 4 0 0 1 -.93 5.24 3.28 3.28 0 0 1 -4.79-1 4 4 0 0 1 .94-5.23 3.26 3.26 0 0 1 4.78.99z" fill="#fff" transform="translate(-8 -9.88)"/><path d="m137.94 74.13c2.18-1 4.37-.78 5.17.69s0 3.7-1.9 5.29c4.38 3.71 12.19 3.45 19.16-1.09 8.36-5.43 12.35-14.94 8.93-21.24s-13-7-21.33-1.56c-6.97 4.54-10.92 11.93-10.03 17.91z" fill="#f9dbe8" transform="translate(-8 -9.88)"/><path d="m304.1 16.59c1.62 1.89 2.14 4.23 1.14 5.55s-3.24 1.2-5.24-.14c-1.72 5.76 1.11 13.71 7.36 19.38 7.47 6.79 17 7.72 21.29 2.09s1.69-15.71-5.79-22.5c-6.22-5.73-13.86-7.31-18.76-4.38z" fill="#f9dbe8" transform="translate(-8 -9.88)"/><path d="m527.06 91.1c-1.93 1.49-4.12 1.74-5.19.48s-.65-3.63.87-5.61c-5-2.64-12.57-.63-18.55 5.37-7.15 7.19-9.28 17.4-4.75 22.79s14 3.94 21.18-3.25c5.98-6.01 8.44-14.13 6.44-19.78z" fill="#f9dbe8" transform="translate(-8 -9.88)"/></svg>